{
.appVersion = "983";
date = "2017-06-04 21:19:05 +0000";
disablesAutomaticAlignment = 1;
disablesNiceNames = 1;
familyName = Trocchi;
featurePrefixes = (
{
automatic = 1;
code = "languagesystem DFLT dflt;\012languagesystem grek dflt;\012languagesystem latn dflt;\012languagesystem latn CAT;\012";
name = Languagesystems;
}
);
features = (
{
code = "sub period period period by ellipsis;\012sub one slash two by onehalf;\012sub one slash four by onequarter;\012sub three slash four by threequarters;\012sub f f i by f_f_i;\012sub f f l by f_f_l;\012sub f f by f_f;\012sub f i by fi;\012sub f j by f_j;\012sub f l by fl;\012script grek;\012sub period period period by ellipsis;\012sub one slash two by onehalf;\012sub one slash four by onequarter;\012sub three slash four by threequarters;\012sub f f i by f_f_i;\012sub f f l by f_f_l;\012sub f f by f_f;\012sub f i by fi;\012sub f j by f_j;\012sub f l by fl;\012script latn;\012sub period period period by ellipsis;\012sub one slash two by onehalf;\012sub one slash four by onequarter;\012sub three slash four by threequarters;\012sub f f i by f_f_i;\012sub f f l by f_f_l;\012sub f f by f_f;\012sub f i by fi;\012sub f j by f_j;\012sub f l by fl;\012";
name = liga;
},
{
code = "sub c h by c_h;\012sub c k by c_k;\012sub s h by s_h;\012sub t t by t_t;\012script grek;\012sub c h by c_h;\012sub c k by c_k;\012sub s h by s_h;\012sub t t by t_t;\012script latn;\012sub c h by c_h;\012sub c k by c_k;\012sub s h by s_h;\012sub t t by t_t;\012";
name = dlig;
},
{
automatic = 1;
code = "feature locl;\012feature sups;\012feature frac;\012feature ordn;\012feature ss01;\012feature ss02;\012";
name = aalt;
},
{
automatic = 1;
code = "script latn;\012language CAT;\012sub  l' periodcentered' l by ldot;\012sub  L' periodcentered' L by Ldot;\012";
name = locl;
},
{
automatic = 1;
code = "sub one by onesuperior;\012sub two by twosuperior;\012sub three by threesuperior;\012";
name = sups;
},
{
automatic = 1;

glyphs = (
{
glyphname = A;
lastChange = "2017-06-04 21:18:45 +0000";
layers = (
{
layerId = "EE746D13-63D7-48F9-B77E-C723CA6A668B";
paths = (
{
closed = 1;
nodes = (
"310 0 LINE",
"310 70 LINE",
"187 70 LINE",
"251 246 LINE",
"533 246 LINE",
"601 70 LINE",
"492 70 LINE",
"492 0 LINE",
"808 0 LINE",
"808 70 LINE",
"726 70 LINE",
"465 735 LINE",
"349 735 LINE",
"92 70 LINE",
"4 70 LINE",
"4 0 LINE"
);
},
{
closed = 1;
nodes = (
"388 639 LINE",
"509 308 LINE",
"274 308 LINE"
);
}
);
width = 812;
}
);
leftKerningGroup = A;
note = A;
rightKerningGroup = A;
unicode = 0041;
},
{
glyphname = AE;
lastChange = "2017-06-04 21:18:45 +0000";
layers = (
{
layerId = "EE746D13-63D7-48F9-B77E-C723CA6A668B";
paths = (
{
closed = 1;
nodes = (
"302 0 LINE",
"302 67 LINE",
"196 67 LINE",
"292 246 LINE",
"517 246 LINE",
"517 67 LINE",
"427 67 LINE",
"427 0 LINE",
"1012 0 LINE",
"1012 279 LINE",
"924 279 LINE",
"924 67 LINE",
"623 67 LINE",
"623 341 LINE",
"765 341 LINE",
"765 207 LINE",
"830 207 LINE",
"830 507 LINE",
"765 507 LINE",
"765 397 LINE",
"623 397 LINE",
"623 652 LINE",
"924 652 LINE",
"924 439 LINE",
"1012 439 LINE",
"1012 722 LINE",
"297 722 LINE",
"297 652 LINE",
"427 652 LINE",
"88 67 LINE",
"0 67 LINE",
"0 0 LINE"
);
},
{
closed = 1;
nodes = (
"517 652 LINE",
"517 308 LINE",
"326 308 LINE"
);
}
);
width = 1057;
}
);
note = AE;
unicode = 00C6;
},
{
glyphname = B;
lastChange = "2017-06-04 21:18:45 +0000";
layers = (
{
layerId = "EE746D13-63D7-48F9-B77E-C723CA6A668B";
paths = (
{
closed = 1;
nodes = (
"340 0 LINE SMOOTH",
"362 0 OFFCURVE",
"382 0 OFFCURVE",
"399 1 CURVE SMOOTH",
"434 2 OFFCURVE",
"489 9 OFFCURVE",
"525 19 CURVE SMOOTH",
"561 29 OFFCURVE",
"604 50 OFFCURVE",
"628 78 CURVE SMOOTH",
"653 105 OFFCURVE",
"671 148 OFFCURVE",
"671 201 CURVE SMOOTH",
"671 303 OFFCURVE",
"609 368 OFFCURVE",
"497 395 CURVE",
"585 420 OFFCURVE",
"632 470 OFFCURVE",
"632 553 CURVE SMOOTH",
"632 603 OFFCURVE",
"613 644 OFFCURVE",
"582 669 CURVE SMOOTH",
"550 695 OFFCURVE",
"512 713 OFFCURVE",
"465 722 CURVE SMOOTH",
"418 731 OFFCURVE",
"379 735 OFFCURVE",
"336 735 CURVE SMOOTH",
"16 735 LINE",
"16 665 LINE",
"136 665 LINE",
"136 70 LINE",
"16 70 LINE",
"16 0 LINE"
);
},
{
closed = 1;
nodes = (
"251 356 LINE",
"357 356 LINE SMOOTH",
"408 356 OFFCURVE",
"456 343 OFFCURVE",
"494 320 CURVE SMOOTH",
"532 296 OFFCURVE",
"556 255 OFFCURVE",
"556 205 CURVE SMOOTH",
"556 175 OFFCURVE",
"552 151 OFFCURVE",
"541 133 CURVE SMOOTH",
"529 115 OFFCURVE",
"516 102 OFFCURVE",
"494 93 CURVE SMOOTH",
"471 83 OFFCURVE",
"450 78 OFFCURVE",
"417 74 CURVE SMOOTH",
"383 71 OFFCURVE",
"354 70 OFFCURVE",
"309 70 CURVE SMOOTH",
"251 70 LINE"
);
},
{
closed = 1;
nodes = (
"251 665 LINE",
"290 665 LINE SMOOTH",
"313 665 OFFCURVE",
"333 665 OFFCURVE",
"350 664 CURVE SMOOTH",
"383 662 OFFCURVE",
"421 658 OFFCURVE",
"445 651 CURVE SMOOTH",
"468 643 OFFCURVE",
"493 630 OFFCURVE",
"505 613 CURVE SMOOTH",
"518 595 OFFCURVE",
"526 570 OFFCURVE",
"526 537 CURVE SMOOTH",
"526 496 OFFCURVE",
"504 464 OFFCURVE",
"471 447 CURVE SMOOTH",
"438 429 OFFCURVE",
"398 421 OFFCURVE",
"357 421 CURVE SMOOTH",
"251 421 LINE"
);
}
);
width = 706;
}
);
note = B;
rightKerningGroup = B;
unicode = 0042;
},
{
glyphname = C;
lastChange = "2017-06-04 21:18:45 +0000";
layers = (
{
layerId = "EE746D13-63D7-48F9-B77E-C723CA6A668B";
paths = (
{
closed = 1;
nodes = (
"556 -13 OFFCURVE",
"664 73 OFFCURVE",
"698 223 CURVE",
"633 255 LINE",
"622 212 OFFCURVE",
"598 170 OFFCURVE",
"563 136 CURVE SMOOTH",
"529 101 OFFCURVE",
"476 77 OFFCURVE",
"419 77 CURVE SMOOTH",
"343 77 OFFCURVE",
"276 115 OFFCURVE",
"235 172 CURVE SMOOTH",
"194 229 OFFCURVE",
"170 301 OFFCURVE",
"170 373 CURVE SMOOTH",
"170 561 OFFCURVE",
"265 682 OFFCURVE",
"398 682 CURVE SMOOTH",
"480 682 OFFCURVE",
"545 643 OFFCURVE",
"577 594 CURVE",
"538 594 OFFCURVE",
"490 566 OFFCURVE",
"490 516 CURVE SMOOTH",
"490 466 OFFCURVE",
"524 435 OFFCURVE",
"573 435 CURVE SMOOTH",
"631 435 OFFCURVE",
"669 479 OFFCURVE",
"669 524 CURVE SMOOTH",
"669 567 OFFCURVE",
"656 606 OFFCURVE",
"629 641 CURVE SMOOTH",
"576 711 OFFCURVE",
"488 750 OFFCURVE",
"399 750 CURVE SMOOTH",
"293 750 OFFCURVE",
"201 710 OFFCURVE",
"139 644 CURVE SMOOTH",
"77 578 OFFCURVE",
"41 482 OFFCURVE",
"41 375 CURVE SMOOTH",
"41 271 OFFCURVE",
"77 172 OFFCURVE",
"137 102 CURVE SMOOTH",
"197 32 OFFCURVE",
"287 -13 OFFCURVE",
"388 -13 CURVE SMOOTH"
);
}
);
width = 707;
}
);
leftKerningGroup = C;
note = C;
unicode = 0043;
},
{
glyphname = C.alt;
lastChange = "2017-06-05 19:24:16 +0000";
layers = (
{
guideLines = (
{
angle = 90;
position = "{266, 685}";
}
);
layerId = "EE746D13-63D7-48F9-B77E-C723CA6A668B";
paths = (
{
closed = 1;
nodes = (
"535 -13 OFFCURVE",
"649 68 OFFCURVE",
"694 223 CURVE",
"629 255 LINE",
"593 133 OFFCURVE",
"520 64 OFFCURVE",
"395 64 CURVE SMOOTH",
"241 64 OFFCURVE",
"161 202 OFFCURVE",
"161 373 CURVE SMOOTH",
"161 561 OFFCURVE",
"265 682 OFFCURVE",
"398 682 CURVE SMOOTH",
"480 682 OFFCURVE",
"545 643 OFFCURVE",
"577 594 CURVE",
"538 594 OFFCURVE",
"490 566 OFFCURVE",
"490 516 CURVE SMOOTH",
"490 466 OFFCURVE",
"524 435 OFFCURVE",
"573 435 CURVE SMOOTH",
"631 435 OFFCURVE",
"669 479 OFFCURVE",
"669 524 CURVE SMOOTH",
"669 655 OFFCURVE",
"535 750 OFFCURVE",
"399 750 CURVE SMOOTH",
"185 750 OFFCURVE",
"36 593 OFFCURVE",
"36 375 CURVE SMOOTH",
"36 171 OFFCURVE",
"166 -13 OFFCURVE",
"393 -13 CURVE SMOOTH"
);
}
);
width = 703;
}
);
},
{
glyphname = D;
lastChange = "2017-06-04 21:18:45 +0000";
layers = (
{
layerId = "EE746D13-63D7-48F9-B77E-C723CA6A668B";
paths = (
{
closed = 1;
nodes = (
"255 0 LINE SMOOTH",
"311 0 OFFCURVE",
"363 4 OFFCURVE",
"410 13 CURVE SMOOTH",
"504 31 OFFCURVE",
"585 69 OFFCURVE",
"640 126 CURVE SMOOTH",
"694 184 OFFCURVE",
"725 268 OFFCURVE",
"725 372 CURVE SMOOTH",
"725 427 OFFCURVE",
"716 477 OFFCURVE",
"698 520 CURVE SMOOTH",
"661 605 OFFCURVE",
"602 655 OFFCURVE",
"516 689 CURVE SMOOTH",
"430 724 OFFCURVE",
"342 735 OFFCURVE",
"237 735 CURVE SMOOTH",
"16 735 LINE",
"16 665 LINE",
"135 665 LINE",
"135 70 LINE",
"16 70 LINE",
"16 0 LINE"
);
},
{
closed = 1;
nodes = (
"250 664 LINE",
"278 664 OFFCURVE",
"303 663 OFFCURVE",
"327 661 CURVE SMOOTH",
"374 657 OFFCURVE",
"425 646 OFFCURVE",
"464 627 CURVE SMOOTH",
"503 609 OFFCURVE",
"540 579 OFFCURVE",
"563 539 CURVE SMOOTH",
"586 499 OFFCURVE",
"600 441 OFFCURVE",
"600 372 CURVE SMOOTH",
"600 326 OFFCURVE",
"594 285 OFFCURVE",
"582 250 CURVE SMOOTH",
"558 180 OFFCURVE",
"518 137 OFFCURVE",
"457 108 CURVE SMOOTH",
"396 80 OFFCURVE",
"332 70 OFFCURVE",
"250 70 CURVE"
);
}
);
width = 766;
}
);
note = D;
rightKerningGroup = D;
unicode = 0044;
},
{
glyphname = Eth;
lastChange = "2017-06-04 21:18:45 +0000";
layers = (
{
layerId = "EE746D13-63D7-48F9-B77E-C723CA6A668B";
paths = (
{
closed = 1;
nodes = (
"255 0 LINE SMOOTH",
"311 0 OFFCURVE",
"363 4 OFFCURVE",
"410 13 CURVE SMOOTH",
"504 31 OFFCURVE",
"585 69 OFFCURVE",
"640 126 CURVE SMOOTH",
"694 184 OFFCURVE",
"725 268 OFFCURVE",
"725 372 CURVE SMOOTH",
"725 427 OFFCURVE",
"716 477 OFFCURVE",
"698 520 CURVE SMOOTH",
"661 605 OFFCURVE",
"602 655 OFFCURVE",
"516 689 CURVE SMOOTH",
"430 724 OFFCURVE",
"342 735 OFFCURVE",
"237 735 CURVE SMOOTH",
"16 735 LINE",
"16 665 LINE",
"135 665 LINE",
"135 407 LINE",
"27 407 LINE",
"27 337 LINE",
"135 337 LINE",
"135 67 LINE",
"16 67 LINE",
"16 0 LINE"
);
},
{
closed = 1;
nodes = (
"250 337 LINE",
"373 337 LINE",
"373 407 LINE",
"250 407 LINE",
"250 664 LINE",
"278 664 OFFCURVE",
"303 663 OFFCURVE",
"327 661 CURVE SMOOTH",
"374 657 OFFCURVE",
"425 646 OFFCURVE",
"464 627 CURVE SMOOTH",
"503 609 OFFCURVE",
"540 579 OFFCURVE",
"563 539 CURVE SMOOTH",
"586 499 OFFCURVE",
"600 441 OFFCURVE",
"600 372 CURVE SMOOTH",
"600 326 OFFCURVE",
"594 285 OFFCURVE",
"582 249 CURVE SMOOTH",
"558 178 OFFCURVE",
"518 135 OFFCURVE",
"457 106 CURVE SMOOTH",
"396 77 OFFCURVE",
"332 67 OFFCURVE",
"250 67 CURVE"
);
}
);
width = 788;
}
);
note = Eth;
rightKerningGroup = D;
unicode = 00D0;
},
{
glyphname = Dcroat;
lastChange = "2017-06-04 21:18:45 +0000";
layers = (
{
layerId = "EE746D13-63D7-48F9-B77E-C723CA6A668B";
paths = (
{
closed = 1;
nodes = (
"255 0 LINE SMOOTH",
"311 0 OFFCURVE",
"363 4 OFFCURVE",
"410 13 CURVE SMOOTH",
"504 31 OFFCURVE",
"585 69 OFFCURVE",
"640 126 CURVE SMOOTH",
"694 184 OFFCURVE",
"725 268 OFFCURVE",
"725 372 CURVE SMOOTH",
"725 427 OFFCURVE",
"716 477 OFFCURVE",
"698 520 CURVE SMOOTH",
"661 605 OFFCURVE",
"602 655 OFFCURVE",
"516 689 CURVE SMOOTH",
"430 724 OFFCURVE",
"342 735 OFFCURVE",
"237 735 CURVE SMOOTH",
"16 735 LINE",
"16 665 LINE",
"135 665 LINE",
"135 407 LINE",
"27 407 LINE",
"27 337 LINE",
"135 337 LINE",
"135 67 LINE",
"16 67 LINE",
"16 0 LINE"
);
},
{
closed = 1;
nodes = (
"250 337 LINE",
"373 337 LINE",
"373 407 LINE",
"250 407 LINE",
"250 664 LINE",
"278 664 OFFCURVE",
"303 663 OFFCURVE",
"327 661 CURVE SMOOTH",
"374 657 OFFCURVE",
"425 646 OFFCURVE",
"464 627 CURVE SMOOTH",
"503 609 OFFCURVE",
"540 579 OFFCURVE",
"563 539 CURVE SMOOTH",
"586 499 OFFCURVE",
"600 441 OFFCURVE",
"600 372 CURVE SMOOTH",
"600 326 OFFCURVE",
"594 285 OFFCURVE",
"582 249 CURVE SMOOTH",
"558 178 OFFCURVE",
"518 135 OFFCURVE",
"457 106 CURVE SMOOTH",
"396 77 OFFCURVE",
"332 67 OFFCURVE",
"250 67 CURVE"
);
}
);
width = 788;
}
);
note = Dcroat;
rightKerningGroup = D;
unicode = 0110;
},
{
glyphname = E;
lastChange = "2017-06-04 21:18:45 +0000";
layers = (
{
layerId = "EE746D13-63D7-48F9-B77E-C723CA6A668B";
paths = (
{
closed = 1;
nodes = (
"680 0 LINE",
"680 279 LINE",
"592 279 LINE",
"592 70 LINE",
"251 70 LINE",
"251 345 LINE",
"433 345 LINE",
"433 218 LINE",
"498 218 LINE",
"498 521 LINE",
"433 521 LINE",
"433 401 LINE",
"251 401 LINE",
"251 665 LINE",
"592 665 LINE",
"592 452 LINE",
"680 452 LINE",
"680 735 LINE",
"16 735 LINE",
"16 665 LINE",
"136 665 LINE",
"136 70 LINE",
"16 70 LINE",
"16 0 LINE"
);
}
);
width = 725;
}
);
note = E;
unicode = 0045;
},
{
glyphname = F;
lastChange = "2017-06-04 21:18:45 +0000";
layers = (
{
layerId = "EE746D13-63D7-48F9-B77E-C723CA6A668B";
paths = (
{
closed = 1;
nodes = (
"377 0 LINE",
"377 70 LINE",
"250 70 LINE",
"250 354 LINE",
"426 354 LINE",
"426 230 LINE",
"493 230 LINE",
"493 515 LINE",
"426 515 LINE",
"426 412 LINE",
"250 412 LINE",
"250 665 LINE",
"582 665 LINE",
"582 467 LINE",
"671 467 LINE",
"671 735 LINE",
"16 735 LINE",
"16 665 LINE",
"135 665 LINE",
"135 70 LINE",
"16 70 LINE",
"16 0 LINE"
);
}
);
width = 688;
}
);
note = F;
rightKerningGroup = F;
unicode = 0046;
},
{
glyphname = G;
lastChange = "2017-06-04 21:18:45 +0000";
layers = (
{
layerId = "EE746D13-63D7-48F9-B77E-C723CA6A668B";
paths = (
{
closed = 1;
nodes = (
"428 -13 OFFCURVE",
"470 -6 OFFCURVE",
"513 11 CURVE SMOOTH",
"556 27 OFFCURVE",
"594 60 OFFCURVE",
"616 103 CURVE",
"640 0 LINE",
"699 0 LINE",
"699 286 LINE",
"779 286 LINE",
"779 360 LINE",
"461 360 LINE",
"461 286 LINE",
"599 286 LINE",
"599 218 LINE SMOOTH",
"599 188 OFFCURVE",
"579 153 OFFCURVE",
"547 125 CURVE SMOOTH",
"516 95 OFFCURVE",
"466 74 OFFCURVE",
"416 74 CURVE SMOOTH",
"346 74 OFFCURVE",
"281 110 OFFCURVE",
"238 165 CURVE SMOOTH",
"195 219 OFFCURVE",
"169 294 OFFCURVE",
"169 372 CURVE SMOOTH",
"169 430 OFFCURVE",
"179 482 OFFCURVE",
"199 529 CURVE SMOOTH",
"240 622 OFFCURVE",
"322 682 OFFCURVE",
"427 682 CURVE SMOOTH",
"446 682 OFFCURVE",
"464 680 OFFCURVE",
"483 676 CURVE SMOOTH",
"521 668 OFFCURVE",
"570 643 OFFCURVE",
"598 604 CURVE",
"596 604 LINE SMOOTH",
"571 604 OFFCURVE",
"534 571 OFFCURVE",
"534 526 CURVE SMOOTH",
"534 487 OFFCURVE",
"569 449 OFFCURVE",
"616 449 CURVE SMOOTH",
"667 449 OFFCURVE",
"700 489 OFFCURVE",
"700 530 CURVE SMOOTH",
"700 570 OFFCURVE",
"688 606 OFFCURVE",
"665 640 CURVE SMOOTH",
"617 707 OFFCURVE",
"525 750 OFFCURVE",
"417 750 CURVE SMOOTH",
"303 750 OFFCURVE",
"203 705 OFFCURVE",
"141 634 CURVE SMOOTH",
"78 564 OFFCURVE",
"41 470 OFFCURVE",
"41 371 CURVE SMOOTH",
"41 333 OFFCURVE",
"45 296 OFFCURVE",
"54 260 CURVE SMOOTH",
"72 188 OFFCURVE",
"110 119 OFFCURVE",
"164 69 CURVE SMOOTH",
"216 19 OFFCURVE",
"295 -13 OFFCURVE",
"385 -13 CURVE SMOOTH"
);
}
);
width = 781;
}
);
leftKerningGroup = C;
note = G;
unicode = 0047;
},
{
glyphname = G.alt;
lastChange = "2017-06-05 19:23:50 +0000";
layers = (
{
layerId = "EE746D13-63D7-48F9-B77E-C723CA6A668B";
paths = (
{
closed = 1;
nodes = (
"483 -13 OFFCURVE",
"575 22 OFFCURVE",
"621 103 CURVE",
"645 0 LINE",
"704 0 LINE",
"704 286 LINE",
"784 286 LINE",
"784 360 LINE",
"466 360 LINE",
"466 286 LINE",
"604 286 LINE",
"604 218 LINE SMOOTH",
"604 146 OFFCURVE",
"525 64 OFFCURVE",
"397 64 CURVE SMOOTH",
"246 64 OFFCURVE",
"166 202 OFFCURVE",
"166 372 CURVE SMOOTH",
"166 547 OFFCURVE",
"270 682 OFFCURVE",
"432 682 CURVE SMOOTH",
"499 682 OFFCURVE",
"567 655 OFFCURVE",
"603 604 CURVE",
"601 604 LINE SMOOTH",
"576 604 OFFCURVE",
"539 571 OFFCURVE",
"539 526 CURVE SMOOTH",
"539 487 OFFCURVE",
"574 449 OFFCURVE",
"621 449 CURVE SMOOTH",
"672 449 OFFCURVE",
"705 489 OFFCURVE",
"705 530 CURVE SMOOTH",
"705 664 OFFCURVE",
"573 750 OFFCURVE",
"422 750 CURVE SMOOTH",
"204 750 OFFCURVE",
"41 585 OFFCURVE",
"41 371 CURVE SMOOTH",
"41 159 OFFCURVE",
"180 -13 OFFCURVE",
"392 -13 CURVE SMOOTH"
);
}
);
width = 786;
}
);
},
{
glyphname = H;
lastChange = "2017-06-04 21:18:45 +0000";
layers = (
{
layerId = "EE746D13-63D7-48F9-B77E-C723CA6A668B";
paths = (
{
closed = 1;
nodes = (
"362 0 LINE",
"362 70 LINE",
"250 70 LINE",
"250 354 LINE",
"558 354 LINE",
"558 70 LINE",
"445 70 LINE",
"445 0 LINE",
"792 0 LINE",
"792 70 LINE",
"673 70 LINE",
"673 665 LINE",
"792 665 LINE",
"792 735 LINE",
"445 735 LINE",
"445 665 LINE",
"558 665 LINE",
"558 416 LINE",
"250 416 LINE",
"250 665 LINE",
"362 665 LINE",
"362 735 LINE",
"16 735 LINE",
"16 665 LINE",
"135 665 LINE",
"135 70 LINE",
"16 70 LINE",
"16 0 LINE"
);
}
);
width = 808;
}
);
note = H;
rightKerningGroup = H;
unicode = 0048;
},
{
glyphname = Hbar;
lastChange = "2017-06-04 21:18:45 +0000";
layers = (
{
layerId = "EE746D13-63D7-48F9-B77E-C723CA6A668B";
paths = (
{
closed = 1;
nodes = (
"362 0 LINE",
"362 67 LINE",
"250 67 LINE",
"250 354 LINE",
"558 354 LINE",
"558 67 LINE",
"445 67 LINE",
"445 0 LINE",
"792 0 LINE",
"792 67 LINE",
"673 67 LINE",
"673 512 LINE",
"725 512 LINE",
"725 569 LINE",
"673 569 LINE",
"673 665 LINE",
"792 665 LINE",
"792 735 LINE",
"445 735 LINE",
"445 665 LINE",
"558 665 LINE",
"558 569 LINE",
"250 569 LINE",
"250 665 LINE",
"362 665 LINE",
"362 735 LINE",
"16 735 LINE",
"16 665 LINE",
"135 665 LINE",
"135 569 LINE",
"84 569 LINE",
"84 512 LINE",
"135 512 LINE",
"135 67 LINE",
"16 67 LINE",
"16 0 LINE"
);
},
{
closed = 1;
nodes = (
"250 512 LINE",
"558 512 LINE",
"558 416 LINE",
"250 416 LINE"
);
}
);
width = 808;
}
);
note = Hbar;
rightKerningGroup = H;
unicode = 0126;
},
{
glyphname = I;
lastChange = "2017-06-04 21:18:45 +0000";
layers = (
{
layerId = "EE746D13-63D7-48F9-B77E-C723CA6A668B";
paths = (
{
closed = 1;
nodes = (
"361 0 LINE",
"361 70 LINE",
"249 70 LINE",
"249 665 LINE",
"361 665 LINE",
"361 735 LINE",
"15 735 LINE",
"15 665 LINE",
"134 665 LINE",
"134 70 LINE",
"15 70 LINE",
"15 0 LINE"
);
}
);
width = 375;
}
);
note = I;
unicode = 0049;
},
{
glyphname = J;
lastChange = "2017-06-04 21:18:45 +0000";
layers = (
{
layerId = "EE746D13-63D7-48F9-B77E-C723CA6A668B";
paths = (
{
closed = 1;
nodes = (
"256 -98 OFFCURVE",
"287 -93 OFFCURVE",
"314 -84 CURVE SMOOTH",
"368 -65 OFFCURVE",
"398 -36 OFFCURVE",
"418 11 CURVE SMOOTH",
"438 57 OFFCURVE",
"445 104 OFFCURVE",
"445 165 CURVE SMOOTH",
"445 665 LINE",
"561 665 LINE",
"561 735 LINE",
"193 735 LINE",
"193 665 LINE",
"330 665 LINE",
"330 152 LINE SMOOTH",
"330 126 OFFCURVE",
"329 104 OFFCURVE",
"328 86 CURVE SMOOTH",
"324 49 OFFCURVE",
"315 12 OFFCURVE",
"299 -9 CURVE SMOOTH",
"282 -30 OFFCURVE",
"254 -43 OFFCURVE",
"215 -43 CURVE SMOOTH",
"184 -43 OFFCURVE",
"139 -31 OFFCURVE",
"127 -13 CURVE",
"154 3 OFFCURVE",
"181 34 OFFCURVE",
"181 69 CURVE SMOOTH",
"181 116 OFFCURVE",
"143 147 OFFCURVE",
"100 147 CURVE SMOOTH",
"55 147 OFFCURVE",
"17 115 OFFCURVE",
"17 60 CURVE SMOOTH",
"17 -27 OFFCURVE",
"101 -98 OFFCURVE",
"220 -98 CURVE SMOOTH"
);
}
);
width = 567;
}
);
note = J;
rightKerningGroup = J;
unicode = 004A;
},
{
glyphname = K;
lastChange = "2017-06-04 21:18:45 +0000";
layers = (
{
layerId = "EE746D13-63D7-48F9-B77E-C723CA6A668B";
paths = (
{
closed = 1;
nodes = (
"353 0 LINE",
"353 70 LINE",
"250 70 LINE",
"250 270 LINE",
"334 340 LINE",
"551 70 LINE",
"442 70 LINE",
"442 0 LINE",
"787 0 LINE",
"787 70 LINE",
"701 70 LINE",
"421 403 LINE",
"669 665 LINE",
"781 665 LINE",
"781 735 LINE",
"434 735 LINE",
"434 665 LINE",
"546 665 LINE",
"491 605 LINE SMOOTH",
"417 525 OFFCURVE",
"317 417 OFFCURVE",
"299 399 CURVE SMOOTH",
"291 391 OFFCURVE",
"256 361 OFFCURVE",
"250 359 CURVE",
"250 665 LINE",
"353 665 LINE",
"353 735 LINE",
"16 735 LINE",
"16 665 LINE",
"135 665 LINE",
"135 70 LINE",
"16 70 LINE",
"16 0 LINE"
);
}
);
width = 793;
}
);
note = K;
rightKerningGroup = K;
unicode = 004B;
},
{
glyphname = L;
lastChange = "2017-06-04 21:18:45 +0000";
layers = (
{
layerId = "EE746D13-63D7-48F9-B77E-C723CA6A668B";
paths = (
{
closed = 1;
nodes = (
"617 0 LINE",
"617 305 LINE",
"526 305 LINE",
"526 70 LINE",
"250 70 LINE",
"250 665 LINE",
"362 665 LINE",
"362 735 LINE",
"16 735 LINE",
"16 665 LINE",
"135 665 LINE",
"135 70 LINE",
"16 70 LINE",
"16 0 LINE"
);
}
);
width = 630;
}
);
note = L;
rightKerningGroup = L;
unicode = 004C;
},
{
glyphname = Lslash;
lastChange = "2017-06-04 21:18:45 +0000";
layers = (
{
layerId = "EE746D13-63D7-48F9-B77E-C723CA6A668B";
paths = (
{
closed = 1;
nodes = (
"617 0 LINE",
"617 305 LINE",
"526 305 LINE",
"526 67 LINE",
"250 67 LINE",
"250 401 LINE",
"354 452 LINE",
"354 524 LINE",
"250 473 LINE",
"250 665 LINE",
"362 665 LINE",
"362 735 LINE",
"16 735 LINE",
"16 665 LINE",
"135 665 LINE",
"135 417 LINE",
"30 365 LINE",
"30 292 LINE",
"135 344 LINE",
"135 67 LINE",
"16 67 LINE",
"16 0 LINE"
);
}
);
width = 630;
}
);
note = Lslash;
rightKerningGroup = L;
unicode = 0141;
},
{
glyphname = M;
lastChange = "2017-06-04 21:18:45 +0000";
layers = (
{
layerId = "EE746D13-63D7-48F9-B77E-C723CA6A668B";
paths = (
{
closed = 1;
nodes = (
"344 0 LINE",
"344 70 LINE",
"221 70 LINE",
"221 664 LINE",
"435 123 LINE SMOOTH",
"443 104 OFFCURVE",
"458 89 OFFCURVE",
"473 89 CURVE SMOOTH",
"487 89 OFFCURVE",
"500 101 OFFCURVE",
"509 126 CURVE SMOOTH",
"699 649 LINE",
"699 70 LINE",
"592 70 LINE",
"592 0 LINE",
"930 0 LINE",
"930 70 LINE",
"809 70 LINE",
"809 665 LINE",
"923 665 LINE",
"923 735 LINE",
"648 735 LINE",
"486 272 LINE",
"312 735 LINE",
"16 735 LINE",
"16 665 LINE",
"132 665 LINE",
"132 70 LINE",
"25 70 LINE",
"25 0 LINE"
);
}
);
width = 946;
}
);
note = M;
rightKerningGroup = H;
unicode = 004D;
},
{
glyphname = N;
lastChange = "2017-06-04 21:18:45 +0000";
layers = (
{
layerId = "EE746D13-63D7-48F9-B77E-C723CA6A668B";
paths = (
{
closed = 1;
nodes = (
"339 0 LINE",
"339 70 LINE",
"227 70 LINE",
"227 631 LINE",
"590 0 LINE",
"720 0 LINE",
"720 665 LINE",
"832 665 LINE",
"832 735 LINE",
"508 735 LINE",
"508 665 LINE",
"627 665 LINE",
"627 130 LINE",
"280 735 LINE",
"16 735 LINE",
"16 665 LINE",
"134 665 LINE",
"134 70 LINE",
"16 70 LINE",
"16 0 LINE"
);
}
);
width = 840;
}
);
note = N;
rightKerningGroup = H;
unicode = 004E;
},
{
glyphname = O;
lastChange = "2017-06-04 21:18:45 +0000";
layers = (
{
layerId = "EE746D13-63D7-48F9-B77E-C723CA6A668B";
paths = (
{
closed = 1;
nodes = (
"434 -13 OFFCURVE",
"475 -6 OFFCURVE",
"514 9 CURVE SMOOTH",
"590 38 OFFCURVE",
"642 87 OFFCURVE",
"680 153 CURVE SMOOTH",
"717 218 OFFCURVE",
"735 292 OFFCURVE",
"735 368 CURVE SMOOTH",
"735 406 OFFCURVE",
"730 443 OFFCURVE",
"722 480 CURVE SMOOTH",
"704 552 OFFCURVE",
"665 620 OFFCURVE",
"611 669 CURVE SMOOTH",
"558 719 OFFCURVE",
"479 750 OFFCURVE",
"388 750 CURVE SMOOTH",
"343 750 OFFCURVE",
"301 743 OFFCURVE",
"263 729 CURVE SMOOTH",
"186 699 OFFCURVE",
"134 649 OFFCURVE",
"96 583 CURVE SMOOTH",
"59 518 OFFCURVE",
"41 444 OFFCURVE",
"41 368 CURVE SMOOTH",
"41 330 OFFCURVE",
"45 293 OFFCURVE",
"55 256 CURVE SMOOTH",
"72 184 OFFCURVE",
"111 116 OFFCURVE",
"165 67 CURVE SMOOTH",
"219 18 OFFCURVE",
"298 -13 OFFCURVE",
"388 -13 CURVE SMOOTH"
);
},
{
closed = 1;
nodes = (
"360 55 OFFCURVE",
"334 61 OFFCURVE",
"310 73 CURVE SMOOTH",
"261 96 OFFCURVE",
"228 137 OFFCURVE",
"203 190 CURVE SMOOTH",
"178 244 OFFCURVE",
"166 305 OFFCURVE",
"166 369 CURVE SMOOTH",
"166 449 OFFCURVE",
"186 525 OFFCURVE",
"223 584 CURVE SMOOTH",
"259 643 OFFCURVE",
"318 682 OFFCURVE",
"388 682 CURVE SMOOTH",
"416 682 OFFCURVE",
"442 676 OFFCURVE",
"466 664 CURVE SMOOTH",
"515 640 OFFCURVE",
"548 598 OFFCURVE",
"573 545 CURVE SMOOTH",
"598 492 OFFCURVE",
"610 430 OFFCURVE",
"610 367 CURVE SMOOTH",
"610 288 OFFCURVE",
"590 211 OFFCURVE",
"554 153 CURVE SMOOTH",
"518 94 OFFCURVE",
"458 55 OFFCURVE",
"388 55 CURVE SMOOTH"
);
}
);
width = 776;
}
);
leftKerningGroup = C;
note = O;
rightKerningGroup = D;
unicode = 004F;
},
{
glyphname = Oslash;
lastChange = "2017-06-04 21:18:45 +0000";
layers = (
{
layerId = "EE746D13-63D7-48F9-B77E-C723CA6A668B";
paths = (
{
closed = 1;
nodes = (
"171 62 LINE",
"230 12 OFFCURVE",
"303 -13 OFFCURVE",
"388 -13 CURVE SMOOTH",
"434 -13 OFFCURVE",
"475 -6 OFFCURVE",
"514 9 CURVE SMOOTH",
"590 38 OFFCURVE",
"642 87 OFFCURVE",
"680 153 CURVE SMOOTH",
"717 218 OFFCURVE",
"735 292 OFFCURVE",
"735 368 CURVE SMOOTH",
"735 464 OFFCURVE",
"706 558 OFFCURVE",
"650 628 CURVE",
"731 724 LINE",
"699 750 LINE",
"622 659 LINE",
"560 720 OFFCURVE",
"482 750 OFFCURVE",
"388 750 CURVE SMOOTH",
"343 750 OFFCURVE",
"301 743 OFFCURVE",
"263 729 CURVE SMOOTH",
"186 699 OFFCURVE",
"134 649 OFFCURVE",
"96 583 CURVE SMOOTH",
"59 518 OFFCURVE",
"41 444 OFFCURVE",
"41 368 CURVE SMOOTH",
"41 264 OFFCURVE",
"76 163 OFFCURVE",
"141 91 CURVE",
"49 -18 LINE",
"81 -44 LINE"
);
},
{
closed = 1;
nodes = (
"326 55 OFFCURVE",
"274 83 OFFCURVE",
"234 137 CURVE",
"576 541 LINE",
"599 487 OFFCURVE",
"610 430 OFFCURVE",
"610 367 CURVE SMOOTH",
"610 288 OFFCURVE",
"590 211 OFFCURVE",
"554 153 CURVE SMOOTH",
"518 94 OFFCURVE",
"458 55 OFFCURVE",
"388 55 CURVE SMOOTH"
);
},
{
closed = 1;
nodes = (
"181 229 OFFCURVE",
"166 294 OFFCURVE",
"166 369 CURVE SMOOTH",
"166 449 OFFCURVE",
"186 526 OFFCURVE",
"223 585 CURVE SMOOTH",
"259 644 OFFCURVE",
"318 683 OFFCURVE",
"388 683 CURVE SMOOTH",
"458 683 OFFCURVE",
"513 649 OFFCURVE",
"555 580 CURVE",
"211 173 LINE"
);
}
);
width = 776;
}
);
leftKerningGroup = C;
note = Oslash;
rightKerningGroup = D;
unicode = 00D8;
},
{
glyphname = OE;
lastChange = "2017-06-04 21:18:45 +0000";
layers = (
{
layerId = "EE746D13-63D7-48F9-B77E-C723CA6A668B";
paths = (
{
closed = 1;
nodes = (
"1019 0 LINE",
"1019 279 LINE",
"931 279 LINE",
"931 67 LINE",
"619 67 LINE",
"619 341 LINE",
"772 341 LINE",
"772 207 LINE",
"837 207 LINE",
"837 507 LINE",
"772 507 LINE",
"772 397 LINE",
"619 397 LINE",
"619 652 LINE",
"931 652 LINE",
"931 439 LINE",
"1019 439 LINE",
"1019 722 LINE",
"377 722 LINE SMOOTH",
"290 722 OFFCURVE",
"209 691 OFFCURVE",
"146 633 CURVE SMOOTH",
"82 574 OFFCURVE",
"41 478 OFFCURVE",
"41 362 CURVE SMOOTH",
"41 249 OFFCURVE",
"80 153 OFFCURVE",
"141 94 CURVE SMOOTH",
"203 34 OFFCURVE",
"285 0 OFFCURVE",
"375 0 CURVE SMOOTH"
);
},
{
closed = 1;
nodes = (
"257 67 OFFCURVE",
"166 181 OFFCURVE",
"166 363 CURVE SMOOTH",
"166 459 OFFCURVE",
"192 536 OFFCURVE",
"234 582 CURVE SMOOTH",
"276 628 OFFCURVE",
"331 652 OFFCURVE",
"393 652 CURVE SMOOTH",
"509 652 LINE",
"509 67 LINE",
"378 67 LINE SMOOTH"
);
}
);
width = 1073;
}
);
leftKerningGroup = C;
note = OE;
unicode = 0152;
},
{
glyphname = P;
lastChange = "2017-06-04 21:18:45 +0000";
layers = (
{
layerId = "EE746D13-63D7-48F9-B77E-C723CA6A668B";
paths = (
{
closed = 1;
nodes = (
"372 0 LINE",
"372 70 LINE",
"250 70 LINE",
"250 330 LINE",
"289 330 LINE SMOOTH",
"317 330 OFFCURVE",
"341 331 OFFCURVE",
"362 332 CURVE SMOOTH",
"403 333 OFFCURVE",
"461 339 OFFCURVE",
"499 351 CURVE SMOOTH",
"536 362 OFFCURVE",
"578 383 OFFCURVE",
"602 412 CURVE SMOOTH",
"625 440 OFFCURVE",
"642 483 OFFCURVE",
"642 536 CURVE SMOOTH",
"642 563 OFFCURVE",
"638 586 OFFCURVE",
"630 607 CURVE SMOOTH",
"613 649 OFFCURVE",
"589 675 OFFCURVE",
"550 695 CURVE SMOOTH",
"511 714 OFFCURVE",
"479 723 OFFCURVE",
"432 729 CURVE SMOOTH",
"384 734 OFFCURVE",
"358 735 OFFCURVE",
"316 735 CURVE SMOOTH",
"16 735 LINE",
"16 665 LINE",
"135 665 LINE",
"135 70 LINE",
"16 70 LINE",
"16 0 LINE"
);
},
{
closed = 1;
nodes = (
"250 665 LINE",
"283 665 LINE",
"289 665 LINE SMOOTH",
"305 665 OFFCURVE",
"319 665 OFFCURVE",
"331 665 CURVE SMOOTH",
"354 664 OFFCURVE",
"387 663 OFFCURVE",
"407 659 CURVE SMOOTH",
"427 656 OFFCURVE",
"453 650 OFFCURVE",
"468 642 CURVE SMOOTH",
"483 633 OFFCURVE",
"501 619 OFFCURVE",
"509 602 CURVE SMOOTH",
"518 584 OFFCURVE",
"524 561 OFFCURVE",
"524 532 CURVE SMOOTH",
"524 439 OFFCURVE",
"455 393 OFFCURVE",
"318 393 CURVE SMOOTH",
"250 393 LINE"
);
}
);
width = 651;
}
);
note = P;
rightKerningGroup = P;
unicode = 0050;
},
{
glyphname = Thorn;
lastChange = "2017-06-04 21:18:45 +0000";
layers = (
{
layerId = "EE746D13-63D7-48F9-B77E-C723CA6A668B";
paths = (
{
closed = 1;
nodes = (
"390 0 LINE",
"390 67 LINE",
"268 67 LINE",
"268 184 LINE",
"307 184 LINE SMOOTH",
"338 184 OFFCURVE",
"362 184 OFFCURVE",
"380 185 CURVE SMOOTH",
"416 185 OFFCURVE",
"484 190 OFFCURVE",
"517 200 CURVE SMOOTH",
"550 209 OFFCURVE",
"598 229 OFFCURVE",
"620 256 CURVE SMOOTH",
"642 283 OFFCURVE",
"660 325 OFFCURVE",
"660 378 CURVE SMOOTH",
"660 398 OFFCURVE",
"658 417 OFFCURVE",
"652 435 CURVE SMOOTH",
"642 469 OFFCURVE",
"628 493 OFFCURVE",
"602 513 CURVE SMOOTH",
"575 532 OFFCURVE",
"554 544 OFFCURVE",
"518 553 CURVE SMOOTH",
"482 563 OFFCURVE",
"461 566 OFFCURVE",
"422 568 CURVE SMOOTH",
"383 571 OFFCURVE",
"369 571 OFFCURVE",
"334 571 CURVE SMOOTH",
"268 571 LINE",
"268 652 LINE",
"380 652 LINE",
"380 722 LINE",
"34 722 LINE",
"34 652 LINE",
"153 652 LINE",
"153 67 LINE",
"34 67 LINE",
"34 0 LINE"
);
},
{
closed = 1;
nodes = (
"268 501 LINE",
"301 501 LINE",
"321 501 LINE SMOOTH",
"341 501 OFFCURVE",
"358 501 OFFCURVE",
"372 500 CURVE SMOOTH",
"401 500 OFFCURVE",
"437 497 OFFCURVE",
"459 491 CURVE SMOOTH",
"482 484 OFFCURVE",
"506 472 OFFCURVE",
"520 454 CURVE SMOOTH",
"533 437 OFFCURVE",
"542 409 OFFCURVE",
"542 374 CURVE SMOOTH",
"542 352 OFFCURVE",
"538 333 OFFCURVE",
"530 318 CURVE SMOOTH",
"514 286 OFFCURVE",
"491 270 OFFCURVE",
"453 259 CURVE SMOOTH",
"415 249 OFFCURVE",
"383 247 OFFCURVE",
"336 247 CURVE SMOOTH",
"268 247 LINE"
);
}
);
width = 675;
}
);
note = Thorn;
unicode = 00DE;
},
{
glyphname = Q;
lastChange = "2017-06-04 21:18:45 +0000";
layers = (
{
layerId = "EE746D13-63D7-48F9-B77E-C723CA6A668B";
paths = (
{
closed = 1;
nodes = (
"714 -108 OFFCURVE",
"747 -98 OFFCURVE",
"774 -67 CURVE SMOOTH",
"802 -36 OFFCURVE",
"816 22 OFFCURVE",
"816 112 CURVE SMOOTH",
"816 123 LINE",
"757 123 LINE",
"757 112 LINE SMOOTH",
"757 42 OFFCURVE",
"729 -10 OFFCURVE",
"690 -14 CURVE",
"686 -14 LINE SMOOTH",
"660 -14 OFFCURVE",
"637 11 OFFCURVE",
"604 59 CURVE",
"688 129 OFFCURVE",
"735 247 OFFCURVE",
"735 368 CURVE SMOOTH",
"735 406 OFFCURVE",
"730 443 OFFCURVE",
"722 480 CURVE SMOOTH",
"704 552 OFFCURVE",
"665 620 OFFCURVE",
"611 669 CURVE SMOOTH",
"558 719 OFFCURVE",
"479 750 OFFCURVE",
"388 750 CURVE SMOOTH",
"343 750 OFFCURVE",
"301 743 OFFCURVE",
"263 729 CURVE SMOOTH",
"186 699 OFFCURVE",
"134 649 OFFCURVE",
"96 583 CURVE SMOOTH",
"59 518 OFFCURVE",
"41 444 OFFCURVE",
"41 368 CURVE SMOOTH",
"41 330 OFFCURVE",
"45 293 OFFCURVE",
"55 256 CURVE SMOOTH",
"72 184 OFFCURVE",
"111 116 OFFCURVE",
"165 67 CURVE SMOOTH",
"219 18 OFFCURVE",
"298 -13 OFFCURVE",
"388 -13 CURVE SMOOTH",
"434 -13 OFFCURVE",
"475 -6 OFFCURVE",
"512 7 CURVE",
"559 -65 OFFCURVE",
"602 -108 OFFCURVE",
"663 -108 CURVE SMOOTH"
);
},
{
closed = 1;
nodes = (
"336 55 OFFCURVE",
"292 73 OFFCURVE",
"257 109 CURVE",
"284 158 OFFCURVE",
"314 183 OFFCURVE",
"348 183 CURVE SMOOTH",
"395 183 OFFCURVE",
"430 144 OFFCURVE",
"471 74 CURVE",
"446 62 OFFCURVE",
"419 55 OFFCURVE",
"388 55 CURVE SMOOTH"
);
},
{
closed = 1;
nodes = (
"498 205 OFFCURVE",
"446 245 OFFCURVE",
"374 245 CURVE SMOOTH",
"330 245 OFFCURVE",
"291 232 OFFCURVE",
"267 211 CURVE SMOOTH",
"243 191 OFFCURVE",
"230 173 OFFCURVE",
"220 154 CURVE",
"186 210 OFFCURVE",
"166 291 OFFCURVE",
"166 369 CURVE SMOOTH",
"166 449 OFFCURVE",
"186 525 OFFCURVE",
"223 584 CURVE SMOOTH",
"259 643 OFFCURVE",
"318 682 OFFCURVE",
"388 682 CURVE SMOOTH",
"416 682 OFFCURVE",
"442 676 OFFCURVE",
"466 664 CURVE SMOOTH",
"515 640 OFFCURVE",
"548 598 OFFCURVE",
"573 545 CURVE SMOOTH",
"598 492 OFFCURVE",
"610 430 OFFCURVE",
"610 367 CURVE SMOOTH",
"610 283 OFFCURVE",
"588 196 OFFCURVE",
"547 141 CURVE"
);
}
);
width = 790;
}
);
leftKerningGroup = C;
note = Q;
rightKerningGroup = D;
unicode = 0051;
},
{
glyphname = R;
lastChange = "2017-06-04 21:18:45 +0000";
layers = (
{
layerId = "EE746D13-63D7-48F9-B77E-C723CA6A668B";
paths = (
{
closed = 1;
nodes = (
"723 -16 OFFCURVE",
"772 42 OFFCURVE",
"772 158 CURVE SMOOTH",
"772 230 LINE",
"706 230 LINE",
"706 162 LINE SMOOTH",
"706 101 OFFCURVE",
"689 70 OFFCURVE",
"656 70 CURVE SMOOTH",
"639 70 OFFCURVE",
"625 81 OFFCURVE",
"618 94 CURVE SMOOTH",
"609 108 OFFCURVE",
"601 135 OFFCURVE",
"597 156 CURVE SMOOTH",
"593 177 OFFCURVE",
"585 213 OFFCURVE",
"579 235 CURVE SMOOTH",
"569 272 OFFCURVE",
"561 294 OFFCURVE",
"543 317 CURVE SMOOTH",
"526 339 OFFCURVE",
"501 352 OFFCURVE",
"464 360 CURVE",
"519 371 OFFCURVE",
"558 386 OFFCURVE",
"593 414 CURVE SMOOTH",
"627 441 OFFCURVE",
"646 484 OFFCURVE",
"646 541 CURVE SMOOTH",
"646 568 OFFCURVE",
"642 591 OFFCURVE",
"634 612 CURVE SMOOTH",
"617 654 OFFCURVE",
"596 679 OFFCURVE",
"554 698 CURVE SMOOTH",
"512 717 OFFCURVE",
"484 725 OFFCURVE",
"429 730 CURVE SMOOTH",
"374 735 OFFCURVE",
"352 735 OFFCURVE",
"297 735 CURVE SMOOTH",
"16 735 LINE",
"16 665 LINE",
"135 665 LINE",
"135 70 LINE",
"16 70 LINE",
"16 0 LINE",
"361 0 LINE",
"361 70 LINE",
"250 70 LINE",
"250 335 LINE",
"365 335 LINE SMOOTH",
"369 335 OFFCURVE",
"374 334 OFFCURVE",
"380 333 CURVE SMOOTH",
"391 330 OFFCURVE",
"411 318 OFFCURVE",
"427 302 CURVE SMOOTH",
"442 286 OFFCURVE",
"458 254 OFFCURVE",
"465 215 CURVE SMOOTH",
"470 184 OFFCURVE",
"476 157 OFFCURVE",
"481 135 CURVE SMOOTH",
"492 91 OFFCURVE",
"509 47 OFFCURVE",
"531 23 CURVE SMOOTH",
"553 0 OFFCURVE",
"585 -16 OFFCURVE",
"626 -16 CURVE SMOOTH"
);
},
{
closed = 1;
nodes = (
"250 665 LINE",
"307 665 LINE SMOOTH",
"391 665 OFFCURVE",
"443 658 OFFCURVE",
"484 639 CURVE SMOOTH",
"525 619 OFFCURVE",
"543 585 OFFCURVE",
"543 532 CURVE SMOOTH",
"543 501 OFFCURVE",
"534 477 OFFCURVE",
"515 458 CURVE SMOOTH",
"477 421 OFFCURVE",
"413 408 OFFCURVE",
"311 408 CURVE SMOOTH",
"250 408 LINE"
);
}
);
width = 773;
}
);
note = R;
rightKerningGroup = R;
unicode = 0052;
},
{
glyphname = S;
lastChange = "2017-06-04 21:18:45 +0000";
layers = (
{
layerId = "EE746D13-63D7-48F9-B77E-C723CA6A668B";
paths = (
{
closed = 1;
nodes = (
"519 -13 OFFCURVE",
"624 65 OFFCURVE",
"624 194 CURVE SMOOTH",
"624 217 OFFCURVE",
"622 238 OFFCURVE",
"617 256 CURVE SMOOTH",
"606 292 OFFCURVE",
"581 329 OFFCURVE",
"536 357 CURVE SMOOTH",
"492 386 OFFCURVE",
"422 412 OFFCURVE",
"326 433 CURVE SMOOTH",
"296 439 OFFCURVE",
"271 447 OFFCURVE",
"250 455 CURVE SMOOTH",
"207 471 OFFCURVE",
"185 486 OFFCURVE",
"171 505 CURVE SMOOTH",
"157 525 OFFCURVE",
"155 540 OFFCURVE",
"155 563 CURVE SMOOTH",
"155 587 OFFCURVE",
"163 608 OFFCURVE",
"180 627 CURVE SMOOTH",
"214 664 OFFCURVE",
"269 682 OFFCURVE",
"331 682 CURVE SMOOTH",
"402 682 OFFCURVE",
"458 667 OFFCURVE",
"496 636 CURVE",
"460 636 OFFCURVE",
"429 612 OFFCURVE",
"429 560 CURVE SMOOTH",
"429 519 OFFCURVE",
"468 491 OFFCURVE",
"511 491 CURVE SMOOTH",
"564 491 OFFCURVE",
"594 532 OFFCURVE",
"594 589 CURVE SMOOTH",
"594 612 OFFCURVE",
"588 632 OFFCURVE",
"576 651 CURVE SMOOTH",
"550 689 OFFCURVE",
"510 711 OFFCURVE",
"460 728 CURVE SMOOTH",
"410 744 OFFCURVE",
"362 750 OFFCURVE",
"319 750 CURVE SMOOTH",
"153 750 OFFCURVE",
"38 663 OFFCURVE",
"38 543 CURVE SMOOTH",
"38 505 OFFCURVE",
"46 473 OFFCURVE",
"61 447 CURVE SMOOTH",
"91 394 OFFCURVE",
"167 350 OFFCURVE",
"300 317 CURVE SMOOTH",
"330 310 OFFCURVE",
"354 303 OFFCURVE",
"374 297 CURVE SMOOTH",
"412 285 OFFCURVE",
"450 269 OFFCURVE",
"469 251 CURVE SMOOTH",
"488 233 OFFCURVE",
"499 208 OFFCURVE",
"499 177 CURVE SMOOTH",
"499 150 OFFCURVE",
"490 127 OFFCURVE",
"473 108 CURVE SMOOTH",
"438 70 OFFCURVE",
"382 55 OFFCURVE",
"314 55 CURVE SMOOTH",
"224 55 OFFCURVE",
"171 73 OFFCURVE",
"126 105 CURVE",
"168 110 OFFCURVE",
"195 133 OFFCURVE",
"195 176 CURVE SMOOTH",
"195 217 OFFCURVE",
"161 257 OFFCURVE",
"117 257 CURVE SMOOTH",
"70 257 OFFCURVE",
"29 218 OFFCURVE",
"29 164 CURVE SMOOTH",
"29 105 OFFCURVE",
"66 57 OFFCURVE",
"124 29 CURVE SMOOTH",
"182 1 OFFCURVE",
"253 -13 OFFCURVE",
"330 -13 CURVE SMOOTH"
);
}
);
width = 653;
}
);
note = S;
unicode = 0053;
},
{
glyphname = S.alt;
lastChange = "2017-06-05 15:39:12 +0000";
layers = (
{
layerId = "EE746D13-63D7-48F9-B77E-C723CA6A668B";
paths = (
{
closed = 1;
nodes = (
"499 -13 OFFCURVE",
"605 75 OFFCURVE",
"605 194 CURVE SMOOTH",
"605 333 OFFCURVE",
"486 381 OFFCURVE",
"316 429 CURVE SMOOTH",
"225 455 OFFCURVE",
"140 480 OFFCURVE",
"140 563 CURVE SMOOTH",
"140 639 OFFCURVE",
"230 682 OFFCURVE",
"321 682 CURVE SMOOTH",
"392 682 OFFCURVE",
"448 667 OFFCURVE",
"486 636 CURVE",
"450 636 OFFCURVE",
"419 612 OFFCURVE",
"419 565 CURVE SMOOTH",
"419 519 OFFCURVE",
"458 491 OFFCURVE",
"501 491 CURVE SMOOTH",
"554 491 OFFCURVE",
"584 532 OFFCURVE",
"584 584 CURVE SMOOTH",
"584 700 OFFCURVE",
"430 750 OFFCURVE",
"309 750 CURVE SMOOTH",
"143 750 OFFCURVE",
"33 663 OFFCURVE",
"33 543 CURVE SMOOTH",
"33 422 OFFCURVE",
"127 368 OFFCURVE",
"290 322 CURVE SMOOTH",
"414 287 OFFCURVE",
"498 259 OFFCURVE",
"498 177 CURVE SMOOTH",
"498 94 OFFCURVE",
"406 55 OFFCURVE",
"304 55 CURVE SMOOTH",
"224 55 OFFCURVE",
"161 83 OFFCURVE",
"126 115 CURVE",
"168 120 OFFCURVE",
"195 154 OFFCURVE",
"195 197 CURVE SMOOTH",
"195 233 OFFCURVE",
"161 267 OFFCURVE",
"117 267 CURVE SMOOTH",
"70 267 OFFCURVE",
"29 228 OFFCURVE",
"29 174 CURVE SMOOTH",
"29 55 OFFCURVE",
"167 -13 OFFCURVE",
"310 -13 CURVE SMOOTH"
);
}
);
width = 634;
}
);
},
{
glyphname = T;
lastChange = "2017-06-04 21:18:45 +0000";
layers = (
{
layerId = "EE746D13-63D7-48F9-B77E-C723CA6A668B";
paths = (
{
closed = 1;
nodes = (
"527 0 LINE",
"527 70 LINE",
"410 70 LINE",
"410 665 LINE",
"593 665 LINE",
"593 438 LINE",
"684 438 LINE",
"684 735 LINE",
"17 735 LINE",
"17 438 LINE",
"108 438 LINE",
"108 665 LINE",
"295 665 LINE",
"295 70 LINE",
"181 70 LINE",
"181 0 LINE"
);
}
);
width = 701;
}
);
leftKerningGroup = T;
note = T;
rightKerningGroup = T;
unicode = 0054;
},
{
glyphname = U;
lastChange = "2017-06-05 15:44:21 +0000";
layers = (
{
layerId = "EE746D13-63D7-48F9-B77E-C723CA6A668B";
paths = (
{
closed = 1;
nodes = (
"579 -13 OFFCURVE",
"671 80 OFFCURVE",
"671 267 CURVE SMOOTH",
"671 665 LINE",
"773 665 LINE",
"773 735 LINE",
"461 735 LINE",
"461 665 LINE",
"572 665 LINE",
"572 253 LINE SMOOTH",
"572 128 OFFCURVE",
"510 60 OFFCURVE",
"401 60 CURVE SMOOTH",
"289 60 OFFCURVE",
"230 127 OFFCURVE",
"230 250 CURVE SMOOTH",
"230 665 LINE",
"338 665 LINE",
"338 735 LINE",
"10 735 LINE",
"10 665 LINE",
"115 665 LINE",
"115 252 LINE SMOOTH",
"115 87 OFFCURVE",
"212 -13 OFFCURVE",
"390 -13 CURVE SMOOTH"
);
}
);
width = 783;
}
);
leftKerningGroup = U;
note = U;
rightKerningGroup = U;
unicode = 0055;
},
{
glyphname = V;
lastChange = "2017-06-04 21:18:45 +0000";
layers = (
{
layerId = "EE746D13-63D7-48F9-B77E-C723CA6A668B";
paths = (
{
closed = 1;
nodes = (
"436 -17 OFFCURVE",
"450 1 OFFCURVE",
"468 52 CURVE SMOOTH",
"678 665 LINE",
"797 665 LINE",
"797 735 LINE",
"466 735 LINE",
"466 665 LINE",
"595 665 LINE",
"423 143 LINE",
"245 665 LINE",
"348 665 LINE",
"348 735 LINE",
"-2 735 LINE",
"-2 665 LINE",
"110 665 LINE",
"330 52 LINE SMOOTH",
"348 2 OFFCURVE",
"366 -17 OFFCURVE",
"401 -17 CURVE SMOOTH"
);
}
);
width = 801;
}
);
leftKerningGroup = V;
note = V;
rightKerningGroup = V;
unicode = 0056;
},
{
glyphname = V.alt;
lastChange = "2017-06-05 15:35:29 +0000";
layers = (
{
layerId = "EE746D13-63D7-48F9-B77E-C723CA6A668B";
paths = (
{
closed = 1;
nodes = (
"450 0 LINE",
"678 665 LINE",
"797 665 LINE",
"797 735 LINE",
"466 735 LINE",
"466 665 LINE",
"595 665 LINE",
"423 143 LINE",
"245 665 LINE",
"348 665 LINE",
"348 735 LINE",
"-2 735 LINE",
"-2 665 LINE",
"110 665 LINE",
"349 0 LINE"
);
}
);
width = 801;
}
);
},
{
glyphname = W;
lastChange = "2017-06-05 15:48:04 +0000";
layers = (
{
layerId = "EE746D13-63D7-48F9-B77E-C723CA6A668B";
paths = (
{
closed = 1;
nodes = (
"402 -17 OFFCURVE",
"419 3 OFFCURVE",
"433 52 CURVE SMOOTH",
"464 162 LINE SMOOTH",
"485 236 OFFCURVE",
"505 310 OFFCURVE",
"526 384 CURVE SMOOTH",
"546 458 OFFCURVE",
"556 494 OFFCURVE",
"556 494 CURVE",
"685 52 LINE SMOOTH",
"701 -1 OFFCURVE",
"710 -17 OFFCURVE",
"743 -17 CURVE SMOOTH",
"778 -17 OFFCURVE",
"788 0 OFFCURVE",
"806 52 CURVE",
"976 665 LINE",
"1065 665 LINE",
"1065 735 LINE",
"794 735 LINE",
"794 665 LINE",
"893 665 LINE",
"760 150 LINE",
"618 665 LINE",
"520 665 LINE",
"379 150 LINE",
"237 665 LINE",
"340 665 LINE",
"340 735 LINE",
"0 735 LINE",
"0 665 LINE",
"112 665 LINE",
"301 52 LINE SMOOTH",
"317 1 OFFCURVE",
"332 -17 OFFCURVE",
"366 -17 CURVE SMOOTH"
);
}
);
width = 1065;
}
);
leftKerningGroup = W;
note = W;
rightKerningGroup = W;
unicode = 0057;
},
{
glyphname = W.alt;
lastChange = "2017-06-05 15:48:29 +0000";
layers = (
{
layerId = "EE746D13-63D7-48F9-B77E-C723CA6A668B";
paths = (
{
closed = 1;
nodes = (
"418 0 LINE",
"464 162 LINE SMOOTH",
"485 236 OFFCURVE",
"505 310 OFFCURVE",
"526 384 CURVE SMOOTH",
"546 458 OFFCURVE",
"556 494 OFFCURVE",
"556 494 CURVE",
"700 0 LINE",
"792 0 LINE",
"976 665 LINE",
"1065 665 LINE",
"1065 735 LINE",
"794 735 LINE",
"794 665 LINE",
"893 665 LINE",
"760 150 LINE",
"618 665 LINE",
"520 665 LINE",
"379 150 LINE",
"237 665 LINE",
"340 665 LINE",
"340 735 LINE",
"0 735 LINE",
"0 665 LINE",
"112 665 LINE",
"317 0 LINE"
);
}
);
width = 1065;
}
);
},
{
glyphname = X;
lastChange = "2017-06-04 21:18:45 +0000";
layers = (
{
layerId = "EE746D13-63D7-48F9-B77E-C723CA6A668B";
paths = (
{
closed = 1;
nodes = (
"324 0 LINE",
"324 70 LINE",
"221 70 LINE",
"407 297 LINE",
"581 70 LINE",
"473 70 LINE",
"473 0 LINE",
"822 0 LINE",
"822 70 LINE",
"715 70 LINE",
"476 383 LINE",
"703 665 LINE",
"815 665 LINE",
"815 735 LINE",
"469 735 LINE",
"469 665 LINE",
"590 665 LINE",
"421 457 LINE",
"264 665 LINE",
"376 665 LINE",
"376 735 LINE",
"11 735 LINE",
"11 665 LINE",
"130 665 LINE",
"352 371 LINE",
"106 70 LINE",
"8 70 LINE",
"8 0 LINE"
);
}
);
width = 830;
}
);
leftKerningGroup = X;
note = X;
unicode = 0058;
},
{
glyphname = Y;
lastChange = "2017-06-04 21:18:45 +0000";
layers = (
{
layerId = "EE746D13-63D7-48F9-B77E-C723CA6A668B";
paths = (
{
closed = 1;
nodes = (
"549 0 LINE",
"549 70 LINE",
"437 70 LINE",
"437 288 LINE",
"656 665 LINE",
"748 665 LINE",
"748 735 LINE",
"452 735 LINE",
"452 665 LINE",
"561 665 LINE",
"391 362 LINE",
"226 665 LINE",
"338 665 LINE",
"338 735 LINE",
"11 735 LINE",
"11 665 LINE",
"111 665 LINE",
"322 291 LINE",
"322 70 LINE",
"203 70 LINE",
"203 0 LINE"
);
}
);
width = 759;
}
);
leftKerningGroup = Y;
note = Y;
rightKerningGroup = Y;
unicode = 0059;
},
{
glyphname = Z;
lastChange = "2017-06-04 21:18:45 +0000";
layers = (
{
layerId = "EE746D13-63D7-48F9-B77E-C723CA6A668B";
paths = (
{
closed = 1;
nodes = (
"624 0 LINE",
"624 288 LINE",
"533 288 LINE",
"533 70 LINE",
"186 70 LINE",
"608 652 LINE",
"588 735 LINE",
"63 735 LINE",
"63 462 LINE",
"154 462 LINE",
"154 668 LINE",
"480 668 LINE",
"55 81 LINE",
"54 81 LINE",
"66 0 LINE"
);
}
);
width = 664;
}
);
note = Z;
unicode = 005A;
},
{
glyphname = Z.alt;
lastChange = "2017-06-05 16:28:16 +0000";
layers = (
{
layerId = "EE746D13-63D7-48F9-B77E-C723CA6A668B";
paths = (
{
closed = 1;
nodes = (
"624 0 LINE",
"624 288 LINE",
"533 288 LINE",
"533 70 LINE",
"181 70 LINE",
"608 652 LINE",
"588 735 LINE",
"63 735 LINE",
"63 462 LINE",
"154 462 LINE",
"154 668 LINE",
"485 668 LINE",
"55 81 LINE",
"54 81 LINE",
"66 0 LINE"
);
}
);
width = 664;
}
);
},
{
glyphname = a;
lastChange = "2017-06-05 03:44:31 +0000";
layers = (
{
layerId = "EE746D13-63D7-48F9-B77E-C723CA6A668B";
paths = (
{
closed = 1;
nodes = (
"251 -13 OFFCURVE",
"325 38 OFFCURVE",
"353 109 CURVE",
"355 82 OFFCURVE",
"364 60 OFFCURVE",
"377 41 CURVE SMOOTH",
"404 3 OFFCURVE",
"443 -13 OFFCURVE",
"487 -13 CURVE SMOOTH",
"528 -13 OFFCURVE",
"557 -4 OFFCURVE",
"583 19 CURVE SMOOTH",
"609 42 OFFCURVE",
"623 88 OFFCURVE",
"623 153 CURVE SMOOTH",
"623 216 LINE",
"570 216 LINE",
"570 143 LINE SMOOTH",
"570 85 OFFCURVE",
"549 56 OFFCURVE",
"508 56 CURVE SMOOTH",
"494 56 OFFCURVE",
"482 61 OFFCURVE",
"473 70 CURVE SMOOTH",
"455 89 OFFCURVE",
"450 113 OFFCURVE",
"450 138 CURVE SMOOTH",
"450 363 LINE SMOOTH",
"450 427 OFFCURVE",
"430 474 OFFCURVE",
"395 500 CURVE SMOOTH",
"359 527 OFFCURVE",
"315 538 OFFCURVE",
"262 538 CURVE SMOOTH",
"196 538 OFFCURVE",
"138 517 OFFCURVE",
"105 487 CURVE SMOOTH",
"73 458 OFFCURVE",
"55 426 OFFCURVE",
"55 399 CURVE SMOOTH",
"55 348 OFFCURVE",
"88 320 OFFCURVE",
"127 320 CURVE SMOOTH",
"164 320 OFFCURVE",
"195 348 OFFCURVE",
"195 389 CURVE SMOOTH",
"195 420 OFFCURVE",
"168 446 OFFCURVE",
"127 446 CURVE",
"150 471 OFFCURVE",
"195 487 OFFCURVE",
"241 487 CURVE SMOOTH",
"307 487 OFFCURVE",
"345 451 OFFCURVE",
"345 377 CURVE SMOOTH",
"345 347 OFFCURVE",
"326 322 OFFCURVE",
"297 305 CURVE SMOOTH",
"268 288 OFFCURVE",
"230 271 OFFCURVE",
"192 257 CURVE SMOOTH",
"154 243 OFFCURVE",
"115 222 OFFCURVE",
"86 201 CURVE SMOOTH",
"57 179 OFFCURVE",
"38 146 OFFCURVE",
"38 107 CURVE SMOOTH",
"38 32 OFFCURVE",
"94 -13 OFFCURVE",
"174 -13 CURVE SMOOTH"
);
},
{
closed = 1;
nodes = (
"162 57 OFFCURVE",
"142 79 OFFCURVE",
"142 112 CURVE SMOOTH",
"142 151 OFFCURVE",
"171 178 OFFCURVE",
"207 194 CURVE SMOOTH",
"241 209 OFFCURVE",
"304 244 OFFCURVE",
"345 285 CURVE",
"345 181 LINE SMOOTH",
"345 163 OFFCURVE",
"338 145 OFFCURVE",
"323 125 CURVE SMOOTH",
"293 86 OFFCURVE",
"242 57 OFFCURVE",
"199 57 CURVE SMOOTH"
);
}
);
width = 619;
}
);
leftKerningGroup = a;
note = a;
rightKerningGroup = a;
unicode = 0061;
},
{
glyphname = a.alt;
lastChange = "2017-06-06 03:29:08 +0000";
layers = (
{
layerId = "EE746D13-63D7-48F9-B77E-C723CA6A668B";
paths = (
{
closed = 1;
nodes = (
"251 -13 OFFCURVE",
"328 38 OFFCURVE",
"356 109 CURVE",
"361 45 OFFCURVE",
"405 -13 OFFCURVE",
"473 -13 CURVE SMOOTH",
"561 -13 OFFCURVE",
"588 51 OFFCURVE",
"588 137 CURVE",
"588 187 LINE",
"535 187 LINE",
"535 138 LINE",
"535 91 OFFCURVE",
"528 56 OFFCURVE",
"493 56 CURVE SMOOTH",
"457 56 OFFCURVE",
"450 91 OFFCURVE",
"450 138 CURVE SMOOTH",
"450 363 LINE SMOOTH",
"450 427 OFFCURVE",
"430 474 OFFCURVE",
"395 500 CURVE SMOOTH",
"359 527 OFFCURVE",
"315 538 OFFCURVE",
"262 538 CURVE SMOOTH",
"196 538 OFFCURVE",
"138 517 OFFCURVE",
"105 487 CURVE SMOOTH",
"73 458 OFFCURVE",
"55 426 OFFCURVE",
"55 399 CURVE SMOOTH",
"55 348 OFFCURVE",
"88 320 OFFCURVE",
"127 320 CURVE SMOOTH",
"164 320 OFFCURVE",
"195 348 OFFCURVE",
"195 389 CURVE SMOOTH",
"195 420 OFFCURVE",
"168 446 OFFCURVE",
"127 446 CURVE",
"150 471 OFFCURVE",
"195 487 OFFCURVE",
"241 487 CURVE SMOOTH",
"307 487 OFFCURVE",
"345 451 OFFCURVE",
"345 377 CURVE SMOOTH",
"345 347 OFFCURVE",
"326 322 OFFCURVE",
"297 305 CURVE SMOOTH",
"268 288 OFFCURVE",
"230 271 OFFCURVE",
"192 257 CURVE SMOOTH",
"154 243 OFFCURVE",
"115 222 OFFCURVE",
"86 201 CURVE SMOOTH",
"57 179 OFFCURVE",
"38 146 OFFCURVE",
"38 107 CURVE SMOOTH",
"38 32 OFFCURVE",
"94 -13 OFFCURVE",
"174 -13 CURVE SMOOTH"
);
},
{
closed = 1;
nodes = (
"162 57 OFFCURVE",
"142 79 OFFCURVE",
"142 112 CURVE SMOOTH",
"142 151 OFFCURVE",
"171 178 OFFCURVE",
"207 194 CURVE SMOOTH",
"241 209 OFFCURVE",
"307 244 OFFCURVE",
"348 285 CURVE",
"348 181 LINE SMOOTH",
"348 163 OFFCURVE",
"341 145 OFFCURVE",
"326 125 CURVE SMOOTH",
"296 86 OFFCURVE",
"245 57 OFFCURVE",
"199 57 CURVE SMOOTH"
);
}
);
width = 588;
}
);
},
{
glyphname = ae;
lastChange = "2017-06-04 21:18:45 +0000";
layers = (
{
layerId = "EE746D13-63D7-48F9-B77E-C723CA6A668B";
paths = (
{
closed = 1;
nodes = (
"282 -14 OFFCURVE",
"363 45 OFFCURVE",
"404 130 CURVE",
"427 58 OFFCURVE",
"509 -14 OFFCURVE",
"603 -14 CURVE SMOOTH",
"712 -14 OFFCURVE",
"792 54 OFFCURVE",
"817 163 CURVE",
"760 181 LINE",
"739 104 OFFCURVE",
"677 60 OFFCURVE",
"611 60 CURVE SMOOTH",
"590 60 OFFCURVE",
"572 65 OFFCURVE",
"555 77 CURVE SMOOTH",
"521 98 OFFCURVE",
"503 132 OFFCURVE",
"489 171 CURVE SMOOTH",
"475 210 OFFCURVE",
"470 243 OFFCURVE",
"470 267 CURVE",
"793 314 LINE",
"793 331 OFFCURVE",
"791 350 OFFCURVE",
"787 369 CURVE SMOOTH",
"779 407 OFFCURVE",
"760 450 OFFCURVE",
"733 483 CURVE SMOOTH",
"706 516 OFFCURVE",
"661 539 OFFCURVE",
"608 539 CURVE SMOOTH",
"530 539 OFFCURVE",
"477 511 OFFCURVE",
"435 446 CURVE",
"406 507 OFFCURVE",
"345 538 OFFCURVE",
"252 538 CURVE SMOOTH",
"146 538 OFFCURVE",
"57 479 OFFCURVE",
"57 407 CURVE SMOOTH",
"57 350 OFFCURVE",
"89 320 OFFCURVE",
"129 320 CURVE SMOOTH",
"167 320 OFFCURVE",
"202 349 OFFCURVE",
"202 389 CURVE SMOOTH",
"202 420 OFFCURVE",
"174 446 OFFCURVE",
"132 446 CURVE",
"155 471 OFFCURVE",
"198 487 OFFCURVE",
"243 487 CURVE SMOOTH",
"311 487 OFFCURVE",
"358 450 OFFCURVE",
"358 377 CURVE SMOOTH",
"358 304 LINE",
"340 300 OFFCURVE",
"302 291 OFFCURVE",
"279 286 CURVE SMOOTH",
"256 280 OFFCURVE",
"219 270 OFFCURVE",
"195 262 CURVE SMOOTH",
"171 254 OFFCURVE",
"139 241 OFFCURVE",
"118 229 CURVE SMOOTH",
"97 216 OFFCURVE",
"75 198 OFFCURVE",
"62 179 CURVE SMOOTH",
"48 159 OFFCURVE",
"40 134 OFFCURVE",
"40 107 CURVE SMOOTH",
"40 32 OFFCURVE",
"100 -14 OFFCURVE",
"180 -14 CURVE SMOOTH"
);
},
{
closed = 1;
nodes = (
"156 57 OFFCURVE",
"133 84 OFFCURVE",
"133 120 CURVE SMOOTH",
"133 147 OFFCURVE",
"151 171 OFFCURVE",
"187 191 CURVE SMOOTH",
"223 211 OFFCURVE",
"280 230 OFFCURVE",
"358 248 CURVE",
"360 190 LINE",
"354 168 OFFCURVE",
"338 138 OFFCURVE",
"311 109 CURVE SMOOTH",
"284 80 OFFCURVE",
"240 57 OFFCURVE",
"193 57 CURVE SMOOTH"
);
},
{
closed = 1;
nodes = (
"478 414 OFFCURVE",
"533 481 OFFCURVE",
"605 481 CURVE SMOOTH",
"663 481 OFFCURVE",
"703 423 OFFCURVE",
"703 356 CURVE",
"470 318 LINE"
);
}
);
width = 844;
}
);
leftKerningGroup = a;
note = ae;
unicode = 00E6;
},
{
glyphname = b;
lastChange = "2017-06-04 21:34:42 +0000";
layers = (
{
guideLines = (
{
position = "{391, -194}";
}
);
layerId = "EE746D13-63D7-48F9-B77E-C723CA6A668B";
paths = (
{
closed = 1;
nodes = (
"363 -13 OFFCURVE",
"402 -1 OFFCURVE",
"436 23 CURVE SMOOTH",
"503 72 OFFCURVE",
"541 159 OFFCURVE",
"541 262 CURVE SMOOTH",
"541 424 OFFCURVE",
"452 538 OFFCURVE",
"316 538 CURVE SMOOTH",
"258 538 OFFCURVE",
"204 509 OFFCURVE",
"171 460 CURVE",
"171 735 LINE",
"-35 735 LINE",
"-35 675 LINE",
"66 675 LINE",
"66 0 LINE",
"111 0 LINE",
"149 97 LINE",
"181 22 OFFCURVE",
"249 -13 OFFCURVE",
"321 -13 CURVE SMOOTH"
);
},
{
closed = 1;
nodes = (
"274 46 OFFCURVE",
"251 57 OFFCURVE",
"231 79 CURVE SMOOTH",
"192 122 OFFCURVE",
"171 197 OFFCURVE",
"171 285 CURVE SMOOTH",
"171 328 OFFCURVE",
"182 374 OFFCURVE",
"202 414 CURVE SMOOTH",
"221 455 OFFCURVE",
"258 483 OFFCURVE",
"301 483 CURVE SMOOTH",
"346 483 OFFCURVE",
"381 454 OFFCURVE",
"401 409 CURVE SMOOTH",
"420 364 OFFCURVE",
"429 313 OFFCURVE",
"429 256 CURVE SMOOTH",
"429 220 OFFCURVE",
"424 187 OFFCURVE",
"415 155 CURVE SMOOTH",
"396 93 OFFCURVE",
"354 46 OFFCURVE",
"301 46 CURVE SMOOTH"
);
}
);
width = 579;
}
);
note = b;
rightKerningGroup = b;
unicode = 0062;
},
{
glyphname = c;
lastChange = "2017-06-06 03:25:55 +0000";
layers = (
{
guideLines = (
{
position = "{466, 181}";
}
);
layerId = "EE746D13-63D7-48F9-B77E-C723CA6A668B";
paths = (
{
closed = 1;
nodes = (
"411 -13 OFFCURVE",
"494 56 OFFCURVE",
"519 163 CURVE",
"464 181 LINE",
"448 124 OFFCURVE",
"379 66 OFFCURVE",
"311 66 CURVE SMOOTH",
"208 66 OFFCURVE",
"147 143 OFFCURVE",
"147 268 CURVE SMOOTH",
"147 381 OFFCURVE",
"205 483 OFFCURVE",
"318 483 CURVE SMOOTH",
"369 483 OFFCURVE",
"410 458 OFFCURVE",
"431 424 CURVE",
"391 424 OFFCURVE",
"356 399 OFFCURVE",
"356 357 CURVE SMOOTH",
"356 315 OFFCURVE",
"389 288 OFFCURVE",
"431 288 CURVE SMOOTH",
"479 288 OFFCURVE",
"508 328 OFFCURVE",
"508 367 CURVE SMOOTH",
"508 472 OFFCURVE",
"409 538 OFFCURVE",
"301 538 CURVE SMOOTH",
"138 538 OFFCURVE",
"36 415 OFFCURVE",
"36 252 CURVE SMOOTH",
"36 98 OFFCURVE",
"140 -13 OFFCURVE",
"289 -13 CURVE SMOOTH"
);
}
);
width = 546;
}
);
leftKerningGroup = c;
note = c;
unicode = 0063;
},
{
glyphname = d;
lastChange = "2017-06-05 05:10:25 +0000";
layers = (
{
guideLines = (
{
position = "{406, 83}";
}
);
layerId = "EE746D13-63D7-48F9-B77E-C723CA6A668B";
paths = (
{
closed = 1;
nodes = (
"311 -13 OFFCURVE",
"373 21 OFFCURVE",
"406 83 CURVE",
"425 0 LINE",
"598 0 LINE",
"598 55 LINE",
"510 55 LINE",
"510 735 LINE",
"290 735 LINE",
"290 675 LINE",
"405 675 LINE",
"405 460 LINE",
"372 508 OFFCURVE",
"315 538 OFFCURVE",
"261 538 CURVE SMOOTH",
"125 538 OFFCURVE",
"39 428 OFFCURVE",
"39 262 CURVE SMOOTH",
"39 97 OFFCURVE",
"125 -13 OFFCURVE",
"254 -13 CURVE SMOOTH"
);
},
{
closed = 1;
nodes = (
"248 49 OFFCURVE",
"225 60 OFFCURVE",
"206 81 CURVE SMOOTH",
"167 123 OFFCURVE",
"151 187 OFFCURVE",
"151 260 CURVE SMOOTH",
"151 315 OFFCURVE",
"160 367 OFFCURVE",
"180 411 CURVE SMOOTH",
"199 455 OFFCURVE",
"234 483 OFFCURVE",
"279 483 CURVE SMOOTH",
"324 483 OFFCURVE",
"360 455 OFFCURVE",
"381 413 CURVE SMOOTH",
"402 370 OFFCURVE",
"412 320 OFFCURVE",
"412 268 CURVE SMOOTH",
"412 141 OFFCURVE",
"354 49 OFFCURVE",
"275 49 CURVE SMOOTH"
);
}
);
width = 604;
}
);
leftKerningGroup = c;
note = d;
rightKerningGroup = d;
unicode = 0064;
},
{
glyphname = eth;
lastChange = "2017-06-04 21:18:45 +0000";
layers = (
{
layerId = "EE746D13-63D7-48F9-B77E-C723CA6A668B";
paths = (
{
closed = 1;
nodes = (
"333 -10 OFFCURVE",
"360 -6 OFFCURVE",
"384 0 CURVE SMOOTH",
"433 14 OFFCURVE",
"478 46 OFFCURVE",
"507 96 CURVE SMOOTH",
"537 145 OFFCURVE",
"555 221 OFFCURVE",
"555 316 CURVE SMOOTH",
"555 444 OFFCURVE",
"521 557 OFFCURVE",
"458 633 CURVE",
"567 685 LINE",
"550 726 LINE",
"425 667 LINE",
"369 717 OFFCURVE",
"301 742 OFFCURVE",
"220 742 CURVE SMOOTH",
"190 742 OFFCURVE",
"157 738 OFFCURVE",
"120 730 CURVE",
"130 677 LINE",
"153 680 OFFCURVE",
"171 682 OFFCURVE",
"184 682 CURVE SMOOTH",
"243 682 OFFCURVE",
"294 663 OFFCURVE",
"336 625 CURVE",
"250 585 LINE",
"267 544 LINE",
"368 591 LINE",
"400 550 OFFCURVE",
"425 484 OFFCURVE",
"430 463 CURVE SMOOTH",
"433 453 OFFCURVE",
"434 444 OFFCURVE",
"435 438 CURVE",
"434 439 OFFCURVE",
"429 443 OFFCURVE",
"421 450 CURVE SMOOTH",
"406 463 OFFCURVE",
"397 469 OFFCURVE",
"377 480 CURVE SMOOTH",
"357 491 OFFCURVE",
"330 496 OFFCURVE",
"299 496 CURVE SMOOTH",
"221 496 OFFCURVE",
"157 466 OFFCURVE",
"119 418 CURVE SMOOTH",
"81 370 OFFCURVE",
"60 310 OFFCURVE",
"60 245 CURVE SMOOTH",
"60 220 OFFCURVE",
"63 196 OFFCURVE",
"68 173 CURVE SMOOTH",
"79 126 OFFCURVE",
"104 79 OFFCURVE",
"141 45 CURVE SMOOTH",
"178 12 OFFCURVE",
"235 -10 OFFCURVE",
"304 -10 CURVE SMOOTH"
);
},
{
closed = 1;
nodes = (
"276 51 OFFCURVE",
"250 60 OFFCURVE",
"229 77 CURVE SMOOTH",
"188 112 OFFCURVE",
"172 168 OFFCURVE",
"172 239 CURVE SMOOTH",
"172 342 OFFCURVE",
"228 429 OFFCURVE",
"304 429 CURVE SMOOTH",
"394 429 OFFCURVE",
"446 381 OFFCURVE",
"446 292 CURVE SMOOTH",
"446 129 OFFCURVE",
"404 51 OFFCURVE",
"307 51 CURVE SMOOTH"
);
}
);
width = 608;
}
);
leftKerningGroup = c;
note = eth;
unicode = 00F0;
},
{
glyphname = dcroat;
lastChange = "2017-06-04 21:18:45 +0000";
layers = (
{
layerId = "EE746D13-63D7-48F9-B77E-C723CA6A668B";
paths = (
{
closed = 1;
nodes = (
"311 -13 OFFCURVE",
"373 21 OFFCURVE",
"406 83 CURVE",
"425 0 LINE",
"598 0 LINE",
"598 56 LINE",
"510 56 LINE",
"510 577 LINE",
"588 577 LINE",
"588 625 LINE",
"510 625 LINE",
"510 735 LINE",
"290 735 LINE",
"290 675 LINE",
"405 675 LINE",
"405 625 LINE",
"264 625 LINE",
"264 577 LINE",
"405 577 LINE",
"405 460 LINE",
"372 508 OFFCURVE",
"315 538 OFFCURVE",
"261 538 CURVE SMOOTH",
"125 538 OFFCURVE",
"39 428 OFFCURVE",
"39 262 CURVE SMOOTH",
"39 97 OFFCURVE",
"125 -13 OFFCURVE",
"254 -13 CURVE SMOOTH"
);
},
{
closed = 1;
nodes = (
"248 49 OFFCURVE",
"225 60 OFFCURVE",
"206 81 CURVE SMOOTH",
"167 123 OFFCURVE",
"151 187 OFFCURVE",
"151 260 CURVE SMOOTH",
"151 315 OFFCURVE",
"160 367 OFFCURVE",
"180 411 CURVE SMOOTH",
"199 455 OFFCURVE",
"234 483 OFFCURVE",
"279 483 CURVE SMOOTH",
"324 483 OFFCURVE",
"360 455 OFFCURVE",
"381 413 CURVE SMOOTH",
"402 370 OFFCURVE",
"412 320 OFFCURVE",
"412 268 CURVE SMOOTH",
"412 141 OFFCURVE",
"354 49 OFFCURVE",
"275 49 CURVE SMOOTH"
);
}
);
width = 604;
}
);
leftKerningGroup = c;
note = dcroat;
unicode = 0111;
},
{
glyphname = e;
lastChange = "2017-06-04 21:18:45 +0000";
layers = (
{
layerId = "EE746D13-63D7-48F9-B77E-C723CA6A668B";
paths = (
{
closed = 1;
nodes = (
"407 -13 OFFCURVE",
"489 56 OFFCURVE",
"514 163 CURVE",
"457 181 LINE",
"436 104 OFFCURVE",
"369 60 OFFCURVE",
"301 60 CURVE SMOOTH",
"249 60 OFFCURVE",
"208 83 OFFCURVE",
"184 122 CURVE SMOOTH",
"160 161 OFFCURVE",
"148 209 OFFCURVE",
"148 265 CURVE SMOOTH",
"148 269 LINE",
"524 269 LINE",
"523 354 OFFCURVE",
"496 425 OFFCURVE",
"453 470 CURVE SMOOTH",
"410 514 OFFCURVE",
"352 538 OFFCURVE",
"285 538 CURVE SMOOTH",
"254 538 OFFCURVE",
"225 533 OFFCURVE",
"198 523 CURVE SMOOTH",
"144 502 OFFCURVE",
"105 465 OFFCURVE",
"78 418 CURVE SMOOTH",
"50 371 OFFCURVE",
"36 314 OFFCURVE",
"36 255 CURVE SMOOTH",
"36 187 OFFCURVE",
"60 121 OFFCURVE",
"102 70 CURVE SMOOTH",
"144 20 OFFCURVE",
"211 -13 OFFCURVE",
"291 -13 CURVE SMOOTH"
);
},
{
closed = 1;
nodes = (
"159 416 OFFCURVE",
"216 480 OFFCURVE",
"288 480 CURVE SMOOTH",
"359 480 OFFCURVE",
"415 416 OFFCURVE",
"417 322 CURVE",
"151 322 LINE"
);
}
);
width = 562;
}
);
leftKerningGroup = c;
note = e;
rightKerningGroup = e;
unicode = 0065;
},
{
glyphname = e.alt;
lastChange = "2017-06-06 03:21:59 +0000";
layers = (
{
guideLines = (
{
angle = 90;
position = "{495, 269}";
}
);
layerId = "EE746D13-63D7-48F9-B77E-C723CA6A668B";
paths = (
{
closed = 1;
nodes = (
"387 -13 OFFCURVE",
"469 56 OFFCURVE",
"494 163 CURVE",
"437 181 LINE",
"416 104 OFFCURVE",
"362 60 OFFCURVE",
"283 60 CURVE SMOOTH",
"204 60 OFFCURVE",
"133 123 OFFCURVE",
"133 269 CURVE",
"496 269 LINE",
"494 426 OFFCURVE",
"406 538 OFFCURVE",
"262 538 CURVE SMOOTH",
"113 538 OFFCURVE",
"24 411 OFFCURVE",
"24 255 CURVE SMOOTH",
"24 98 OFFCURVE",
"129 -13 OFFCURVE",
"263 -13 CURVE SMOOTH"
);
},
{
closed = 1;
nodes = (
"144 416 OFFCURVE",
"196 480 OFFCURVE",
"265 480 CURVE SMOOTH",
"345 480 OFFCURVE",
"387 416 OFFCURVE",
"389 322 CURVE",
"136 322 LINE"
);
}
);
width = 520;
}
);
},
{
glyphname = f;
lastChange = "2017-06-04 21:18:45 +0000";
layers = (
{
layerId = "EE746D13-63D7-48F9-B77E-C723CA6A668B";
paths = (
{
closed = 1;
nodes = (
"347 0 LINE",
"347 55 LINE",
"225 55 LINE",
"225 469 LINE",
"378 469 LINE",
"382 524 LINE",
"222 524 LINE",
"222 607 LINE SMOOTH",
"222 693 OFFCURVE",
"258 732 OFFCURVE",
"319 732 CURVE SMOOTH",
"343 732 OFFCURVE",
"372 724 OFFCURVE",
"386 710 CURVE",
"354 702 OFFCURVE",
"332 673 OFFCURVE",
"332 650 CURVE SMOOTH",
"332 612 OFFCURVE",
"363 584 OFFCURVE",
"398 584 CURVE SMOOTH",
"439 584 OFFCURVE",
"471 617 OFFCURVE",
"471 668 CURVE SMOOTH",
"471 723 OFFCURVE",
"410 773 OFFCURVE",
"304 773 CURVE SMOOTH",
"171 773 OFFCURVE",
"120 695 OFFCURVE",
"120 524 CURVE",
"25 524 LINE",
"25 469 LINE",
"120 469 LINE",
"120 55 LINE",
"25 55 LINE",
"25 0 LINE"
);
}
);
width = 384;
}
);
note = f;
unicode = 0066;
},
{
glyphname = g;
lastChange = "2017-06-04 22:19:55 +0000";
layers = (
{
layerId = "EE746D13-63D7-48F9-B77E-C723CA6A668B";
paths = (
{
closed = 1;
nodes = (
"303 -261 OFFCURVE",
"333 -256 OFFCURVE",
"361 -245 CURVE SMOOTH",
"416 -224 OFFCURVE",
"451 -188 OFFCURVE",
"476 -139 CURVE SMOOTH",
"500 -90 OFFCURVE",
"510 -36 OFFCURVE",
"510 25 CURVE SMOOTH",
"510 466 LINE",
"580 466 LINE",
"580 524 LINE",
"417 524 LINE",
"405 430 LINE",
"384 497 OFFCURVE",
"314 538 OFFCURVE",
"255 538 CURVE SMOOTH",
"186 538 OFFCURVE",
"128 503 OFFCURVE",
"94 451 CURVE SMOOTH",
"59 397 OFFCURVE",
"40 330 OFFCURVE",
"40 260 CURVE SMOOTH",
"40 232 OFFCURVE",
"43 205 OFFCURVE",
"48 179 CURVE SMOOTH",
"60 126 OFFCURVE",
"83 78 OFFCURVE",
"116 43 CURVE SMOOTH",
"149 8 OFFCURVE",
"197 -13 OFFCURVE",
"252 -13 CURVE SMOOTH",
"323 -13 OFFCURVE",
"384 36 OFFCURVE",
"405 98 CURVE",
"405 11 LINE SMOOTH",
"405 -128 OFFCURVE",
"355 -210 OFFCURVE",
"253 -210 CURVE SMOOTH",
"234 -210 OFFCURVE",
"214 -207 OFFCURVE",
"193 -199 CURVE",
"212 -192 OFFCURVE",
"234 -162 OFFCURVE",
"234 -136 CURVE SMOOTH",
"234 -97 OFFCURVE",
"205 -68 OFFCURVE",
"168 -68 CURVE SMOOTH",
"123 -68 OFFCURVE",
"86 -94 OFFCURVE",
"86 -144 CURVE SMOOTH",
"86 -170 OFFCURVE",
"95 -192 OFFCURVE",
"113 -210 CURVE SMOOTH",
"149 -247 OFFCURVE",
"204 -261 OFFCURVE",
"269 -261 CURVE SMOOTH"
);
},
{
closed = 1;
nodes = (
"228 49 OFFCURVE",
"193 76 OFFCURVE",
"174 120 CURVE SMOOTH",
"155 163 OFFCURVE",
"147 213 OFFCURVE",
"147 269 CURVE SMOOTH",
"147 305 OFFCURVE",
"152 338 OFFCURVE",
"161 368 CURVE SMOOTH",
"180 429 OFFCURVE",
"222 473 OFFCURVE",
"275 473 CURVE SMOOTH",
"355 473 OFFCURVE",
"408 383 OFFCURVE",
"408 250 CURVE SMOOTH",
"408 215 OFFCURVE",
"403 184 OFFCURVE",
"394 154 CURVE SMOOTH",
"375 95 OFFCURVE",
"331 49 OFFCURVE",
"273 49 CURVE SMOOTH"
);
}
);
width = 585;
}
);
leftKerningGroup = g;
note = g;
unicode = 0067;
},
{
glyphname = g.alt;
lastChange = "2017-06-05 05:04:33 +0000";
layers = (
{
guideLines = (
{
angle = 90;
position = "{40, 260}";
}
);
layerId = "EE746D13-63D7-48F9-B77E-C723CA6A668B";
paths = (
{
closed = 1;
nodes = (
"418 -238 OFFCURVE",
"510 -127 OFFCURVE",
"510 44 CURVE SMOOTH",
"510 466 LINE",
"580 466 LINE",
"580 524 LINE",
"417 524 LINE",
"405 430 LINE",
"384 497 OFFCURVE",
"314 538 OFFCURVE",
"255 538 CURVE SMOOTH",
"186 538 OFFCURVE",
"128 503 OFFCURVE",
"94 451 CURVE SMOOTH",
"59 397 OFFCURVE",
"40 330 OFFCURVE",
"40 260 CURVE SMOOTH",
"40 232 OFFCURVE",
"43 205 OFFCURVE",
"48 179 CURVE SMOOTH",
"60 126 OFFCURVE",
"83 78 OFFCURVE",
"116 43 CURVE SMOOTH",
"149 8 OFFCURVE",
"197 -13 OFFCURVE",
"252 -13 CURVE SMOOTH",
"323 -13 OFFCURVE",
"384 36 OFFCURVE",
"405 98 CURVE",
"405 14 LINE SMOOTH",
"405 -95 OFFCURVE",
"360 -187 OFFCURVE",
"243 -187 CURVE SMOOTH",
"211 -187 OFFCURVE",
"174 -179 OFFCURVE",
"163 -166 CURVE",
"178 -162 OFFCURVE",
"200 -145 OFFCURVE",
"200 -114 CURVE SMOOTH",
"200 -79 OFFCURVE",
"177 -51 OFFCURVE",
"139 -51 CURVE SMOOTH",
"92 -51 OFFCURVE",
"70 -89 OFFCURVE",
"70 -119 CURVE SMOOTH",
"70 -201 OFFCURVE",
"172 -238 OFFCURVE",
"258 -238 CURVE SMOOTH"
);
},
{
closed = 1;
nodes = (
"228 49 OFFCURVE",
"193 76 OFFCURVE",
"174 120 CURVE SMOOTH",
"155 163 OFFCURVE",
"147 213 OFFCURVE",
"147 269 CURVE SMOOTH",
"147 305 OFFCURVE",
"152 338 OFFCURVE",
"161 368 CURVE SMOOTH",
"180 429 OFFCURVE",
"222 473 OFFCURVE",
"275 473 CURVE SMOOTH",
"355 473 OFFCURVE",
"408 383 OFFCURVE",
"408 250 CURVE SMOOTH",
"408 215 OFFCURVE",
"403 184 OFFCURVE",
"394 154 CURVE SMOOTH",
"375 95 OFFCURVE",
"331 49 OFFCURVE",
"273 49 CURVE SMOOTH"
);
}
);
width = 585;
}
);
},
{
glyphname = g.alt1;
lastChange = "2017-06-05 06:23:06 +0000";
layers = (
{
guideLines = (
{
angle = 90;
position = "{487, 265}";
}
);
layerId = "EE746D13-63D7-48F9-B77E-C723CA6A668B";
paths = (
{
closed = 1;
nodes = (
"503 536 OFFCURVE",
"469 518 OFFCURVE",
"444 475 CURVE",
"407 514 OFFCURVE",
"347 536 OFFCURVE",
"277 536 CURVE SMOOTH",
"156 536 OFFCURVE",
"67 471 OFFCURVE",
"67 368 CURVE SMOOTH",
"67 306 OFFCURVE",
"99 258 OFFCURVE",
"151 230 CURVE",
"103 218 OFFCURVE",
"35 190 OFFCURVE",
"35 119 CURVE SMOOTH",
"35 76 OFFCURVE",
"64 46 OFFCURVE",
"118 25 CURVE",
"61 13 OFFCURVE",
"12 -23 OFFCURVE",
"12 -85 CURVE SMOOTH",
"12 -165 OFFCURVE",
"91 -228 OFFCURVE",
"250 -228 CURVE SMOOTH",
"462 -228 OFFCURVE",
"540 -139 OFFCURVE",
"540 -48 CURVE SMOOTH",
"540 16 OFFCURVE",
"509 105 OFFCURVE",
"354 105 CURVE SMOOTH",
"225 105 LINE SMOOTH",
"165 105 OFFCURVE",
"138 118 OFFCURVE",
"138 152 CURVE SMOOTH",
"138 188 OFFCURVE",
"184 201 OFFCURVE",
"219 200 CURVE",
"231 200 OFFCURVE",
"247 200 OFFCURVE",
"277 200 CURVE SMOOTH",
"398 200 OFFCURVE",
"487 265 OFFCURVE",
"487 368 CURVE SMOOTH",
"487 401 LINE SMOOTH",
"487 471 OFFCURVE",
"533 493 OFFCURVE",
"564 493 CURVE SMOOTH",
"587 493 OFFCURVE",
"617 484 OFFCURVE",
"617 451 CURVE",
"586 471 OFFCURVE",
"529 450 OFFCURVE",
"529 399 CURVE SMOOTH",
"529 363 OFFCURVE",
"559 340 OFFCURVE",
"597 340 CURVE SMOOTH",
"631 340 OFFCURVE",
"669 367 OFFCURVE",
"669 419 CURVE SMOOTH",
"669 499 OFFCURVE",
"621 536 OFFCURVE",
"556 536 CURVE SMOOTH"
);
},
{
closed = 1;
nodes = (
"213 250 OFFCURVE",
"171 295 OFFCURVE",
"171 368 CURVE SMOOTH",
"171 441 OFFCURVE",
"213 486 OFFCURVE",
"277 486 CURVE SMOOTH",
"341 486 OFFCURVE",
"383 441 OFFCURVE",
"383 368 CURVE SMOOTH",
"383 295 OFFCURVE",
"341 250 OFFCURVE",
"277 250 CURVE SMOOTH"
);
},
{
closed = 1;
nodes = (
"133 -168 OFFCURVE",
"100 -124 OFFCURVE",
"100 -80 CURVE SMOOTH",
"100 -39 OFFCURVE",
"138 8 OFFCURVE",
"237 8 CURVE SMOOTH",
"348 8 LINE SMOOTH",
"440 8 OFFCURVE",
"458 -40 OFFCURVE",
"458 -72 CURVE SMOOTH",
"458 -118 OFFCURVE",
"396 -168 OFFCURVE",
"256 -168 CURVE SMOOTH"
);
}
);
width = 657;
}
);
},
{
glyphname = h;
lastChange = "2017-06-04 21:18:45 +0000";
layers = (
{
layerId = "EE746D13-63D7-48F9-B77E-C723CA6A668B";
paths = (
{
closed = 1;
nodes = (
"312 0 LINE",
"312 55 LINE",
"217 55 LINE",
"217 292 LINE SMOOTH",
"217 340 OFFCURVE",
"238 387 OFFCURVE",
"267 418 CURVE SMOOTH",
"296 449 OFFCURVE",
"334 469 OFFCURVE",
"367 469 CURVE SMOOTH",
"414 469 OFFCURVE",
"445 433 OFFCURVE",
"445 357 CURVE SMOOTH",
"445 55 LINE",
"350 55 LINE",
"350 0 LINE",
"655 0 LINE",
"655 55 LINE",
"550 55 LINE",
"550 353 LINE SMOOTH",
"550 385 OFFCURVE",
"546 413 OFFCURVE",
"538 437 CURVE SMOOTH",
"522 484 OFFCURVE",
"500 506 OFFCURVE",
"469 521 CURVE SMOOTH",
"438 536 OFFCURVE",
"416 538 OFFCURVE",
"388 538 CURVE SMOOTH",
"367 538 OFFCURVE",
"347 535 OFFCURVE",
"327 529 CURVE SMOOTH",
"286 516 OFFCURVE",
"242 482 OFFCURVE",
"217 431 CURVE",
"217 735 LINE",
"16 735 LINE",
"16 675 LINE",
"112 675 LINE",
"112 55 LINE",
"22 55 LINE",
"22 0 LINE"
);
}
);
width = 662;
}
);
leftKerningGroup = h;
note = h;
rightKerningGroup = h;
unicode = 0068;
},
{
glyphname = hbar;
lastChange = "2017-06-04 21:18:45 +0000";
layers = (
{
layerId = "EE746D13-63D7-48F9-B77E-C723CA6A668B";
paths = (
{
closed = 1;
nodes = (
"312 0 LINE",
"312 57 LINE",
"217 57 LINE",
"217 292 LINE SMOOTH",
"217 324 OFFCURVE",
"225 354 OFFCURVE",
"241 381 CURVE SMOOTH",
"272 437 OFFCURVE",
"323 469 OFFCURVE",
"367 469 CURVE SMOOTH",
"414 469 OFFCURVE",
"445 433 OFFCURVE",
"445 357 CURVE SMOOTH",
"445 57 LINE",
"350 57 LINE",
"350 0 LINE",
"655 0 LINE",
"655 57 LINE",
"550 57 LINE",
"550 353 LINE SMOOTH",
"550 385 OFFCURVE",
"546 413 OFFCURVE",
"538 437 CURVE SMOOTH",
"522 484 OFFCURVE",
"500 506 OFFCURVE",
"469 521 CURVE SMOOTH",
"438 536 OFFCURVE",
"416 538 OFFCURVE",
"388 538 CURVE SMOOTH",
"367 538 OFFCURVE",
"347 535 OFFCURVE",
"327 529 CURVE SMOOTH",
"286 516 OFFCURVE",
"242 482 OFFCURVE",
"217 431 CURVE",
"217 580 LINE",
"357 580 LINE",
"357 628 LINE",
"217 628 LINE",
"217 735 LINE",
"16 735 LINE",
"16 675 LINE",
"112 675 LINE",
"112 628 LINE",
"34 628 LINE",
"34 580 LINE",
"112 580 LINE",
"112 57 LINE",
"22 57 LINE",
"22 0 LINE"
);
}
);
width = 662;
}
);
leftKerningGroup = h;
note = hbar;
rightKerningGroup = h;
unicode = 0127;
},
{
glyphname = i;
lastChange = "2017-06-04 21:18:45 +0000";
layers = (
{
layerId = "EE746D13-63D7-48F9-B77E-C723CA6A668B";
paths = (
{
closed = 1;
nodes = (
"322 0 LINE",
"322 55 LINE",
"226 55 LINE",
"226 524 LINE",
"26 524 LINE",
"26 469 LINE",
"121 469 LINE",
"121 55 LINE",
"27 55 LINE",
"27 0 LINE"
);
},
{
closed = 1;
nodes = (
"203 616 OFFCURVE",
"237 649 OFFCURVE",
"237 688 CURVE SMOOTH",
"237 728 OFFCURVE",
"203 761 OFFCURVE",
"164 761 CURVE SMOOTH",
"125 761 OFFCURVE",
"92 729 OFFCURVE",
"92 688 CURVE SMOOTH",
"92 649 OFFCURVE",
"125 616 OFFCURVE",
"164 616 CURVE SMOOTH"
);
}
);
width = 325;
}
);
leftKerningGroup = i;
note = i;
unicode = 0069;
},
{
glyphname = dotlessi;
lastChange = "2017-06-04 21:18:45 +0000";
layers = (
{
layerId = "EE746D13-63D7-48F9-B77E-C723CA6A668B";
paths = (
{
closed = 1;
nodes = (
"321 0 LINE",
"321 57 LINE",
"225 57 LINE",
"225 524 LINE",
"25 524 LINE",
"25 469 LINE",
"120 469 LINE",
"120 57 LINE",
"26 57 LINE",
"26 0 LINE"
);
}
);
width = 328;
}
);
leftKerningGroup = i;
note = dotlessi;
unicode = 0131;
},
{
glyphname = j;
lastChange = "2017-06-04 21:18:45 +0000";
layers = (
{
layerId = "EE746D13-63D7-48F9-B77E-C723CA6A668B";
paths = (
{
closed = 1;
nodes = (
"181 -230 OFFCURVE",
"250 -164 OFFCURVE",
"250 -44 CURVE SMOOTH",
"250 524 LINE",
"26 524 LINE",
"26 469 LINE",
"145 469 LINE",
"145 -59 LINE SMOOTH",
"145 -106 OFFCURVE",
"135 -140 OFFCURVE",
"118 -156 CURVE SMOOTH",
"100 -171 OFFCURVE",
"84 -177 OFFCURVE",
"65 -177 CURVE SMOOTH",
"52 -177 OFFCURVE",
"41 -175 OFFCURVE",
"30 -171 CURVE",
"49 -163 OFFCURVE",
"58 -142 OFFCURVE",
"58 -109 CURVE SMOOTH",
"58 -75 OFFCURVE",
"32 -55 OFFCURVE",
"1 -55 CURVE SMOOTH",
"-37 -55 OFFCURVE",
"-70 -81 OFFCURVE",
"-70 -124 CURVE SMOOTH",
"-70 -190 OFFCURVE",
"-18 -230 OFFCURVE",
"78 -230 CURVE SMOOTH"
);
},
{
closed = 1;
nodes = (
"222 616 OFFCURVE",
"256 649 OFFCURVE",
"256 688 CURVE SMOOTH",
"256 728 OFFCURVE",
"222 761 OFFCURVE",
"183 761 CURVE SMOOTH",
"144 761 OFFCURVE",
"111 729 OFFCURVE",
"111 688 CURVE SMOOTH",
"111 649 OFFCURVE",
"144 616 OFFCURVE",
"183 616 CURVE SMOOTH"
);
}
);
width = 325;
}
);
note = j;
unicode = 006A;
},
{
glyphname = uni0237;
lastChange = "2017-06-04 21:18:45 +0000";
layers = (
{
layerId = "EE746D13-63D7-48F9-B77E-C723CA6A668B";
paths = (
{
closed = 1;
nodes = (
"82 -230 LINE SMOOTH",
"182 -229 OFFCURVE",
"250 -163 OFFCURVE",
"250 -44 CURVE SMOOTH",
"250 524 LINE",
"26 524 LINE",
"26 467 LINE",
"145 467 LINE",
"145 -59 LINE SMOOTH",
"145 -106 OFFCURVE",
"135 -140 OFFCURVE",
"118 -156 CURVE SMOOTH",
"100 -171 OFFCURVE",
"84 -177 OFFCURVE",
"65 -177 CURVE SMOOTH",
"52 -177 OFFCURVE",
"41 -175 OFFCURVE",
"30 -171 CURVE",
"49 -163 OFFCURVE",
"58 -142 OFFCURVE",
"58 -109 CURVE SMOOTH",
"58 -75 OFFCURVE",
"32 -55 OFFCURVE",
"1 -55 CURVE SMOOTH",
"-37 -55 OFFCURVE",
"-70 -81 OFFCURVE",
"-70 -124 CURVE SMOOTH",
"-70 -190 OFFCURVE",
"-18 -230 OFFCURVE",
"78 -230 CURVE SMOOTH"
);
}
);
width = 325;
}
);
note = uni0237;
unicode = 0237;
},
{
glyphname = k;
lastChange = "2017-06-04 21:18:45 +0000";
layers = (
{
layerId = "EE746D13-63D7-48F9-B77E-C723CA6A668B";
paths = (
{
closed = 1;
nodes = (
"586 -10 OFFCURVE",
"607 -7 OFFCURVE",
"639 11 CURVE",
"625 77 LINE",
"610 70 OFFCURVE",
"593 67 OFFCURVE",
"574 67 CURVE SMOOTH",
"542 67 OFFCURVE",
"510 88 OFFCURVE",
"479 126 CURVE SMOOTH",
"449 165 OFFCURVE",
"428 197 OFFCURVE",
"396 248 CURVE SMOOTH",
"380 274 OFFCURVE",
"368 293 OFFCURVE",
"358 307 CURVE",
"527 469 LINE",
"620 469 LINE",
"620 524 LINE",
"327 524 LINE",
"327 469 LINE",
"419 469 LINE",
"215 279 LINE",
"215 735 LINE",
"11 735 LINE",
"11 675 LINE",
"110 675 LINE",
"110 55 LINE",
"11 55 LINE",
"11 0 LINE",
"298 0 LINE",
"298 55 LINE",
"215 55 LINE",
"215 204 LINE",
"296 266 LINE",
"394 97 LINE SMOOTH",
"435 27 OFFCURVE",
"482 -10 OFFCURVE",
"552 -10 CURVE SMOOTH"
);
}
);
width = 635;
}
);
leftKerningGroup = k;
note = k;
rightKerningGroup = k;
unicode = 006B;
},
{
glyphname = k.alt;
lastChange = "2017-06-05 16:40:16 +0000";
layers = (
{
guideLines = (
{
angle = 43;
position = "{217, 197}";
}
);
layerId = "EE746D13-63D7-48F9-B77E-C723CA6A668B";
paths = (
{
closed = 1;
nodes = (
"371 319 LINE",
"527 469 LINE",
"620 469 LINE",
"620 524 LINE",
"327 524 LINE",
"327 469 LINE",
"419 469 LINE",
"215 279 LINE",
"215 735 LINE",
"11 735 LINE",
"11 675 LINE",
"110 675 LINE",
"110 55 LINE",
"11 55 LINE",
"11 0 LINE",
"288 0 LINE",
"288 55 LINE",
"215 55 LINE",
"215 195 LINE",
"295 269 LINE",
"426 55 LINE",
"357 55 LINE",
"357 0 LINE",
"644 0 LINE",
"644 55 LINE",
"544 55 LINE"
);
},
{
closed = 0;
nodes = (
"438 -175 LINE"
);
}
);
width = 632;
}
);
},
{
glyphname = kgreenlandic;
lastChange = "2017-06-04 21:18:45 +0000";
layers = (
{
layerId = "EE746D13-63D7-48F9-B77E-C723CA6A668B";
paths = (
{
closed = 1;
nodes = (
"597 -10 OFFCURVE",
"618 -7 OFFCURVE",
"650 11 CURVE",
"636 77 LINE",
"621 70 OFFCURVE",
"604 67 OFFCURVE",
"585 67 CURVE SMOOTH",
"558 67 OFFCURVE",
"528 84 OFFCURVE",
"505 106 CURVE SMOOTH",
"482 128 OFFCURVE",
"452 167 OFFCURVE",
"433 197 CURVE SMOOTH",
"413 226 OFFCURVE",
"381 274 OFFCURVE",
"365 298 CURVE",
"538 467 LINE",
"631 467 LINE",
"631 524 LINE",
"338 524 LINE",
"338 467 LINE",
"438 467 LINE",
"226 267 LINE",
"226 524 LINE",
"22 524 LINE",
"22 464 LINE",
"121 464 LINE",
"121 57 LINE",
"22 57 LINE",
"22 0 LINE",
"309 0 LINE",
"309 57 LINE",
"226 57 LINE",
"226 192 LINE",
"303 257 LINE",
"405 97 LINE SMOOTH",
"449 27 OFFCURVE",
"494 -10 OFFCURVE",
"563 -10 CURVE SMOOTH"
);
}
);
width = 639;
}
);
note = kgreenlandic;
rightKerningGroup = k;
unicode = 0138;
},
{
glyphname = l;
lastChange = "2017-06-04 21:18:45 +0000";
layers = (
{
layerId = "EE746D13-63D7-48F9-B77E-C723CA6A668B";
paths = (
{
closed = 1;
nodes = (
"337 0 LINE",
"337 55 LINE",
"232 55 LINE",
"232 735 LINE",
"18 735 LINE",
"18 675 LINE",
"127 675 LINE",
"127 55 LINE",
"18 55 LINE",
"18 0 LINE"
);
}
);
width = 346;
}
);
leftKerningGroup = l;
note = l;
unicode = 006C;
},
{
glyphname = lslash;
lastChange = "2017-06-04 21:18:45 +0000";
layers = (
{
layerId = "EE746D13-63D7-48F9-B77E-C723CA6A668B";
paths = (
{
closed = 1;
nodes = (
"337 0 LINE",
"337 57 LINE",
"232 57 LINE",
"232 407 LINE",
"331 452 LINE",
"331 524 LINE",
"232 479 LINE",
"232 735 LINE",
"18 735 LINE",
"18 675 LINE",
"127 675 LINE",
"127 433 LINE",
"30 389 LINE",
"30 317 LINE",
"127 360 LINE",
"127 57 LINE",
"18 57 LINE",
"18 0 LINE"
);
}
);
width = 346;
}
);
note = lslash;
unicode = 0142;
},
{
glyphname = m;
lastChange = "2017-06-04 21:18:45 +0000";
layers = (
{
layerId = "EE746D13-63D7-48F9-B77E-C723CA6A668B";
paths = (
{
closed = 1;
nodes = (
"308 0 LINE",
"308 55 LINE",
"224 55 LINE",
"224 286 LINE SMOOTH",
"224 306 OFFCURVE",
"225 324 OFFCURVE",
"227 341 CURVE SMOOTH",
"230 374 OFFCURVE",
"240 410 OFFCURVE",
"256 433 CURVE SMOOTH",
"272 456 OFFCURVE",
"301 471 OFFCURVE",
"339 471 CURVE SMOOTH",
"397 471 OFFCURVE",
"432 432 OFFCURVE",
"432 347 CURVE SMOOTH",
"432 55 LINE",
"348 55 LINE",
"348 0 LINE",
"621 0 LINE",
"621 55 LINE",
"537 55 LINE",
"537 357 LINE SMOOTH",
"537 423 OFFCURVE",
"579 471 OFFCURVE",
"647 471 CURVE SMOOTH",
"705 471 OFFCURVE",
"740 432 OFFCURVE",
"740 347 CURVE SMOOTH",
"740 55 LINE",
"661 55 LINE",
"661 0 LINE",
"935 0 LINE",
"935 55 LINE",
"845 55 LINE",
"845 348 LINE SMOOTH",
"845 372 OFFCURVE",
"843 393 OFFCURVE",
"839 412 CURVE SMOOTH",
"831 451 OFFCURVE",
"819 475 OFFCURVE",
"800 494 CURVE SMOOTH",
"781 514 OFFCURVE",
"764 523 OFFCURVE",
"741 530 CURVE SMOOTH",
"719 537 OFFCURVE",
"703 538 OFFCURVE",
"683 538 CURVE SMOOTH",
"617 538 OFFCURVE",
"559 506 OFFCURVE",
"527 434 CURVE",
"521 453 OFFCURVE",
"515 469 OFFCURVE",
"506 482 CURVE SMOOTH",
"489 509 OFFCURVE",
"472 521 OFFCURVE",
"448 529 CURVE SMOOTH",
"424 537 OFFCURVE",
"409 538 OFFCURVE",
"386 538 CURVE SMOOTH",
"354 538 OFFCURVE",
"322 530 OFFCURVE",
"292 513 CURVE SMOOTH",
"261 496 OFFCURVE",
"234 465 OFFCURVE",
"221 426 CURVE",
"209 532 LINE",
"24 524 LINE",
"24 469 LINE",
"119 469 LINE",
"119 55 LINE",
"24 55 LINE",
"24 0 LINE"
);
}
);
width = 942;
}
);
note = m;
rightKerningGroup = h;
unicode = 006D;
},
{
glyphname = n;
lastChange = "2017-06-04 21:18:45 +0000";
layers = (
{
layerId = "EE746D13-63D7-48F9-B77E-C723CA6A668B";
paths = (
{
closed = 1;
nodes = (
"313 0 LINE",
"313 55 LINE",
"224 55 LINE",
"224 286 LINE SMOOTH",
"224 305 OFFCURVE",
"226 323 OFFCURVE",
"229 340 CURVE SMOOTH",
"235 375 OFFCURVE",
"249 409 OFFCURVE",
"270 433 CURVE SMOOTH",
"290 456 OFFCURVE",
"321 471 OFFCURVE",
"359 471 CURVE SMOOTH",
"417 471 OFFCURVE",
"452 432 OFFCURVE",
"452 347 CURVE SMOOTH",
"452 55 LINE",
"363 55 LINE",
"363 0 LINE",
"657 0 LINE",
"657 55 LINE",
"557 55 LINE",
"557 348 LINE SMOOTH",
"557 372 OFFCURVE",
"555 393 OFFCURVE",
"551 412 CURVE SMOOTH",
"543 451 OFFCURVE",
"531 475 OFFCURVE",
"512 494 CURVE SMOOTH",
"493 514 OFFCURVE",
"476 523 OFFCURVE",
"453 530 CURVE SMOOTH",
"431 537 OFFCURVE",
"415 538 OFFCURVE",
"395 538 CURVE SMOOTH",
"327 538 OFFCURVE",
"253 499 OFFCURVE",
"221 426 CURVE",
"209 532 LINE",
"24 524 LINE",
"24 469 LINE",
"119 469 LINE",
"119 55 LINE",
"24 55 LINE",
"24 0 LINE"
);
}
);
width = 664;
}
);
note = n;
rightKerningGroup = h;
unicode = 006E;
},
{
glyphname = o;
lastChange = "2017-06-05 03:20:47 +0000";
layers = (
{
layerId = "EE746D13-63D7-48F9-B77E-C723CA6A668B";
paths = (
{
closed = 1;
nodes = (
"344 -13 OFFCURVE",
"389 -1 OFFCURVE",
"428 24 CURVE SMOOTH",
"505 73 OFFCURVE",
"545 159 OFFCURVE",
"545 262 CURVE SMOOTH",
"545 340 OFFCURVE",
"521 409 OFFCURVE",
"479 458 CURVE SMOOTH",
"436 508 OFFCURVE",
"369 538 OFFCURVE",
"291 538 CURVE SMOOTH",
"239 538 OFFCURVE",
"193 526 OFFCURVE",
"154 501 CURVE SMOOTH",
"76 453 OFFCURVE",
"36 366 OFFCURVE",
"36 262 CURVE SMOOTH",
"36 103 OFFCURVE",
"136 -13 OFFCURVE",
"292 -13 CURVE SMOOTH"
);
},
{
closed = 1;
nodes = (
"203 49 OFFCURVE",
"148 131 OFFCURVE",
"148 256 CURVE SMOOTH",
"148 299 OFFCURVE",
"153 338 OFFCURVE",
"163 371 CURVE SMOOTH",
"182 437 OFFCURVE",
"227 480 OFFCURVE",
"291 480 CURVE SMOOTH",
"323 480 OFFCURVE",
"350 470 OFFCURVE",
"372 450 CURVE SMOOTH",
"416 410 OFFCURVE",
"433 344 OFFCURVE",
"433 256 CURVE SMOOTH",
"433 131 OFFCURVE",
"379 49 OFFCURVE",
"292 49 CURVE SMOOTH"
);
}
);
width = 581;
}
);
leftKerningGroup = c;
note = o;
rightKerningGroup = b;
unicode = 006F;
},
{
glyphname = oslash;
lastChange = "2017-06-04 21:18:45 +0000";
layers = (
{
layerId = "EE746D13-63D7-48F9-B77E-C723CA6A668B";
paths = (
{
closed = 1;
nodes = (
"134 38 LINE",
"178 4 OFFCURVE",
"230 -13 OFFCURVE",
"292 -13 CURVE SMOOTH",
"344 -13 OFFCURVE",
"389 -1 OFFCURVE",
"428 24 CURVE SMOOTH",
"505 73 OFFCURVE",
"545 159 OFFCURVE",
"545 262 CURVE SMOOTH",
"545 337 OFFCURVE",
"525 399 OFFCURVE",
"485 450 CURVE",
"575 555 LINE",
"543 581 LINE",
"457 480 LINE",
"412 519 OFFCURVE",
"357 538 OFFCURVE",
"291 538 CURVE SMOOTH",
"239 538 OFFCURVE",
"193 526 OFFCURVE",
"154 501 CURVE SMOOTH",
"76 453 OFFCURVE",
"36 366 OFFCURVE",
"36 262 CURVE SMOOTH",
"36 183 OFFCURVE",
"59 118 OFFCURVE",
"104 66 CURVE",
"23 -28 LINE",
"55 -54 LINE"
);
},
{
closed = 1;
nodes = (
"250 49 OFFCURVE",
"215 67 OFFCURVE",
"189 103 CURVE",
"418 371 LINE",
"428 339 OFFCURVE",
"433 301 OFFCURVE",
"433 256 CURVE SMOOTH",
"433 131 OFFCURVE",
"379 49 OFFCURVE",
"292 49 CURVE SMOOTH"
);
},
{
closed = 1;
nodes = (
"154 174 OFFCURVE",
"148 212 OFFCURVE",
"148 256 CURVE SMOOTH",
"148 299 OFFCURVE",
"153 338 OFFCURVE",
"163 371 CURVE SMOOTH",
"182 437 OFFCURVE",
"227 480 OFFCURVE",
"291 480 CURVE SMOOTH",
"339 480 OFFCURVE",
"375 458 OFFCURVE",
"400 414 CURVE",
"167 142 LINE"
);
}
);
width = 581;
}
);
leftKerningGroup = c;
note = oslash;
rightKerningGroup = b;
unicode = 00F8;
},
{
glyphname = oe;
lastChange = "2017-06-04 21:18:45 +0000";
layers = (
{
layerId = "EE746D13-63D7-48F9-B77E-C723CA6A668B";
paths = (
{
closed = 1;
nodes = (
"804 -14 OFFCURVE",
"886 55 OFFCURVE",
"912 163 CURVE",
"854 181 LINE",
"833 104 OFFCURVE",
"767 60 OFFCURVE",
"699 60 CURVE SMOOTH",
"646 60 OFFCURVE",
"605 83 OFFCURVE",
"582 122 CURVE SMOOTH",
"558 161 OFFCURVE",
"545 209 OFFCURVE",
"545 265 CURVE SMOOTH",
"545 269 LINE",
"922 269 LINE",
"920 355 OFFCURVE",
"894 426 OFFCURVE",
"851 470 CURVE SMOOTH",
"808 515 OFFCURVE",
"749 539 OFFCURVE",
"683 539 CURVE SMOOTH",
"601 539 OFFCURVE",
"534 503 OFFCURVE",
"491 443 CURVE",
"443 506 OFFCURVE",
"377 538 OFFCURVE",
"291 538 CURVE SMOOTH",
"239 538 OFFCURVE",
"193 526 OFFCURVE",
"154 501 CURVE SMOOTH",
"76 453 OFFCURVE",
"36 366 OFFCURVE",
"36 262 CURVE SMOOTH",
"36 103 OFFCURVE",
"136 -13 OFFCURVE",
"292 -13 CURVE SMOOTH",
"376 -13 OFFCURVE",
"445 21 OFFCURVE",
"490 81 CURVE",
"535 22 OFFCURVE",
"603 -14 OFFCURVE",
"688 -14 CURVE SMOOTH"
);
},
{
closed = 1;
nodes = (
"203 49 OFFCURVE",
"148 131 OFFCURVE",
"148 256 CURVE SMOOTH",
"148 299 OFFCURVE",
"153 338 OFFCURVE",
"163 371 CURVE SMOOTH",
"182 437 OFFCURVE",
"227 480 OFFCURVE",
"291 480 CURVE SMOOTH",
"323 480 OFFCURVE",
"350 470 OFFCURVE",
"372 450 CURVE SMOOTH",
"416 410 OFFCURVE",
"433 344 OFFCURVE",
"433 256 CURVE SMOOTH",
"433 131 OFFCURVE",
"379 49 OFFCURVE",
"292 49 CURVE SMOOTH"
);
},
{
closed = 1;
nodes = (
"557 417 OFFCURVE",
"614 481 OFFCURVE",
"686 481 CURVE SMOOTH",
"756 481 OFFCURVE",
"812 416 OFFCURVE",
"814 322 CURVE",
"549 322 LINE"
);
}
);
width = 959;
}
);
leftKerningGroup = c;
note = oe;
rightKerningGroup = e;
unicode = 0153;
},
{
glyphname = p;
lastChange = "2017-06-04 21:51:10 +0000";
layers = (
{
layerId = "EE746D13-63D7-48F9-B77E-C723CA6A668B";
paths = (
{
closed = 1;
nodes = (
"302 -196 LINE",
"302 -136 LINE",
"194 -136 LINE",
"194 65 LINE",
"227 16 OFFCURVE",
"280 -13 OFFCURVE",
"338 -13 CURVE SMOOTH",
"474 -13 OFFCURVE",
"560 101 OFFCURVE",
"560 263 CURVE SMOOTH",
"560 314 OFFCURVE",
"551 360 OFFCURVE",
"534 402 CURVE SMOOTH",
"499 485 OFFCURVE",
"432 538 OFFCURVE",
"350 538 CURVE SMOOTH",
"282 538 OFFCURVE",
"226 504 OFFCURVE",
"191 440 CURVE",
"191 538 LINE",
"-6 524 LINE",
"-6 469 LINE",
"89 469 LINE",
"89 -137 LINE",
"-26 -137 LINE",
"-26 -196 LINE"
);
},
{
closed = 1;
nodes = (
"273 42 OFFCURVE",
"237 70 OFFCURVE",
"217 114 CURVE SMOOTH",
"197 157 OFFCURVE",
"187 207 OFFCURVE",
"187 260 CURVE SMOOTH",
"187 386 OFFCURVE",
"241 476 OFFCURVE",
"319 476 CURVE SMOOTH",
"346 476 OFFCURVE",
"369 466 OFFCURVE",
"389 446 CURVE SMOOTH",
"430 405 OFFCURVE",
"448 341 OFFCURVE",
"448 269 CURVE SMOOTH",
"448 213 OFFCURVE",
"438 161 OFFCURVE",
"419 116 CURVE SMOOTH",
"399 71 OFFCURVE",
"364 42 OFFCURVE",
"319 42 CURVE SMOOTH"
);
}
);
width = 596;
}
);
note = p;
rightKerningGroup = b;
unicode = 0070;
},
{
glyphname = thorn;
lastChange = "2017-06-04 21:18:45 +0000";
layers = (
{
layerId = "EE746D13-63D7-48F9-B77E-C723CA6A668B";
paths = (
{
closed = 1;
nodes = (
"321 -196 LINE",
"321 -136 LINE",
"213 -136 LINE",
"213 65 LINE",
"246 16 OFFCURVE",
"299 -13 OFFCURVE",
"357 -13 CURVE SMOOTH",
"493 -13 OFFCURVE",
"579 101 OFFCURVE",
"579 263 CURVE SMOOTH",
"579 314 OFFCURVE",
"570 360 OFFCURVE",
"553 402 CURVE SMOOTH",
"518 485 OFFCURVE",
"451 538 OFFCURVE",
"369 538 CURVE SMOOTH",
"301 538 OFFCURVE",
"245 504 OFFCURVE",
"210 440 CURVE",
"210 750 LINE",
"13 750 LINE",
"13 695 LINE",
"108 695 LINE",
"108 -137 LINE",
"-7 -137 LINE",
"-7 -196 LINE"
);
},
{
closed = 1;
nodes = (
"292 42 OFFCURVE",
"256 70 OFFCURVE",
"236 114 CURVE SMOOTH",
"216 157 OFFCURVE",
"206 207 OFFCURVE",
"206 260 CURVE SMOOTH",
"206 386 OFFCURVE",
"260 476 OFFCURVE",
"338 476 CURVE SMOOTH",
"365 476 OFFCURVE",
"388 466 OFFCURVE",
"408 446 CURVE SMOOTH",
"448 405 OFFCURVE",
"467 341 OFFCURVE",
"467 269 CURVE SMOOTH",
"467 213 OFFCURVE",
"458 161 OFFCURVE",
"438 116 CURVE SMOOTH",
"418 71 OFFCURVE",
"383 42 OFFCURVE",
"338 42 CURVE SMOOTH"
);
}
);
width = 623;
}
);
note = thorn;
rightKerningGroup = b;
unicode = 00FE;
},
{
glyphname = q;
lastChange = "2017-06-04 21:18:45 +0000";
layers = (
{
layerId = "EE746D13-63D7-48F9-B77E-C723CA6A668B";
paths = (
{
closed = 1;
nodes = (
"612 -195 LINE",
"612 -135 LINE",
"511 -135 LINE",
"511 524 LINE",
"466 524 LINE",
"428 428 LINE",
"396 503 OFFCURVE",
"328 538 OFFCURVE",
"256 538 CURVE SMOOTH",
"213 538 OFFCURVE",
"175 526 OFFCURVE",
"142 502 CURVE SMOOTH",
"75 454 OFFCURVE",
"36 366 OFFCURVE",
"36 263 CURVE SMOOTH",
"36 101 OFFCURVE",
"125 -13 OFFCURVE",
"261 -13 CURVE SMOOTH",
"319 -13 OFFCURVE",
"373 16 OFFCURVE",
"406 65 CURVE",
"406 -135 LINE",
"300 -134 LINE",
"300 -195 LINE"
);
},
{
closed = 1;
nodes = (
"231 42 OFFCURVE",
"196 71 OFFCURVE",
"177 116 CURVE SMOOTH",
"157 161 OFFCURVE",
"148 212 OFFCURVE",
"148 269 CURVE SMOOTH",
"148 305 OFFCURVE",
"153 339 OFFCURVE",
"162 370 CURVE SMOOTH",
"181 433 OFFCURVE",
"223 480 OFFCURVE",
"276 480 CURVE SMOOTH",
"302 480 OFFCURVE",
"325 469 OFFCURVE",
"345 448 CURVE SMOOTH",
"385 404 OFFCURVE",
"406 329 OFFCURVE",
"406 240 CURVE SMOOTH",
"406 197 OFFCURVE",
"395 152 OFFCURVE",
"375 111 CURVE SMOOTH",
"355 70 OFFCURVE",
"319 42 OFFCURVE",
"276 42 CURVE SMOOTH"
);
}
);
width = 584;
}
);
leftKerningGroup = c;
note = q;
unicode = 0071;
},
{
glyphname = r;
lastChange = "2017-06-04 21:18:45 +0000";
layers = (
{
layerId = "EE746D13-63D7-48F9-B77E-C723CA6A668B";
paths = (
{
closed = 1;
nodes = (
"334 0 LINE",
"334 55 LINE",
"224 55 LINE",
"224 281 LINE SMOOTH",
"224 329 OFFCURVE",
"232 375 OFFCURVE",
"249 415 CURVE SMOOTH",
"266 456 OFFCURVE",
"296 482 OFFCURVE",
"335 482 CURVE",
"330 477 LINE",
"324 469 OFFCURVE",
"315 453 OFFCURVE",
"315 439 CURVE SMOOTH",
"315 399 OFFCURVE",
"347 374 OFFCURVE",
"385 374 CURVE SMOOTH",
"425 374 OFFCURVE",
"459 403 OFFCURVE",
"459 454 CURVE SMOOTH",
"459 507 OFFCURVE",
"416 538 OFFCURVE",
"363 538 CURVE SMOOTH",
"324 538 OFFCURVE",
"289 521 OFFCURVE",
"267 496 CURVE SMOOTH",
"244 471 OFFCURVE",
"230 445 OFFCURVE",
"222 418 CURVE",
"209 532 LINE",
"24 524 LINE",
"24 469 LINE",
"119 469 LINE",
"119 55 LINE",
"24 55 LINE",
"24 0 LINE"
);
}
);
width = 466;
}
);
leftKerningGroup = r;
note = r;
rightKerningGroup = r;
unicode = 0072;
},
{
glyphname = s;
lastChange = "2017-06-04 21:18:45 +0000";
layers = (
{
layerId = "EE746D13-63D7-48F9-B77E-C723CA6A668B";
paths = (
{
closed = 1;
nodes = (
"273 -13 OFFCURVE",
"294 -12 OFFCURVE",
"314 -9 CURVE SMOOTH",
"354 -3 OFFCURVE",
"396 12 OFFCURVE",
"423 36 CURVE SMOOTH",
"451 59 OFFCURVE",
"470 97 OFFCURVE",
"470 144 CURVE SMOOTH",
"470 191 OFFCURVE",
"449 229 OFFCURVE",
"418 252 CURVE SMOOTH",
"386 275 OFFCURVE",
"345 295 OFFCURVE",
"302 307 CURVE SMOOTH",
"260 318 OFFCURVE",
"218 332 OFFCURVE",
"187 344 CURVE SMOOTH",
"155 356 OFFCURVE",
"134 376 OFFCURVE",
"134 402 CURVE SMOOTH",
"134 455 OFFCURVE",
"187 486 OFFCURVE",
"254 486 CURVE SMOOTH",
"294 486 OFFCURVE",
"331 478 OFFCURVE",
"363 462 CURVE",
"356 458 OFFCURVE",
"350 454 OFFCURVE",
"346 451 CURVE",
"338 444 OFFCURVE",
"326 427 OFFCURVE",
"326 408 CURVE SMOOTH",
"326 369 OFFCURVE",
"356 345 OFFCURVE",
"393 345 CURVE SMOOTH",
"427 345 OFFCURVE",
"456 375 OFFCURVE",
"456 418 CURVE SMOOTH",
"456 456 OFFCURVE",
"427 489 OFFCURVE",
"386 508 CURVE SMOOTH",
"345 527 OFFCURVE",
"295 538 OFFCURVE",
"248 538 CURVE SMOOTH",
"232 538 OFFCURVE",
"215 537 OFFCURVE",
"198 534 CURVE SMOOTH",
"164 528 OFFCURVE",
"123 513 OFFCURVE",
"94 492 CURVE SMOOTH",
"64 470 OFFCURVE",
"43 434 OFFCURVE",
"43 389 CURVE SMOOTH",
"43 345 OFFCURVE",
"64 310 OFFCURVE",
"95 289 CURVE SMOOTH",
"126 268 OFFCURVE",
"168 250 OFFCURVE",
"210 240 CURVE SMOOTH",
"251 229 OFFCURVE",
"293 214 OFFCURVE",
"325 200 CURVE SMOOTH",
"356 186 OFFCURVE",
"377 160 OFFCURVE",
"377 129 CURVE SMOOTH",
"377 108 OFFCURVE",
"370 91 OFFCURVE",
"356 78 CURVE SMOOTH",
"328 51 OFFCURVE",
"289 43 OFFCURVE",
"238 43 CURVE SMOOTH",
"195 43 OFFCURVE",
"148 57 OFFCURVE",
"124 75 CURVE",
"148 75 OFFCURVE",
"171 99 OFFCURVE",
"171 132 CURVE SMOOTH",
"171 171 OFFCURVE",
"142 191 OFFCURVE",
"105 191 CURVE SMOOTH",
"70 191 OFFCURVE",
"39 161 OFFCURVE",
"39 119 CURVE SMOOTH",
"39 73 OFFCURVE",
"66 36 OFFCURVE",
"109 17 CURVE SMOOTH",
"152 -3 OFFCURVE",
"200 -13 OFFCURVE",
"251 -13 CURVE SMOOTH"
);
}
);
width = 508;
}
);
leftKerningGroup = s;
note = s;
rightKerningGroup = s;
unicode = 0073;
},
{
glyphname = s.alt;
lastChange = "2017-06-05 06:07:40 +0000";
layers = (
{
layerId = "EE746D13-63D7-48F9-B77E-C723CA6A668B";
paths = (
{
closed = 1;
nodes = (
"378 -13 OFFCURVE",
"470 42 OFFCURVE",
"470 146 CURVE SMOOTH",
"470 234 OFFCURVE",
"403 276 OFFCURVE",
"302 307 CURVE SMOOTH",
"216 333 OFFCURVE",
"134 352 OFFCURVE",
"134 402 CURVE SMOOTH",
"134 455 OFFCURVE",
"187 486 OFFCURVE",
"254 486 CURVE SMOOTH",
"294 486 OFFCURVE",
"331 478 OFFCURVE",
"363 462 CURVE",
"344 451 OFFCURVE",
"326 436 OFFCURVE",
"326 408 CURVE SMOOTH",
"326 369 OFFCURVE",
"356 345 OFFCURVE",
"393 345 CURVE SMOOTH",
"427 345 OFFCURVE",
"456 375 OFFCURVE",
"456 418 CURVE SMOOTH",
"456 497 OFFCURVE",
"340 538 OFFCURVE",
"248 538 CURVE SMOOTH",
"143 538 OFFCURVE",
"43 487 OFFCURVE",
"43 392 CURVE SMOOTH",
"43 305 OFFCURVE",
"119 265 OFFCURVE",
"210 240 CURVE SMOOTH",
"299 216 OFFCURVE",
"377 196 OFFCURVE",
"377 134 CURVE SMOOTH",
"377 74 OFFCURVE",
"322 43 OFFCURVE",
"248 43 CURVE SMOOTH",
"205 43 OFFCURVE",
"148 57 OFFCURVE",
"124 75 CURVE",
"148 75 OFFCURVE",
"171 99 OFFCURVE",
"171 132 CURVE SMOOTH",
"171 171 OFFCURVE",
"142 191 OFFCURVE",
"105 191 CURVE SMOOTH",
"70 191 OFFCURVE",
"39 161 OFFCURVE",
"39 119 CURVE SMOOTH",
"39 26 OFFCURVE",
"157 -13 OFFCURVE",
"261 -13 CURVE SMOOTH"
);
}
);
width = 509;
}
);
},
{
glyphname = germandbls;
lastChange = "2017-06-04 21:18:45 +0000";
layers = (
{
layerId = "EE746D13-63D7-48F9-B77E-C723CA6A668B";
paths = (
{
closed = 1;
nodes = (
"210 0 LINE",
"210 479 LINE SMOOTH",
"210 595 OFFCURVE",
"250 661 OFFCURVE",
"332 661 CURVE SMOOTH",
"395 661 OFFCURVE",
"435 624 OFFCURVE",
"435 561 CURVE SMOOTH",
"435 536 OFFCURVE",
"421 511 OFFCURVE",
"402 494 CURVE SMOOTH",
"340 440 LINE SMOOTH",
"320 424 OFFCURVE",
"306 399 OFFCURVE",
"306 374 CURVE SMOOTH",
"306 364 OFFCURVE",
"310 354 OFFCURVE",
"317 345 CURVE SMOOTH",
"331 327 OFFCURVE",
"355 315 OFFCURVE",
"383 302 CURVE SMOOTH",
"410 288 OFFCURVE",
"439 272 OFFCURVE",
"462 253 CURVE SMOOTH",
"485 234 OFFCURVE",
"501 205 OFFCURVE",
"501 170 CURVE SMOOTH",
"501 132 OFFCURVE",
"483 104 OFFCURVE",
"447 85 CURVE SMOOTH",
"410 67 OFFCURVE",
"353 58 OFFCURVE",
"274 58 CURVE",
"274 0 LINE",
"294 0 OFFCURVE",
"313 0 OFFCURVE",
"331 1 CURVE SMOOTH",
"366 2 OFFCURVE",
"418 8 OFFCURVE",
"456 17 CURVE SMOOTH",
"493 26 OFFCURVE",
"536 44 OFFCURVE",
"562 67 CURVE SMOOTH",
"587 91 OFFCURVE",
"606 127 OFFCURVE",
"606 171 CURVE SMOOTH",
"606 218 OFFCURVE",
"583 260 OFFCURVE",
"553 285 CURVE SMOOTH",
"522 310 OFFCURVE",
"484 332 OFFCURVE",
"454 344 CURVE SMOOTH",
"438 350 OFFCURVE",
"426 356 OFFCURVE",
"416 361 CURVE SMOOTH",
"405 367 OFFCURVE",
"400 372 OFFCURVE",
"400 376 CURVE SMOOTH",
"400 379 OFFCURVE",
"404 384 OFFCURVE",
"413 390 CURVE SMOOTH",
"430 402 OFFCURVE",
"457 421 OFFCURVE",
"481 445 CURVE SMOOTH",
"505 469 OFFCURVE",
"525 509 OFFCURVE",
"525 552 CURVE SMOOTH",
"525 669 OFFCURVE",
"448 727 OFFCURVE",
"328 727 CURVE SMOOTH",
"185 727 OFFCURVE",
"105 642 OFFCURVE",
"105 479 CURVE SMOOTH",
"105 58 LINE",
"33 58 LINE",
"33 0 LINE"
);
}
);
width = 642;
}
);
note = germandbls;
unicode = 00DF;
},
{
glyphname = t;
lastChange = "2017-06-04 21:18:45 +0000";
layers = (
{
layerId = "EE746D13-63D7-48F9-B77E-C723CA6A668B";
paths = (
{
closed = 1;
nodes = (
"364 -13 OFFCURVE",
"404 52 OFFCURVE",
"404 181 CURVE SMOOTH",
"404 241 LINE",
"345 241 LINE",
"345 171 LINE SMOOTH",
"345 85 OFFCURVE",
"318 55 OFFCURVE",
"266 55 CURVE SMOOTH",
"223 55 OFFCURVE",
"195 84 OFFCURVE",
"195 141 CURVE SMOOTH",
"195 468 LINE",
"387 468 LINE",
"387 524 LINE",
"195 524 LINE",
"195 718 LINE SMOOTH",
"195 729 OFFCURVE",
"189 735 OFFCURVE",
"182 735 CURVE SMOOTH",
"177 735 OFFCURVE",
"171 728 OFFCURVE",
"164 714 CURVE SMOOTH",
"157 700 OFFCURVE",
"149 682 OFFCURVE",
"140 661 CURVE SMOOTH",
"130 639 OFFCURVE",
"120 617 OFFCURVE",
"107 595 CURVE SMOOTH",
"83 550 OFFCURVE",
"41 507 OFFCURVE",
"-10 492 CURVE",
"-10 469 LINE",
"90 469 LINE",
"90 144 LINE SMOOTH",
"90 91 OFFCURVE",
"110 49 OFFCURVE",
"140 24 CURVE SMOOTH",
"170 -1 OFFCURVE",
"208 -13 OFFCURVE",
"248 -13 CURVE SMOOTH"
);
}
);
width = 436;
}
);
leftKerningGroup = t;
note = t;
unicode = 0074;
},
{
glyphname = u;
lastChange = "2017-06-05 05:12:19 +0000";
layers = (
{
guideLines = (
{
position = "{406, 83}";
}
);
layerId = "EE746D13-63D7-48F9-B77E-C723CA6A668B";
paths = (
{
closed = 1;
nodes = (
"627 0 LINE",
"627 55 LINE",
"532 55 LINE",
"532 524 LINE",
"338 524 LINE",
"338 469 LINE",
"427 469 LINE",
"427 183 LINE SMOOTH",
"427 163 OFFCURVE",
"419 142 OFFCURVE",
"403 122 CURVE SMOOTH",
"372 82 OFFCURVE",
"321 55 OFFCURVE",
"280 55 CURVE SMOOTH",
"222 55 OFFCURVE",
"195 90 OFFCURVE",
"195 177 CURVE SMOOTH",
"195 524 LINE",
"-2 524 LINE",
"-2 469 LINE",
"90 469 LINE",
"90 176 LINE SMOOTH",
"90 122 OFFCURVE",
"101 78 OFFCURVE",
"120 52 CURVE SMOOTH",
"138 25 OFFCURVE",
"159 6 OFFCURVE",
"186 -2 CURVE SMOOTH",
"212 -10 OFFCURVE",
"231 -13 OFFCURVE",
"254 -13 CURVE SMOOTH",
"331 -13 OFFCURVE",
"389 23 OFFCURVE",
"430 96 CURVE",
"449 0 LINE"
);
}
);
width = 628;
}
);
leftKerningGroup = u;
note = u;
rightKerningGroup = u;
unicode = 0075;
},
{
glyphname = v;
lastChange = "2017-06-05 05:16:03 +0000";
layers = (
{
layerId = "EE746D13-63D7-48F9-B77E-C723CA6A668B";
paths = (
{
closed = 1;
nodes = (
"313 -19 LINE SMOOTH",
"351 -19 OFFCURVE",
"373 3 OFFCURVE",
"392 56 CURVE",
"536 469 LINE",
"620 469 LINE",
"620 524 LINE",
"370 524 LINE",
"370 469 LINE",
"453 469 LINE",
"328 77 LINE",
"199 469 LINE",
"288 469 LINE",
"288 524 LINE",
"-7 524 LINE",
"-7 469 LINE",
"83 469 LINE",
"236 53 LINE",
"254 3 OFFCURVE",
"276 -19 OFFCURVE",
"310 -19 CURVE SMOOTH"
);
}
);
width = 613;
}
);
leftKerningGroup = v;
note = v;
rightKerningGroup = v;
unicode = 0076;
},
{
glyphname = v.alt;
lastChange = "2017-06-05 05:37:47 +0000";
layers = (
{
layerId = "EE746D13-63D7-48F9-B77E-C723CA6A668B";
paths = (
{
closed = 1;
nodes = (
"370 0 LINE",
"536 469 LINE",
"620 469 LINE",
"620 524 LINE",
"370 524 LINE",
"370 469 LINE",
"453 469 LINE",
"328 77 LINE",
"199 469 LINE",
"288 469 LINE",
"288 524 LINE",
"-7 524 LINE",
"-7 469 LINE",
"83 469 LINE",
"255 0 LINE"
);
}
);
width = 613;
}
);
},
{
glyphname = w;
lastChange = "2017-06-04 21:18:45 +0000";
layers = (
{
layerId = "EE746D13-63D7-48F9-B77E-C723CA6A668B";
paths = (
{
closed = 1;
nodes = (
"295 -19 OFFCURVE",
"312 0 OFFCURVE",
"329 54 CURVE SMOOTH",
"430 365 LINE",
"516 50 LINE SMOOTH",
"530 0 OFFCURVE",
"547 -19 OFFCURVE",
"580 -19 CURVE SMOOTH",
"616 -19 OFFCURVE",
"630 -3 OFFCURVE",
"644 53 CURVE SMOOTH",
"755 469 LINE",
"824 469 LINE",
"824 524 LINE",
"599 524 LINE",
"599 469 LINE",
"681 469 LINE",
"590 104 LINE",
"484 468 LINE",
"395 468 LINE",
"281 107 LINE",
"199 469 LINE",
"278 469 LINE",
"278 524 LINE",
"4 524 LINE",
"4 469 LINE",
"86 469 LINE",
"197 51 LINE SMOOTH",
"210 0 OFFCURVE",
"228 -19 OFFCURVE",
"259 -19 CURVE SMOOTH"
);
}
);
width = 824;
}
);
leftKerningGroup = w;
note = w;
rightKerningGroup = w;
unicode = 0077;
},
{
glyphname = w.alt;
lastChange = "2017-06-05 05:19:24 +0000";
layers = (
{
layerId = "EE746D13-63D7-48F9-B77E-C723CA6A668B";
paths = (
{
closed = 1;
nodes = (
"311 0 LINE",
"430 365 LINE",
"530 0 LINE",
"630 0 LINE",
"755 469 LINE",
"824 469 LINE",
"824 524 LINE",
"599 524 LINE",
"599 469 LINE",
"681 469 LINE",
"590 104 LINE",
"484 468 LINE",
"395 468 LINE",
"281 107 LINE",
"199 469 LINE",
"278 469 LINE",
"278 524 LINE",
"4 524 LINE",
"4 469 LINE",
"86 469 LINE",
"211 0 LINE"
);
}
);
width = 824;
}
);
},
{
glyphname = x;
lastChange = "2017-06-04 21:18:45 +0000";
layers = (
{
layerId = "EE746D13-63D7-48F9-B77E-C723CA6A668B";
paths = (
{
closed = 1;
nodes = (
"265 0 LINE",
"265 55 LINE",
"177 55 LINE",
"304 215 LINE",
"420 55 LINE",
"333 55 LINE",
"333 0 LINE",
"623 0 LINE",
"623 55 LINE",
"542 55 LINE",
"360 279 LINE",
"514 469 LINE",
"594 469 LINE",
"594 524 LINE",
"348 524 LINE",
"348 469 LINE",
"427 469 LINE",
"316 322 LINE",
"206 469 LINE",
"279 469 LINE",
"279 524 LINE",
"2 524 LINE",
"2 469 LINE",
"82 469 LINE",
"255 257 LINE",
"90 55 LINE",
"13 55 LINE",
"13 0 LINE"
);
}
);
width = 625;
}
);
leftKerningGroup = x;
note = x;
rightKerningGroup = x;
unicode = 0078;
},
{
glyphname = y;
lastChange = "2017-06-04 21:59:29 +0000";
layers = (
{
guideLines = (
{
angle = 90;
position = "{14, -119}";
},
{
position = "{108, -31}";
}
);
layerId = "EE746D13-63D7-48F9-B77E-C723CA6A668B";
paths = (
{
closed = 1;
nodes = (
"263 -228 OFFCURVE",
"322 -169 OFFCURVE",
"380 -2 CURVE SMOOTH",
"548 469 LINE",
"632 469 LINE",
"632 524 LINE",
"381 524 LINE",
"381 469 LINE",
"462 469 LINE",
"341 86 LINE",
"199 469 LINE",
"288 469 LINE",
"288 524 LINE",
"-13 524 LINE",
"-13 469 LINE",
"84 469 LINE",
"278 -11 LINE",
"257 -130 OFFCURVE",
"217 -177 OFFCURVE",
"166 -177 CURVE SMOOTH",
"152 -177 OFFCURVE",
"134 -173 OFFCURVE",
"128 -166 CURVE",
"151 -155 OFFCURVE",
"169 -136 OFFCURVE",
"169 -102 CURVE SMOOTH",
"169 -72 OFFCURVE",
"148 -41 OFFCURVE",
"103 -41 CURVE SMOOTH",
"56 -41 OFFCURVE",
"24 -74 OFFCURVE",
"24 -119 CURVE SMOOTH",
"24 -183 OFFCURVE",
"86 -228 OFFCURVE",
"166 -228 CURVE SMOOTH"
);
}
);
width = 625;
}
);
leftKerningGroup = y;
note = y;
rightKerningGroup = y;
unicode = 0079;
},
{
glyphname = z;
lastChange = "2017-06-04 21:18:45 +0000";
layers = (
{
layerId = "EE746D13-63D7-48F9-B77E-C723CA6A668B";
paths = (
{
closed = 1;
nodes = (
"493 0 LINE",
"493 204 LINE",
"413 204 LINE",
"413 55 LINE",
"158 55 LINE",
"473 451 LINE",
"459 524 LINE",
"58 524 LINE",
"58 335 LINE",
"138 335 LINE",
"138 469 LINE",
"365 469 LINE",
"54 77 LINE",
"53 77 LINE",
"62 0 LINE"
);
}
);
width = 534;
}
);
note = z;
rightKerningGroup = z;
unicode = 007A;
},
{
glyphname = c_h;
lastChange = "2017-06-04 21:18:45 +0000";
layers = (
{
layerId = "EE746D13-63D7-48F9-B77E-C723CA6A668B";
paths = (
{
closed = 1;
nodes = (
"411 -14 OFFCURVE",
"494 56 OFFCURVE",
"519 163 CURVE",
"464 181 LINE",
"458 160 OFFCURVE",
"440 135 OFFCURVE",
"415 110 CURVE SMOOTH",
"390 84 OFFCURVE",
"351 66 OFFCURVE",
"311 66 CURVE SMOOTH",
"208 66 OFFCURVE",
"147 143 OFFCURVE",
"147 268 CURVE SMOOTH",
"147 322 OFFCURVE",
"161 373 OFFCURVE",
"188 415 CURVE SMOOTH",
"215 456 OFFCURVE",
"261 483 OFFCURVE",
"318 483 CURVE SMOOTH",
"369 483 OFFCURVE",
"410 458 OFFCURVE",
"431 424 CURVE",
"391 424 OFFCURVE",
"356 399 OFFCURVE",
"356 357 CURVE SMOOTH",
"356 315 OFFCURVE",
"389 288 OFFCURVE",
"431 288 CURVE SMOOTH",
"479 288 OFFCURVE",
"508 329 OFFCURVE",
"508 367 CURVE SMOOTH",
"508 384 OFFCURVE",
"504 402 OFFCURVE",
"497 420 CURVE SMOOTH",
"481 456 OFFCURVE",
"458 486 OFFCURVE",
"437 516 CURVE SMOOTH",
"415 545 OFFCURVE",
"398 579 OFFCURVE",
"398 607 CURVE SMOOTH",
"398 644 OFFCURVE",
"415 666 OFFCURVE",
"479 680 CURVE SMOOTH",
"512 687 OFFCURVE",
"556 690 OFFCURVE",
"613 690 CURVE",
"613 57 LINE",
"523 57 LINE",
"523 0 LINE",
"813 0 LINE",
"813 57 LINE",
"718 57 LINE",
"718 292 LINE SMOOTH",
"718 387 OFFCURVE",
"798 469 OFFCURVE",
"868 469 CURVE SMOOTH",
"915 469 OFFCURVE",
"946 433 OFFCURVE",
"946 357 CURVE SMOOTH",
"946 57 LINE",
"851 57 LINE",
"851 0 LINE",
"1156 0 LINE",
"1156 57 LINE",
"1051 57 LINE",
"1051 353 LINE SMOOTH",
"1051 385 OFFCURVE",
"1047 413 OFFCURVE",
"1039 437 CURVE SMOOTH",
"1023 484 OFFCURVE",
"1001 506 OFFCURVE",
"970 521 CURVE SMOOTH",
"938 536 OFFCURVE",
"917 538 OFFCURVE",
"889 538 CURVE SMOOTH",
"868 538 OFFCURVE",
"848 535 OFFCURVE",
"828 529 CURVE SMOOTH",
"787 516 OFFCURVE",
"743 482 OFFCURVE",
"718 431 CURVE",
"718 750 LINE",
"624 750 LINE SMOOTH",
"552 750 OFFCURVE",
"494 745 OFFCURVE",
"451 734 CURVE SMOOTH",
"365 713 OFFCURVE",
"335 677 OFFCURVE",
"335 617 CURVE SMOOTH",
"335 614 OFFCURVE",
"336 611 OFFCURVE",
"336 608 CURVE SMOOTH",
"337 602 OFFCURVE",
"338 598 OFFCURVE",
"340 590 CURVE",
"342 586 OFFCURVE",
"343 583 OFFCURVE",
"343 582 CURVE",
"344 579 OFFCURVE",
"345 576 OFFCURVE",
"347 572 CURVE SMOOTH",
"351 564 OFFCURVE",
"352 563 OFFCURVE",
"356 554 CURVE SMOOTH",
"361 546 LINE",
"362 543 OFFCURVE",
"370 529 OFFCURVE",
"370 529 CURVE",
"347 536 OFFCURVE",
"324 539 OFFCURVE",
"301 539 CURVE SMOOTH",
"267 539 OFFCURVE",
"235 534 OFFCURVE",
"207 523 CURVE SMOOTH",
"149 502 OFFCURVE",
"108 466 OFFCURVE",
"79 417 CURVE SMOOTH",
"50 369 OFFCURVE",
"36 312 OFFCURVE",
"36 252 CURVE SMOOTH",
"36 172 OFFCURVE",
"64 103 OFFCURVE",
"110 58 CURVE SMOOTH",
"155 12 OFFCURVE",
"219 -14 OFFCURVE",
"289 -14 CURVE SMOOTH"
);
}
);
width = 1163;
}
);
leftKerningGroup = c;
note = c_h;
rightKerningGroup = h;
},
{
glyphname = c_k;
lastChange = "2017-06-04 21:18:45 +0000";
layers = (
{
layerId = "EE746D13-63D7-48F9-B77E-C723CA6A668B";
paths = (
{
closed = 1;
nodes = (
"411 -14 OFFCURVE",
"494 56 OFFCURVE",
"519 163 CURVE",
"464 181 LINE",
"458 160 OFFCURVE",
"440 135 OFFCURVE",
"415 110 CURVE SMOOTH",
"390 84 OFFCURVE",
"351 66 OFFCURVE",
"311 66 CURVE SMOOTH",
"208 66 OFFCURVE",
"147 143 OFFCURVE",
"147 268 CURVE SMOOTH",
"147 322 OFFCURVE",
"161 373 OFFCURVE",
"188 415 CURVE SMOOTH",
"215 456 OFFCURVE",
"261 483 OFFCURVE",
"318 483 CURVE SMOOTH",
"369 483 OFFCURVE",
"410 458 OFFCURVE",
"431 424 CURVE",
"391 424 OFFCURVE",
"356 399 OFFCURVE",
"356 357 CURVE SMOOTH",
"356 315 OFFCURVE",
"389 288 OFFCURVE",
"431 288 CURVE SMOOTH",
"479 288 OFFCURVE",
"508 329 OFFCURVE",
"508 367 CURVE SMOOTH",
"508 384 OFFCURVE",
"504 402 OFFCURVE",
"497 420 CURVE SMOOTH",
"481 456 OFFCURVE",
"458 486 OFFCURVE",
"437 516 CURVE SMOOTH",
"415 545 OFFCURVE",
"398 579 OFFCURVE",
"398 607 CURVE SMOOTH",
"398 644 OFFCURVE",
"415 666 OFFCURVE",
"479 680 CURVE SMOOTH",
"512 687 OFFCURVE",
"556 690 OFFCURVE",
"613 690 CURVE SMOOTH",
"630 690 LINE",
"630 57 LINE",
"531 57 LINE",
"531 0 LINE",
"818 0 LINE",
"818 57 LINE",
"735 57 LINE",
"735 204 LINE",
"816 266 LINE",
"914 97 LINE SMOOTH",
"955 27 OFFCURVE",
"1002 -10 OFFCURVE",
"1072 -10 CURVE SMOOTH",
"1106 -10 OFFCURVE",
"1127 -7 OFFCURVE",
"1159 11 CURVE",
"1145 77 LINE",
"1130 70 OFFCURVE",
"1113 67 OFFCURVE",
"1094 67 CURVE SMOOTH",
"1063 67 OFFCURVE",
"1030 88 OFFCURVE",
"1000 126 CURVE SMOOTH",
"969 165 OFFCURVE",
"948 197 OFFCURVE",
"917 248 CURVE SMOOTH",
"900 274 OFFCURVE",
"888 293 OFFCURVE",
"878 307 CURVE",
"1047 467 LINE",
"1140 467 LINE",
"1140 524 LINE",
"847 524 LINE",
"847 467 LINE",
"939 467 LINE",
"735 279 LINE",
"735 750 LINE",
"624 750 LINE SMOOTH",
"552 750 OFFCURVE",
"494 745 OFFCURVE",
"451 734 CURVE SMOOTH",
"365 713 OFFCURVE",
"335 677 OFFCURVE",
"335 617 CURVE SMOOTH",
"335 614 OFFCURVE",
"336 611 OFFCURVE",
"336 608 CURVE SMOOTH",
"337 602 OFFCURVE",
"338 598 OFFCURVE",
"340 590 CURVE",
"342 586 OFFCURVE",
"343 583 OFFCURVE",
"343 582 CURVE",
"344 579 OFFCURVE",
"345 576 OFFCURVE",
"347 572 CURVE SMOOTH",
"351 564 OFFCURVE",
"352 563 OFFCURVE",
"356 554 CURVE SMOOTH",
"361 546 LINE",
"362 543 OFFCURVE",
"370 529 OFFCURVE",
"370 529 CURVE",
"347 536 OFFCURVE",
"324 539 OFFCURVE",
"301 539 CURVE SMOOTH",
"267 539 OFFCURVE",
"235 534 OFFCURVE",
"207 523 CURVE SMOOTH",
"149 502 OFFCURVE",
"108 466 OFFCURVE",
"79 417 CURVE SMOOTH",
"50 369 OFFCURVE",
"36 312 OFFCURVE",
"36 252 CURVE SMOOTH",
"36 172 OFFCURVE",
"64 103 OFFCURVE",
"110 58 CURVE SMOOTH",
"155 12 OFFCURVE",
"219 -14 OFFCURVE",
"289 -14 CURVE SMOOTH"
);
}
);
width = 1148;
}
);
leftKerningGroup = c;
note = c_k;
},
{
glyphname = f_f;
lastChange = "2017-06-04 21:18:45 +0000";
layers = (
{
layerId = "EE746D13-63D7-48F9-B77E-C723CA6A668B";
paths = (
{
closed = 1;
nodes = (
"300 0 LINE",
"300 57 LINE",
"236 57 LINE",
"236 469 LINE",
"420 469 LINE",
"420 57 LINE",
"346 57 LINE",
"346 0 LINE",
"619 0 LINE",
"619 57 LINE",
"525 57 LINE",
"525 469 LINE",
"646 469 LINE",
"646 524 LINE",
"522 524 LINE",
"522 607 LINE SMOOTH",
"522 692 OFFCURVE",
"563 732 OFFCURVE",
"624 732 CURVE SMOOTH",
"658 732 OFFCURVE",
"692 715 OFFCURVE",
"693 691 CURVE",
"664 691 OFFCURVE",
"633 667 OFFCURVE",
"633 632 CURVE SMOOTH",
"633 593 OFFCURVE",
"661 566 OFFCURVE",
"696 566 CURVE SMOOTH",
"738 566 OFFCURVE",
"772 596 OFFCURVE",
"772 647 CURVE SMOOTH",
"772 678 OFFCURVE",
"762 706 OFFCURVE",
"739 731 CURVE SMOOTH",
"715 757 OFFCURVE",
"670 773 OFFCURVE",
"609 773 CURVE SMOOTH",
"566 773 OFFCURVE",
"516 750 OFFCURVE",
"478 710 CURVE",
"451 747 OFFCURVE",
"397 773 OFFCURVE",
"329 773 CURVE SMOOTH",
"193 773 OFFCURVE",
"131 691 OFFCURVE",
"131 524 CURVE",
"36 524 LINE",
"36 469 LINE",
"131 469 LINE",
"131 57 LINE",
"44 57 LINE",
"44 0 LINE"
);
},
{
closed = 1;
nodes = (
"233 607 LINE SMOOTH",
"233 693 OFFCURVE",
"271 732 OFFCURVE",
"331 732 CURVE SMOOTH",
"366 732 OFFCURVE",
"396 723 OFFCURVE",
"405 715 CURVE",
"382 697 OFFCURVE",
"371 675 OFFCURVE",
"371 649 CURVE SMOOTH",
"371 622 OFFCURVE",
"387 598 OFFCURVE",
"420 589 CURVE",
"420 524 LINE",
"233 524 LINE"
);
}
);
width = 687;
}
);
note = f_f;
},
{
glyphname = f_f_i;
lastChange = "2017-06-04 21:18:45 +0000";
layers = (
{
layerId = "EE746D13-63D7-48F9-B77E-C723CA6A668B";
paths = (
{
closed = 1;
nodes = (
"307 0 LINE",
"307 57 LINE",
"236 57 LINE",
"236 469 LINE",
"441 469 LINE",
"441 57 LINE",
"353 57 LINE",
"353 0 LINE",
"628 0 LINE",
"628 57 LINE",
"546 57 LINE",
"546 469 LINE",
"746 469 LINE",
"746 57 LINE",
"670 57 LINE",
"670 0 LINE",
"937 0 LINE",
"937 57 LINE",
"851 57 LINE",
"851 524 LINE",
"543 524 LINE",
"543 607 LINE SMOOTH",
"543 650 OFFCURVE",
"563 685 OFFCURVE",
"591 704 CURVE SMOOTH",
"620 723 OFFCURVE",
"650 732 OFFCURVE",
"681 732 CURVE SMOOTH",
"718 732 OFFCURVE",
"771 714 OFFCURVE",
"772 691 CURVE",
"742 691 OFFCURVE",
"709 667 OFFCURVE",
"709 632 CURVE SMOOTH",
"709 594 OFFCURVE",
"740 566 OFFCURVE",
"775 566 CURVE SMOOTH",
"816 566 OFFCURVE",
"848 597 OFFCURVE",
"848 648 CURVE SMOOTH",
"848 678 OFFCURVE",
"834 707 OFFCURVE",
"806 732 CURVE SMOOTH",
"777 757 OFFCURVE",
"727 773 OFFCURVE",
"666 773 CURVE SMOOTH",
"594 773 OFFCURVE",
"538 752 OFFCURVE",
"499 710 CURVE",
"472 747 OFFCURVE",
"417 773 OFFCURVE",
"349 773 CURVE SMOOTH",
"210 773 OFFCURVE",
"131 688 OFFCURVE",
"131 524 CURVE",
"36 524 LINE",
"36 469 LINE",
"131 469 LINE",
"131 57 LINE",
"41 57 LINE",
"41 0 LINE"
);
},
{
closed = 1;
nodes = (
"233 607 LINE SMOOTH",
"233 650 OFFCURVE",
"248 684 OFFCURVE",
"271 704 CURVE SMOOTH",
"294 723 OFFCURVE",
"321 732 OFFCURVE",
"351 732 CURVE SMOOTH",
"386 732 OFFCURVE",
"417 723 OFFCURVE",
"426 715 CURVE",
"403 697 OFFCURVE",
"392 675 OFFCURVE",
"392 649 CURVE SMOOTH",
"392 622 OFFCURVE",
"408 598 OFFCURVE",
"441 589 CURVE",
"441 524 LINE",
"233 524 LINE"
);
}
);
width = 944;
}
);
note = f_f_i;
},
{
glyphname = f_f_l;
lastChange = "2017-06-04 21:18:45 +0000";
layers = (
{
layerId = "EE746D13-63D7-48F9-B77E-C723CA6A668B";
paths = (
{
closed = 1;
nodes = (
"307 0 LINE",
"307 57 LINE",
"236 57 LINE",
"236 469 LINE",
"424 469 LINE",
"424 57 LINE",
"360 57 LINE",
"360 0 LINE",
"624 0 LINE",
"624 57 LINE",
"529 57 LINE",
"529 469 LINE",
"688 469 LINE",
"688 524 LINE",
"526 524 LINE",
"526 607 LINE SMOOTH",
"526 689 OFFCURVE",
"578 727 OFFCURVE",
"643 727 CURVE SMOOTH",
"659 727 OFFCURVE",
"674 726 OFFCURVE",
"689 724 CURVE SMOOTH",
"719 720 OFFCURVE",
"751 706 OFFCURVE",
"757 685 CURVE",
"757 57 LINE",
"672 57 LINE",
"672 0 LINE",
"956 0 LINE",
"956 57 LINE",
"862 57 LINE",
"862 686 LINE SMOOTH",
"862 702 OFFCURVE",
"850 717 OFFCURVE",
"827 730 CURVE SMOOTH",
"780 757 OFFCURVE",
"704 773 OFFCURVE",
"628 773 CURVE SMOOTH",
"563 773 OFFCURVE",
"513 754 OFFCURVE",
"479 716 CURVE",
"442 754 OFFCURVE",
"390 773 OFFCURVE",
"322 773 CURVE SMOOTH",
"187 773 OFFCURVE",
"131 693 OFFCURVE",
"131 524 CURVE",
"36 524 LINE",
"36 469 LINE",
"131 469 LINE",
"131 57 LINE",
"36 57 LINE",
"36 0 LINE"
);
},
{
closed = 1;
nodes = (
"233 607 LINE SMOOTH",
"233 692 OFFCURVE",
"275 732 OFFCURVE",
"337 732 CURVE SMOOTH",
"371 732 OFFCURVE",
"409 719 OFFCURVE",
"422 696 CURVE",
"390 693 OFFCURVE",
"371 668 OFFCURVE",
"371 639 CURVE SMOOTH",
"371 610 OFFCURVE",
"391 583 OFFCURVE",
"426 577 CURVE",
"424 562 OFFCURVE",
"424 547 OFFCURVE",
"424 531 CURVE SMOOTH",
"424 524 LINE",
"233 524 LINE"
);
}
);
width = 976;
}
);
note = f_f_l;
},
{
glyphname = f_j;
lastChange = "2017-06-04 21:18:45 +0000";
layers = (
{
layerId = "EE746D13-63D7-48F9-B77E-C723CA6A668B";
paths = (
{
closed = 1;
nodes = (
"378 -230 LINE SMOOTH",
"478 -229 OFFCURVE",
"546 -163 OFFCURVE",
"546 -44 CURVE SMOOTH",
"546 524 LINE",
"222 524 LINE",
"222 577 LINE SMOOTH",
"222 600 OFFCURVE",
"226 620 OFFCURVE",
"232 638 CURVE SMOOTH",
"246 675 OFFCURVE",
"268 695 OFFCURVE",
"295 711 CURVE SMOOTH",
"322 727 OFFCURVE",
"347 732 OFFCURVE",
"372 732 CURVE SMOOTH",
"409 732 OFFCURVE",
"458 714 OFFCURVE",
"458 691 CURVE",
"428 691 OFFCURVE",
"395 667 OFFCURVE",
"395 632 CURVE SMOOTH",
"395 594 OFFCURVE",
"426 566 OFFCURVE",
"461 566 CURVE SMOOTH",
"502 566 OFFCURVE",
"534 599 OFFCURVE",
"534 650 CURVE SMOOTH",
"534 675 OFFCURVE",
"517 705 OFFCURVE",
"488 730 CURVE SMOOTH",
"459 755 OFFCURVE",
"410 773 OFFCURVE",
"357 773 CURVE SMOOTH",
"214 773 OFFCURVE",
"120 685 OFFCURVE",
"120 524 CURVE",
"25 524 LINE",
"25 469 LINE",
"120 469 LINE",
"120 57 LINE",
"25 57 LINE",
"25 0 LINE",
"340 0 LINE",
"340 57 LINE",
"225 57 LINE",
"225 469 LINE",
"441 469 LINE",
"441 -59 LINE SMOOTH",
"441 -106 OFFCURVE",
"431 -140 OFFCURVE",
"414 -156 CURVE SMOOTH",
"396 -171 OFFCURVE",
"380 -177 OFFCURVE",
"361 -177 CURVE SMOOTH",
"348 -177 OFFCURVE",
"336 -175 OFFCURVE",
"326 -171 CURVE",
"345 -163 OFFCURVE",
"354 -143 OFFCURVE",
"354 -109 CURVE SMOOTH",
"354 -75 OFFCURVE",
"328 -55 OFFCURVE",
"297 -55 CURVE SMOOTH",
"259 -55 OFFCURVE",
"226 -81 OFFCURVE",
"226 -124 CURVE SMOOTH",
"226 -190 OFFCURVE",
"278 -230 OFFCURVE",
"374 -230 CURVE SMOOTH"
);
}
);
width = 626;
}
);
note = f_j;
},
{
glyphname = fi;
lastChange = "2017-06-04 21:18:45 +0000";
layers = (
{
layerId = "EE746D13-63D7-48F9-B77E-C723CA6A668B";
paths = (
{
closed = 1;
nodes = (
"318 0 LINE",
"318 57 LINE",
"236 57 LINE",
"236 469 LINE",
"442 469 LINE",
"442 57 LINE",
"366 57 LINE",
"366 0 LINE",
"633 0 LINE",
"633 57 LINE",
"547 57 LINE",
"547 524 LINE",
"233 524 LINE",
"233 607 LINE SMOOTH",
"233 624 OFFCURVE",
"236 640 OFFCURVE",
"243 654 CURVE SMOOTH",
"255 683 OFFCURVE",
"276 701 OFFCURVE",
"302 714 CURVE SMOOTH",
"327 727 OFFCURVE",
"353 732 OFFCURVE",
"377 732 CURVE SMOOTH",
"414 732 OFFCURVE",
"467 714 OFFCURVE",
"468 691 CURVE",
"438 691 OFFCURVE",
"405 667 OFFCURVE",
"405 632 CURVE SMOOTH",
"405 594 OFFCURVE",
"436 566 OFFCURVE",
"471 566 CURVE SMOOTH",
"513 566 OFFCURVE",
"544 597 OFFCURVE",
"544 648 CURVE SMOOTH",
"544 678 OFFCURVE",
"530 707 OFFCURVE",
"501 732 CURVE SMOOTH",
"473 757 OFFCURVE",
"423 773 OFFCURVE",
"362 773 CURVE SMOOTH",
"210 773 OFFCURVE",
"131 689 OFFCURVE",
"131 524 CURVE",
"36 524 LINE",
"36 469 LINE",
"131 469 LINE",
"131 57 LINE",
"36 57 LINE",
"36 0 LINE"
);
}
);
width = 640;
}
);
note = fi;
unicode = FB01;
},
{
glyphname = fl;
lastChange = "2017-06-04 21:18:45 +0000";
layers = (
{
layerId = "EE746D13-63D7-48F9-B77E-C723CA6A668B";
paths = (
{
closed = 1;
nodes = (
"317 0 LINE",
"317 57 LINE",
"236 57 LINE",
"236 469 LINE",
"395 469 LINE",
"395 524 LINE",
"233 524 LINE",
"233 607 LINE SMOOTH",
"233 689 OFFCURVE",
"285 727 OFFCURVE",
"350 727 CURVE SMOOTH",
"366 727 OFFCURVE",
"381 726 OFFCURVE",
"396 724 CURVE SMOOTH",
"426 720 OFFCURVE",
"458 706 OFFCURVE",
"464 685 CURVE",
"464 57 LINE",
"379 57 LINE",
"379 0 LINE",
"674 0 LINE",
"674 57 LINE",
"569 57 LINE",
"569 686 LINE SMOOTH",
"569 702 OFFCURVE",
"557 717 OFFCURVE",
"534 730 CURVE SMOOTH",
"487 757 OFFCURVE",
"411 773 OFFCURVE",
"335 773 CURVE SMOOTH",
"199 773 OFFCURVE",
"131 690 OFFCURVE",
"131 524 CURVE",
"36 524 LINE",
"36 469 LINE",
"131 469 LINE",
"131 57 LINE",
"36 57 LINE",
"36 0 LINE"
);
}
);
width = 694;
}
);
note = fl;
unicode = FB02;
},
{
glyphname = s_h;
lastChange = "2017-06-04 21:18:45 +0000";
layers = (
{
layerId = "EE746D13-63D7-48F9-B77E-C723CA6A668B";
paths = (
{
closed = 1;
nodes = (
"308 -13 OFFCURVE",
"357 -2 OFFCURVE",
"401 22 CURVE SMOOTH",
"444 46 OFFCURVE",
"471 91 OFFCURVE",
"471 150 CURVE SMOOTH",
"471 203 OFFCURVE",
"444 245 OFFCURVE",
"404 269 CURVE SMOOTH",
"365 292 OFFCURVE",
"314 310 OFFCURVE",
"267 324 CURVE SMOOTH",
"243 330 OFFCURVE",
"222 337 OFFCURVE",
"202 344 CURVE SMOOTH",
"162 358 OFFCURVE",
"135 379 OFFCURVE",
"135 408 CURVE SMOOTH",
"135 461 OFFCURVE",
"186 486 OFFCURVE",
"255 486 CURVE SMOOTH",
"302 486 OFFCURVE",
"354 473 OFFCURVE",
"381 453 CURVE",
"348 450 OFFCURVE",
"329 430 OFFCURVE",
"329 396 CURVE SMOOTH",
"329 359 OFFCURVE",
"359 339 OFFCURVE",
"398 339 CURVE SMOOTH",
"432 339 OFFCURVE",
"461 370 OFFCURVE",
"461 412 CURVE SMOOTH",
"461 425 OFFCURVE",
"450 458 OFFCURVE",
"429 508 CURVE SMOOTH",
"407 558 OFFCURVE",
"396 591 OFFCURVE",
"396 607 CURVE SMOOTH",
"396 618 OFFCURVE",
"397 628 OFFCURVE",
"400 636 CURVE SMOOTH",
"405 651 OFFCURVE",
"421 667 OFFCURVE",
"451 676 CURVE SMOOTH",
"479 684 OFFCURVE",
"528 690 OFFCURVE",
"597 690 CURVE",
"597 57 LINE",
"507 57 LINE",
"507 0 LINE",
"797 0 LINE",
"797 57 LINE",
"702 57 LINE",
"702 292 LINE SMOOTH",
"702 387 OFFCURVE",
"782 469 OFFCURVE",
"852 469 CURVE SMOOTH",
"898 469 OFFCURVE",
"930 433 OFFCURVE",
"930 357 CURVE SMOOTH",
"930 57 LINE",
"835 57 LINE",
"835 0 LINE",
"1140 0 LINE",
"1140 57 LINE",
"1035 57 LINE",
"1035 353 LINE SMOOTH",
"1035 385 OFFCURVE",
"1031 413 OFFCURVE",
"1023 437 CURVE SMOOTH",
"1007 484 OFFCURVE",
"986 506 OFFCURVE",
"954 521 CURVE SMOOTH",
"922 536 OFFCURVE",
"900 538 OFFCURVE",
"873 538 CURVE SMOOTH",
"852 538 OFFCURVE",
"832 535 OFFCURVE",
"812 529 CURVE SMOOTH",
"771 516 OFFCURVE",
"727 482 OFFCURVE",
"702 431 CURVE",
"702 750 LINE",
"608 750 LINE SMOOTH",
"499 750 OFFCURVE",
"428 739 OFFCURVE",
"388 716 CURVE SMOOTH",
"347 692 OFFCURVE",
"333 663 OFFCURVE",
"333 617 CURVE SMOOTH",
"333 593 OFFCURVE",
"347 565 OFFCURVE",
"365 533 CURVE SMOOTH",
"374 517 OFFCURVE",
"379 507 OFFCURVE",
"382 502 CURVE",
"347 523 OFFCURVE",
"290 536 OFFCURVE",
"249 536 CURVE SMOOTH",
"231 536 OFFCURVE",
"214 535 OFFCURVE",
"197 533 CURVE SMOOTH",
"162 528 OFFCURVE",
"122 514 OFFCURVE",
"93 494 CURVE SMOOTH",
"65 474 OFFCURVE",
"44 438 OFFCURVE",
"44 395 CURVE SMOOTH",
"44 351 OFFCURVE",
"65 316 OFFCURVE",
"96 295 CURVE SMOOTH",
"127 274 OFFCURVE",
"169 256 OFFCURVE",
"211 246 CURVE SMOOTH",
"252 235 OFFCURVE",
"294 220 OFFCURVE",
"326 206 CURVE SMOOTH",
"357 191 OFFCURVE",
"378 166 OFFCURVE",
"378 135 CURVE SMOOTH",
"378 74 OFFCURVE",
"315 43 OFFCURVE",
"239 43 CURVE SMOOTH",
"195 43 OFFCURVE",
"147 57 OFFCURVE",
"122 76 CURVE",
"147 76 OFFCURVE",
"170 104 OFFCURVE",
"170 137 CURVE SMOOTH",
"170 176 OFFCURVE",
"142 197 OFFCURVE",
"106 197 CURVE SMOOTH",
"70 197 OFFCURVE",
"37 166 OFFCURVE",
"37 123 CURVE SMOOTH",
"37 104 OFFCURVE",
"42 87 OFFCURVE",
"50 72 CURVE SMOOTH",
"68 41 OFFCURVE",
"97 21 OFFCURVE",
"134 7 CURVE SMOOTH",
"172 -7 OFFCURVE",
"211 -13 OFFCURVE",
"252 -13 CURVE SMOOTH"
);
}
);
width = 1147;
}
);
leftKerningGroup = s;
note = s_h;
rightKerningGroup = h;
},
{
glyphname = t_t;
lastChange = "2017-06-04 21:18:45 +0000";
layers = (
{
layerId = "EE746D13-63D7-48F9-B77E-C723CA6A668B";
paths = (
{
closed = 1;
nodes = (
"271 -13 OFFCURVE",
"292 -10 OFFCURVE",
"309 -3 CURVE SMOOTH",
"343 10 OFFCURVE",
"363 33 OFFCURVE",
"377 68 CURVE SMOOTH",
"390 103 OFFCURVE",
"394 140 OFFCURVE",
"394 191 CURVE SMOOTH",
"394 241 LINE",
"338 241 LINE",
"338 181 LINE SMOOTH",
"338 97 OFFCURVE",
"314 55 OFFCURVE",
"265 55 CURVE SMOOTH",
"219 55 OFFCURVE",
"195 85 OFFCURVE",
"195 146 CURVE SMOOTH",
"195 469 LINE",
"454 469 LINE",
"454 159 LINE SMOOTH",
"454 50 OFFCURVE",
"520 -13 OFFCURVE",
"617 -13 CURVE SMOOTH",
"640 -13 OFFCURVE",
"660 -10 OFFCURVE",
"677 -3 CURVE SMOOTH",
"710 11 OFFCURVE",
"729 32 OFFCURVE",
"741 68 CURVE SMOOTH",
"752 104 OFFCURVE",
"755 139 OFFCURVE",
"755 191 CURVE SMOOTH",
"755 241 LINE",
"698 241 LINE",
"698 181 LINE SMOOTH",
"698 93 OFFCURVE",
"675 55 OFFCURVE",
"628 55 CURVE SMOOTH",
"584 55 OFFCURVE",
"559 79 OFFCURVE",
"559 146 CURVE SMOOTH",
"559 469 LINE",
"702 469 LINE",
"702 524 LINE",
"559 524 LINE",
"559 777 LINE SMOOTH",
"559 788 OFFCURVE",
"554 794 OFFCURVE",
"546 794 CURVE SMOOTH",
"539 794 OFFCURVE",
"531 787 OFFCURVE",
"528 777 CURVE SMOOTH",
"526 768 OFFCURVE",
"523 752 OFFCURVE",
"519 731 CURVE SMOOTH",
"510 690 OFFCURVE",
"505 672 OFFCURVE",
"495 635 CURVE SMOOTH",
"485 598 OFFCURVE",
"474 580 OFFCURVE",
"458 557 CURVE SMOOTH",
"441 535 OFFCURVE",
"419 524 OFFCURVE",
"393 524 CURVE SMOOTH",
"195 524 LINE",
"195 777 LINE SMOOTH",
"195 787 OFFCURVE",
"189 794 OFFCURVE",
"182 794 CURVE SMOOTH",
"175 794 OFFCURVE",
"167 787 OFFCURVE",
"164 777 CURVE SMOOTH",
"158 752 OFFCURVE",
"149 708 OFFCURVE",
"145 685 CURVE SMOOTH",
"141 661 OFFCURVE",
"130 625 OFFCURVE",
"121 603 CURVE SMOOTH",
"111 582 OFFCURVE",
"95 554 OFFCURVE",
"75 537 CURVE SMOOTH",
"55 520 OFFCURVE",
"26 502 OFFCURVE",
"-10 492 CURVE",
"-10 469 LINE",
"90 469 LINE",
"90 149 LINE SMOOTH",
"90 95 OFFCURVE",
"110 51 OFFCURVE",
"140 26 CURVE SMOOTH",
"169 0 OFFCURVE",
"207 -13 OFFCURVE",
"248 -13 CURVE SMOOTH"
);
}
);
width = 787;
}
);
leftKerningGroup = t;
note = t_t;
},
{
glyphname = ordfeminine;
lastChange = "2017-06-04 21:18:45 +0000";
layers = (
{
layerId = "EE746D13-63D7-48F9-B77E-C723CA6A668B";
paths = (
{
closed = 1;
nodes = (
"251 261 OFFCURVE",
"314 305 OFFCURVE",
"339 366 CURVE",
"345 299 OFFCURVE",
"396 261 OFFCURVE",
"455 261 CURVE SMOOTH",
"457 261 LINE SMOOTH",
"490 262 OFFCURVE",
"516 270 OFFCURVE",
"538 290 CURVE SMOOTH",
"560 310 OFFCURVE",
"572 349 OFFCURVE",
"572 404 CURVE SMOOTH",
"572 457 LINE",
"525 457 LINE",
"525 395 LINE SMOOTH",
"525 346 OFFCURVE",
"508 321 OFFCURVE",
"473 321 CURVE SMOOTH",
"460 321 OFFCURVE",
"451 325 OFFCURVE",
"443 333 CURVE SMOOTH",
"427 349 OFFCURVE",
"422 370 OFFCURVE",
"422 391 CURVE SMOOTH",
"422 583 LINE SMOOTH",
"422 637 OFFCURVE",
"405 678 OFFCURVE",
"375 700 CURVE SMOOTH",
"344 722 OFFCURVE",
"307 732 OFFCURVE",
"261 732 CURVE SMOOTH",
"204 732 OFFCURVE",
"153 714 OFFCURVE",
"126 689 CURVE SMOOTH",
"98 664 OFFCURVE",
"83 637 OFFCURVE",
"83 614 CURVE SMOOTH",
"83 570 OFFCURVE",
"112 546 OFFCURVE",
"145 546 CURVE SMOOTH",
"176 546 OFFCURVE",
"204 570 OFFCURVE",
"204 605 CURVE SMOOTH",
"204 632 OFFCURVE",
"181 654 OFFCURVE",
"145 654 CURVE",
"164 675 OFFCURVE",
"203 689 OFFCURVE",
"243 689 CURVE SMOOTH",
"300 689 OFFCURVE",
"333 658 OFFCURVE",
"333 595 CURVE SMOOTH",
"333 581 OFFCURVE",
"328 568 OFFCURVE",
"318 557 CURVE SMOOTH",
"298 533 OFFCURVE",
"266 519 OFFCURVE",
"229 504 CURVE SMOOTH",
"191 489 OFFCURVE",
"151 473 OFFCURVE",
"120 453 CURVE SMOOTH",
"89 434 OFFCURVE",
"67 403 OFFCURVE",
"67 365 CURVE SMOOTH",
"67 301 OFFCURVE",
"116 261 OFFCURVE",
"185 261 CURVE SMOOTH"
);
},
{
closed = 1;
nodes = (
"174 322 OFFCURVE",
"158 340 OFFCURVE",
"158 369 CURVE SMOOTH",
"158 402 OFFCURVE",
"183 425 OFFCURVE",
"213 438 CURVE SMOOTH",
"243 452 OFFCURVE",
"297 481 OFFCURVE",
"333 516 CURVE",
"333 428 LINE SMOOTH",
"333 381 OFFCURVE",
"263 322 OFFCURVE",
"207 322 CURVE SMOOTH"
);
}
);
width = 641;
}
);
note = ordfeminine;
unicode = 00AA;
},
{
glyphname = ordmasculine;
lastChange = "2017-06-04 21:18:45 +0000";
layers = (
{
layerId = "EE746D13-63D7-48F9-B77E-C723CA6A668B";
paths = (
{
closed = 1;
nodes = (
"333 279 OFFCURVE",
"372 290 OFFCURVE",
"405 311 CURVE SMOOTH",
"471 353 OFFCURVE",
"504 426 OFFCURVE",
"504 514 CURVE SMOOTH",
"504 651 OFFCURVE",
"421 750 OFFCURVE",
"288 750 CURVE SMOOTH",
"243 750 OFFCURVE",
"204 740 OFFCURVE",
"171 719 CURVE SMOOTH",
"104 677 OFFCURVE",
"70 604 OFFCURVE",
"70 514 CURVE SMOOTH",
"70 378 OFFCURVE",
"154 279 OFFCURVE",
"289 279 CURVE SMOOTH"
);
},
{
closed = 1;
nodes = (
"212 332 OFFCURVE",
"166 402 OFFCURVE",
"166 509 CURVE SMOOTH",
"166 546 OFFCURVE",
"170 579 OFFCURVE",
"178 607 CURVE SMOOTH",
"195 663 OFFCURVE",
"233 700 OFFCURVE",
"288 700 CURVE SMOOTH",
"315 700 OFFCURVE",
"338 691 OFFCURVE",
"357 674 CURVE SMOOTH",
"394 640 OFFCURVE",
"409 584 OFFCURVE",
"409 509 CURVE SMOOTH",
"409 403 OFFCURVE",
"363 332 OFFCURVE",
"289 332 CURVE SMOOTH"
);
}
);
width = 575;
}
);
note = ordmasculine;
unicode = 00BA;
},
{
glyphname = uni03BC;
lastChange = "2017-06-04 21:18:45 +0000";
layers = (
{
layerId = "EE746D13-63D7-48F9-B77E-C723CA6A668B";
paths = (
{
closed = 1;
nodes = (
"184 -219 OFFCURVE",
"204 -195 OFFCURVE",
"204 -164 CURVE SMOOTH",
"204 -156 OFFCURVE",
"197 -123 OFFCURVE",
"184 -64 CURVE SMOOTH",
"171 -5 OFFCURVE",
"164 37 OFFCURVE",
"164 64 CURVE",
"173 33 OFFCURVE",
"194 9 OFFCURVE",
"217 0 CURVE SMOOTH",
"240 -10 OFFCURVE",
"258 -14 OFFCURVE",
"272 -14 CURVE SMOOTH",
"335 -14 OFFCURVE",
"397 20 OFFCURVE",
"443 85 CURVE",
"443 -14 LINE",
"640 0 LINE",
"640 45 LINE",
"545 55 LINE",
"545 524 LINE",
"351 524 LINE",
"351 466 LINE",
"440 466 LINE",
"440 183 LINE SMOOTH",
"440 163 OFFCURVE",
"432 144 OFFCURVE",
"417 124 CURVE SMOOTH",
"385 84 OFFCURVE",
"334 57 OFFCURVE",
"293 57 CURVE SMOOTH",
"235 57 OFFCURVE",
"208 92 OFFCURVE",
"208 177 CURVE SMOOTH",
"208 524 LINE",
"3 524 LINE",
"3 466 LINE",
"103 466 LINE",
"103 -147 LINE SMOOTH",
"103 -195 OFFCURVE",
"120 -219 OFFCURVE",
"155 -219 CURVE SMOOTH"
);
}
);
width = 668;
}
);
note = uni03BC;
unicode = 03BC;
},
{
glyphname = zero;
lastChange = "2017-06-04 21:18:45 +0000";
layers = (
{
layerId = "EE746D13-63D7-48F9-B77E-C723CA6A668B";
paths = (
{
closed = 1;
nodes = (
"348 -13 OFFCURVE",
"412 21 OFFCURVE",
"449 74 CURVE SMOOTH",
"487 126 OFFCURVE",
"508 193 OFFCURVE",
"508 263 CURVE SMOOTH",
"508 333 OFFCURVE",
"487 399 OFFCURVE",
"449 452 CURVE SMOOTH",
"411 504 OFFCURVE",
"347 538 OFFCURVE",
"272 538 CURVE SMOOTH",
"234 538 OFFCURVE",
"201 530 OFFCURVE",
"170 515 CURVE SMOOTH",
"139 499 OFFCURVE",
"115 478 OFFCURVE",
"96 452 CURVE SMOOTH",
"58 399 OFFCURVE",
"36 333 OFFCURVE",
"36 263 CURVE SMOOTH",
"36 193 OFFCURVE",
"57 126 OFFCURVE",
"95 74 CURVE SMOOTH",
"132 21 OFFCURVE",
"196 -13 OFFCURVE",
"272 -13 CURVE SMOOTH"
);
},
{
closed = 1;
nodes = (
"246 49 OFFCURVE",
"223 60 OFFCURVE",
"203 81 CURVE SMOOTH",
"163 123 OFFCURVE",
"144 189 OFFCURVE",
"144 263 CURVE SMOOTH",
"144 300 OFFCURVE",
"149 334 OFFCURVE",
"159 367 CURVE SMOOTH",
"178 432 OFFCURVE",
"220 480 OFFCURVE",
"272 480 CURVE SMOOTH",
"298 480 OFFCURVE",
"321 469 OFFCURVE",
"341 448 CURVE SMOOTH",
"380 405 OFFCURVE",
"400 337 OFFCURVE",
"400 263 CURVE SMOOTH",
"400 226 OFFCURVE",
"395 191 OFFCURVE",
"386 160 CURVE SMOOTH",
"367 96 OFFCURVE",
"325 49 OFFCURVE",
"272 49 CURVE SMOOTH"
);
}
);
width = 544;
}
);
note = zero;
unicode = 0030;
},
{
glyphname = one;
lastChange = "2017-06-04 21:18:45 +0000";
layers = (
{
layerId = "EE746D13-63D7-48F9-B77E-C723CA6A668B";
paths = (
{
closed = 1;
nodes = (
"393 0 LINE",
"393 55 LINE",
"281 55 LINE",
"281 524 LINE",
"221 524 LINE",
"42 453 LINE",
"72 390 LINE",
"176 438 LINE",
"176 55 LINE",
"57 55 LINE",
"57 0 LINE"
);
}
);
width = 401;
}
);
note = one;
unicode = 0031;
},
{
glyphname = two;
lastChange = "2017-06-04 21:18:45 +0000";
layers = (
{
layerId = "EE746D13-63D7-48F9-B77E-C723CA6A668B";
paths = (
{
closed = 1;
nodes = (
"486 -67 LINE",
"468 80 LINE",
"207 80 LINE",
"339 176 LINE SMOOTH",
"431 243 OFFCURVE",
"470 306 OFFCURVE",
"470 355 CURVE SMOOTH",
"470 472 OFFCURVE",
"395 540 OFFCURVE",
"274 540 CURVE SMOOTH",
"147 540 OFFCURVE",
"42 469 OFFCURVE",
"42 388 CURVE SMOOTH",
"42 343 OFFCURVE",
"69 306 OFFCURVE",
"123 306 CURVE SMOOTH",
"167 306 OFFCURVE",
"198 334 OFFCURVE",
"198 377 CURVE SMOOTH",
"198 409 OFFCURVE",
"176 431 OFFCURVE",
"151 438 CURVE",
"178 469 OFFCURVE",
"212 484 OFFCURVE",
"256 484 CURVE SMOOTH",
"317 484 OFFCURVE",
"369 428 OFFCURVE",
"369 362 CURVE SMOOTH",
"369 343 OFFCURVE",
"363 322 OFFCURVE",
"351 301 CURVE SMOOTH",
"327 258 OFFCURVE",
"293 225 OFFCURVE",
"243 186 CURVE SMOOTH",
"192 146 OFFCURVE",
"156 123 OFFCURVE",
"109 91 CURVE SMOOTH",
"85 76 OFFCURVE",
"69 64 OFFCURVE",
"60 58 CURVE",
"61 58 OFFCURVE",
"64 39 OFFCURVE",
"70 0 CURVE",
"406 0 LINE",
"452 -72 LINE"
);
}
);
width = 517;
}
);
note = two;
unicode = 0032;
},
{
glyphname = three;
lastChange = "2017-06-04 21:18:45 +0000";
layers = (
{
layerId = "EE746D13-63D7-48F9-B77E-C723CA6A668B";
paths = (
{
closed = 1;
nodes = (
"390 -149 OFFCURVE",
"501 -59 OFFCURVE",
"501 65 CURVE SMOOTH",
"501 157 OFFCURVE",
"446 219 OFFCURVE",
"327 231 CURVE",
"411 252 OFFCURVE",
"452 302 OFFCURVE",
"452 371 CURVE SMOOTH",
"452 414 OFFCURVE",
"437 452 OFFCURVE",
"406 485 CURVE SMOOTH",
"375 518 OFFCURVE",
"320 539 OFFCURVE",
"251 539 CURVE SMOOTH",
"120 539 OFFCURVE",
"31 477 OFFCURVE",
"31 371 CURVE SMOOTH",
"31 332 OFFCURVE",
"65 292 OFFCURVE",
"116 292 CURVE SMOOTH",
"158 292 OFFCURVE",
"187 321 OFFCURVE",
"187 364 CURVE SMOOTH",
"187 387 OFFCURVE",
"176 406 OFFCURVE",
"160 415 CURVE SMOOTH",
"145 423 OFFCURVE",
"129 427 OFFCURVE",
"114 427 CURVE",
"151 468 OFFCURVE",
"179 480 OFFCURVE",
"232 480 CURVE SMOOTH",
"312 480 OFFCURVE",
"359 437 OFFCURVE",
"359 368 CURVE SMOOTH",
"359 301 OFFCURVE",
"306 260 OFFCURVE",
"199 244 CURVE",
"211 182 LINE",
"235 186 OFFCURVE",
"254 188 OFFCURVE",
"268 188 CURVE SMOOTH",
"352 188 OFFCURVE",
"393 146 OFFCURVE",
"393 62 CURVE SMOOTH",
"393 21 OFFCURVE",
"376 -18 OFFCURVE",
"347 -48 CURVE SMOOTH",
"317 -79 OFFCURVE",
"267 -99 OFFCURVE",
"207 -99 CURVE SMOOTH",
"199 -99 OFFCURVE",
"186 -98 OFFCURVE",
"167 -95 CURVE",
"167 -93 OFFCURVE",
"169 -89 OFFCURVE",
"172 -83 CURVE SMOOTH",
"177 -72 OFFCURVE",
"180 -60 OFFCURVE",
"180 -48 CURVE SMOOTH",
"180 -13 OFFCURVE",
"153 20 OFFCURVE",
"113 20 CURVE SMOOTH",
"66 20 OFFCURVE",
"44 -8 OFFCURVE",
"44 -50 CURVE SMOOTH",
"44 -71 OFFCURVE",
"52 -90 OFFCURVE",
"69 -105 CURVE SMOOTH",
"102 -136 OFFCURVE",
"155 -149 OFFCURVE",
"218 -149 CURVE SMOOTH"
);
}
);
width = 540;
}
);
note = three;
unicode = 0033;
},
{
glyphname = four;
lastChange = "2017-06-04 21:18:45 +0000";
layers = (
{
layerId = "EE746D13-63D7-48F9-B77E-C723CA6A668B";
paths = (
{
closed = 1;
nodes = (
"528 -189 LINE",
"528 -122 LINE",
"419 -122 LINE",
"419 0 LINE",
"540 0 LINE",
"549 73 LINE",
"419 73 LINE",
"419 516 LINE",
"296 531 LINE",
"41 66 LINE",
"53 0 LINE",
"314 0 LINE",
"314 -122 LINE",
"197 -122 LINE",
"197 -189 LINE"
);
},
{
closed = 1;
nodes = (
"314 451 LINE",
"314 73 LINE",
"131 73 LINE"
);
}
);
width = 537;
}
);
note = four;
unicode = 0034;
},
{
glyphname = five;
lastChange = "2017-06-04 21:18:45 +0000";
layers = (
{
layerId = "EE746D13-63D7-48F9-B77E-C723CA6A668B";
paths = (
{
closed = 1;
nodes = (
"304 -148 OFFCURVE",
"378 -122 OFFCURVE",
"423 -79 CURVE SMOOTH",
"468 -36 OFFCURVE",
"493 21 OFFCURVE",
"493 83 CURVE SMOOTH",
"493 146 OFFCURVE",
"474 197 OFFCURVE",
"433 237 CURVE SMOOTH",
"392 276 OFFCURVE",
"320 299 OFFCURVE",
"224 299 CURVE SMOOTH",
"198 299 OFFCURVE",
"174 297 OFFCURVE",
"151 295 CURVE",
"174 441 LINE",
"417 441 LINE",
"446 524 LINE",
"114 524 LINE",
"77 271 LINE",
"106 236 LINE",
"132 239 OFFCURVE",
"153 241 OFFCURVE",
"169 241 CURVE SMOOTH",
"228 241 OFFCURVE",
"277 229 OFFCURVE",
"318 203 CURVE SMOOTH",
"359 177 OFFCURVE",
"384 131 OFFCURVE",
"384 72 CURVE SMOOTH",
"384 28 OFFCURVE",
"370 -12 OFFCURVE",
"341 -43 CURVE SMOOTH",
"312 -75 OFFCURVE",
"264 -95 OFFCURVE",
"205 -95 CURVE SMOOTH",
"200 -95 OFFCURVE",
"186 -94 OFFCURVE",
"165 -91 CURVE",
"165 -90 OFFCURVE",
"167 -85 OFFCURVE",
"172 -75 CURVE SMOOTH",
"176 -64 OFFCURVE",
"178 -55 OFFCURVE",
"178 -47 CURVE SMOOTH",
"178 -12 OFFCURVE",
"151 21 OFFCURVE",
"111 21 CURVE SMOOTH",
"64 21 OFFCURVE",
"42 -7 OFFCURVE",
"42 -49 CURVE SMOOTH",
"42 -70 OFFCURVE",
"50 -89 OFFCURVE",
"67 -104 CURVE SMOOTH",
"100 -135 OFFCURVE",
"153 -148 OFFCURVE",
"216 -148 CURVE SMOOTH"
);
}
);
width = 530;
}
);
note = five;
unicode = 0035;
},
{
glyphname = six;
lastChange = "2017-06-04 21:18:45 +0000";
layers = (
{
layerId = "EE746D13-63D7-48F9-B77E-C723CA6A668B";
paths = (
{
closed = 1;
nodes = (
"450 -13 OFFCURVE",
"550 78 OFFCURVE",
"550 200 CURVE SMOOTH",
"550 245 OFFCURVE",
"540 284 OFFCURVE",
"521 317 CURVE SMOOTH",
"482 382 OFFCURVE",
"419 412 OFFCURVE",
"344 412 CURVE SMOOTH",
"286 412 OFFCURVE",
"214 387 OFFCURVE",
"172 342 CURVE",
"178 499 OFFCURVE",
"264 614 OFFCURVE",
"383 625 CURVE",
"383 624 OFFCURVE",
"382 621 OFFCURVE",
"381 616 CURVE SMOOTH",
"379 606 OFFCURVE",
"378 596 OFFCURVE",
"378 584 CURVE SMOOTH",
"378 553 OFFCURVE",
"409 525 OFFCURVE",
"442 525 CURVE SMOOTH",
"482 525 OFFCURVE",
"508 551 OFFCURVE",
"508 594 CURVE SMOOTH",
"508 643 OFFCURVE",
"451 676 OFFCURVE",
"377 676 CURVE SMOOTH",
"356 676 OFFCURVE",
"335 674 OFFCURVE",
"315 669 CURVE SMOOTH",
"274 661 OFFCURVE",
"232 641 OFFCURVE",
"196 612 CURVE SMOOTH",
"160 584 OFFCURVE",
"128 541 OFFCURVE",
"105 490 CURVE SMOOTH",
"82 439 OFFCURVE",
"69 372 OFFCURVE",
"69 296 CURVE SMOOTH",
"69 93 OFFCURVE",
"165 -13 OFFCURVE",
"315 -13 CURVE SMOOTH"
);
},
{
closed = 1;
nodes = (
"286 48 OFFCURVE",
"259 57 OFFCURVE",
"236 76 CURVE SMOOTH",
"191 113 OFFCURVE",
"172 174 OFFCURVE",
"172 249 CURVE SMOOTH",
"172 267 OFFCURVE",
"181 284 OFFCURVE",
"198 300 CURVE SMOOTH",
"233 332 OFFCURVE",
"283 348 OFFCURVE",
"321 348 CURVE SMOOTH",
"406 348 OFFCURVE",
"452 289 OFFCURVE",
"452 203 CURVE SMOOTH",
"452 113 OFFCURVE",
"397 48 OFFCURVE",
"319 48 CURVE SMOOTH"
);
}
);
width = 606;
}
);
note = six;
unicode = 0036;
},
{
glyphname = seven;
lastChange = "2017-06-04 21:18:45 +0000";
layers = (
{
layerId = "EE746D13-63D7-48F9-B77E-C723CA6A668B";
paths = (
{
closed = 1;
nodes = (
"196 -220 OFFCURVE",
"220 -205 OFFCURVE",
"232 -176 CURVE SMOOTH",
"476 450 LINE",
"449 524 LINE",
"48 524 LINE",
"48 336 LINE",
"138 336 LINE",
"138 455 LINE",
"397 455 LINE",
"126 -124 LINE SMOOTH",
"120 -137 OFFCURVE",
"117 -150 OFFCURVE",
"117 -163 CURVE SMOOTH",
"117 -198 OFFCURVE",
"142 -220 OFFCURVE",
"172 -220 CURVE SMOOTH"
);
}
);
width = 509;
}
);
note = seven;
unicode = 0037;
},
{
glyphname = eight;
lastChange = "2017-06-04 21:18:45 +0000";
layers = (
{
layerId = "EE746D13-63D7-48F9-B77E-C723CA6A668B";
paths = (
{
closed = 1;
nodes = (
"461 -13 OFFCURVE",
"557 59 OFFCURVE",
"557 171 CURVE SMOOTH",
"557 191 OFFCURVE",
"554 210 OFFCURVE",
"547 228 CURVE SMOOTH",
"534 264 OFFCURVE",
"515 290 OFFCURVE",
"483 318 CURVE SMOOTH",
"452 345 OFFCURVE",
"425 363 OFFCURVE",
"385 386 CURVE",
"420 401 OFFCURVE",
"449 420 OFFCURVE",
"479 448 CURVE SMOOTH",
"508 476 OFFCURVE",
"526 515 OFFCURVE",
"526 558 CURVE SMOOTH",
"526 658 OFFCURVE",
"435 737 OFFCURVE",
"304 737 CURVE SMOOTH",
"166 737 OFFCURVE",
"80 671 OFFCURVE",
"80 568 CURVE SMOOTH",
"80 522 OFFCURVE",
"95 482 OFFCURVE",
"125 450 CURVE SMOOTH",
"153 418 OFFCURVE",
"183 396 OFFCURVE",
"226 370 CURVE",
"213 365 OFFCURVE",
"201 359 OFFCURVE",
"188 353 CURVE SMOOTH",
"162 341 OFFCURVE",
"122 314 OFFCURVE",
"95 285 CURVE SMOOTH",
"68 256 OFFCURVE",
"46 210 OFFCURVE",
"46 162 CURVE SMOOTH",
"46 56 OFFCURVE",
"151 -13 OFFCURVE",
"302 -13 CURVE SMOOTH"
);
},
{
closed = 1;
nodes = (
"208 52 OFFCURVE",
"153 94 OFFCURVE",
"153 177 CURVE SMOOTH",
"153 214 OFFCURVE",
"172 250 OFFCURVE",
"202 277 CURVE SMOOTH",
"231 305 OFFCURVE",
"256 321 OFFCURVE",
"285 337 CURVE",
"287 336 OFFCURVE",
"289 335 OFFCURVE",
"291 334 CURVE",
"342 307 OFFCURVE",
"369 291 OFFCURVE",
"404 264 CURVE SMOOTH",
"438 236 OFFCURVE",
"455 206 OFFCURVE",
"455 171 CURVE SMOOTH",
"455 89 OFFCURVE",
"393 52 OFFCURVE",
"299 52 CURVE SMOOTH"
);
},
{
closed = 1;
nodes = (
"311 426 OFFCURVE",
"299 433 OFFCURVE",
"292 438 CURVE SMOOTH",
"276 446 OFFCURVE",
"244 465 OFFCURVE",
"230 475 CURVE SMOOTH",
"216 485 OFFCURVE",
"194 502 OFFCURVE",
"186 516 CURVE SMOOTH",
"178 529 OFFCURVE",
"170 546 OFFCURVE",
"170 562 CURVE SMOOTH",
"170 632 OFFCURVE",
"227 675 OFFCURVE",
"304 675 CURVE SMOOTH",
"384 675 OFFCURVE",
"436 623 OFFCURVE",
"436 563 CURVE SMOOTH",
"436 525 OFFCURVE",
"421 492 OFFCURVE",
"397 468 CURVE SMOOTH",
"374 444 OFFCURVE",
"353 430 OFFCURVE",
"327 418 CURVE"
);
}
);
width = 603;
}
);
note = eight;
unicode = 0038;
},
{
glyphname = nine;
lastChange = "2017-06-04 21:18:45 +0000";
layers = (
{
layerId = "EE746D13-63D7-48F9-B77E-C723CA6A668B";
paths = (
{
closed = 1;
nodes = (
"262 -138 OFFCURVE",
"291 -134 OFFCURVE",
"319 -126 CURVE SMOOTH",
"375 -110 OFFCURVE",
"432 -72 OFFCURVE",
"473 -17 CURVE SMOOTH",
"513 38 OFFCURVE",
"540 125 OFFCURVE",
"540 230 CURVE SMOOTH",
"540 433 OFFCURVE",
"444 539 OFFCURVE",
"294 539 CURVE SMOOTH",
"250 539 OFFCURVE",
"211 530 OFFCURVE",
"175 512 CURVE SMOOTH",
"103 475 OFFCURVE",
"59 407 OFFCURVE",
"59 329 CURVE SMOOTH",
"59 299 OFFCURVE",
"63 272 OFFCURVE",
"73 248 CURVE SMOOTH",
"91 200 OFFCURVE",
"121 171 OFFCURVE",
"162 150 CURVE SMOOTH",
"203 129 OFFCURVE",
"245 121 OFFCURVE",
"292 121 CURVE SMOOTH",
"350 121 OFFCURVE",
"413 141 OFFCURVE",
"447 178 CURVE",
"438 116 OFFCURVE",
"414 55 OFFCURVE",
"377 4 CURVE SMOOTH",
"341 -47 OFFCURVE",
"286 -83 OFFCURVE",
"226 -87 CURVE",
"226 -85 OFFCURVE",
"227 -83 OFFCURVE",
"228 -78 CURVE SMOOTH",
"229 -68 OFFCURVE",
"231 -58 OFFCURVE",
"231 -46 CURVE SMOOTH",
"231 -15 OFFCURVE",
"200 13 OFFCURVE",
"167 13 CURVE SMOOTH",
"126 13 OFFCURVE",
"101 -13 OFFCURVE",
"101 -56 CURVE SMOOTH",
"101 -104 OFFCURVE",
"158 -138 OFFCURVE",
"232 -138 CURVE SMOOTH"
);
},
{
closed = 1;
nodes = (
"210 185 OFFCURVE",
"158 235 OFFCURVE",
"158 333 CURVE SMOOTH",
"158 417 OFFCURVE",
"218 478 OFFCURVE",
"294 478 CURVE SMOOTH",
"317 478 OFFCURVE",
"338 474 OFFCURVE",
"356 464 CURVE SMOOTH",
"393 446 OFFCURVE",
"412 418 OFFCURVE",
"426 381 CURVE SMOOTH",
"439 343 OFFCURVE",
"444 310 OFFCURVE",
"444 275 CURVE SMOOTH",
"444 256 OFFCURVE",
"436 240 OFFCURVE",
"420 226 CURVE SMOOTH",
"388 198 OFFCURVE",
"344 185 OFFCURVE",
"305 185 CURVE SMOOTH"
);
}
);
width = 605;
}
);
note = nine;
unicode = 0039;
},
{
glyphname = onesuperior;
lastChange = "2017-06-04 21:18:45 +0000";
layers = (
{
layerId = "EE746D13-63D7-48F9-B77E-C723CA6A668B";
paths = (
{
closed = 1;
nodes = (
"267 354 LINE",
"267 396 LINE",
"206 396 LINE",
"206 750 LINE",
"70 712 LINE",
"70 660 LINE",
"135 677 LINE",
"135 396 LINE",
"70 396 LINE",
"70 354 LINE"
);
}
);
width = 332;
}
);
note = onesuperior;
unicode = 00B9;
},
{
glyphname = twosuperior;
lastChange = "2017-06-04 21:18:45 +0000";
layers = (
{
layerId = "EE746D13-63D7-48F9-B77E-C723CA6A668B";
paths = (
{
closed = 1;
nodes = (
"391 294 LINE",
"377 404 LINE",
"185 404 LINE",
"283 476 LINE SMOOTH",
"350 525 OFFCURVE",
"379 573 OFFCURVE",
"379 610 CURVE SMOOTH",
"379 698 OFFCURVE",
"323 750 OFFCURVE",
"233 750 CURVE SMOOTH",
"140 750 OFFCURVE",
"62 696 OFFCURVE",
"62 635 CURVE SMOOTH",
"62 633 LINE",
"63 602 OFFCURVE",
"83 574 OFFCURVE",
"122 574 CURVE SMOOTH",
"155 574 OFFCURVE",
"178 595 OFFCURVE",
"178 628 CURVE SMOOTH",
"178 652 OFFCURVE",
"161 667 OFFCURVE",
"143 673 CURVE",
"163 696 OFFCURVE",
"189 708 OFFCURVE",
"221 708 CURVE SMOOTH",
"266 708 OFFCURVE",
"305 665 OFFCURVE",
"305 616 CURVE SMOOTH",
"305 582 OFFCURVE",
"280 543 OFFCURVE",
"240 508 CURVE SMOOTH",
"199 472 OFFCURVE",
"167 449 OFFCURVE",
"121 419 CURVE SMOOTH",
"98 404 OFFCURVE",
"83 394 OFFCURVE",
"76 388 CURVE",
"76 388 OFFCURVE",
"79 374 OFFCURVE",
"83 344 CURVE",
"332 344 LINE",
"366 290 LINE"
);
}
);
width = 451;
}
);
note = twosuperior;
unicode = 00B2;
},
{
glyphname = threesuperior;
lastChange = "2017-06-04 21:18:45 +0000";
layers = (
{
layerId = "EE746D13-63D7-48F9-B77E-C723CA6A668B";
paths = (
{
closed = 1;
nodes = (
"272 333 OFFCURVE",
"344 389 OFFCURVE",
"344 463 CURVE SMOOTH",
"344 522 OFFCURVE",
"301 566 OFFCURVE",
"221 566 CURVE",
"277 577 OFFCURVE",
"312 613 OFFCURVE",
"312 655 CURVE SMOOTH",
"312 707 OFFCURVE",
"268 750 OFFCURVE",
"188 750 CURVE SMOOTH",
"115 750 OFFCURVE",
"55 702 OFFCURVE",
"55 653 CURVE SMOOTH",
"55 625 OFFCURVE",
"71 602 OFFCURVE",
"103 602 CURVE SMOOTH",
"128 602 OFFCURVE",
"149 621 OFFCURVE",
"149 646 CURVE SMOOTH",
"149 672 OFFCURVE",
"131 684 OFFCURVE",
"110 688 CURVE",
"131 708 OFFCURVE",
"155 717 OFFCURVE",
"181 717 CURVE SMOOTH",
"222 717 OFFCURVE",
"253 690 OFFCURVE",
"253 651 CURVE SMOOTH",
"253 609 OFFCURVE",
"221 581 OFFCURVE",
"157 571 CURVE",
"164 534 LINE",
"175 536 OFFCURVE",
"185 537 OFFCURVE",
"194 537 CURVE SMOOTH",
"207 537 OFFCURVE",
"218 536 OFFCURVE",
"227 533 CURVE SMOOTH",
"246 526 OFFCURVE",
"256 517 OFFCURVE",
"263 503 CURVE SMOOTH",
"270 490 OFFCURVE",
"271 477 OFFCURVE",
"271 461 CURVE SMOOTH",
"271 410 OFFCURVE",
"229 369 OFFCURVE",
"168 369 CURVE SMOOTH",
"160 369 OFFCURVE",
"150 370 OFFCURVE",
"139 372 CURVE",
"144 379 OFFCURVE",
"146 389 OFFCURVE",
"146 400 CURVE SMOOTH",
"146 421 OFFCURVE",
"129 438 OFFCURVE",
"104 438 CURVE SMOOTH",
"77 438 OFFCURVE",
"63 420 OFFCURVE",
"63 395 CURVE SMOOTH",
"63 356 OFFCURVE",
"109 333 OFFCURVE",
"167 333 CURVE SMOOTH"
);
}
);
width = 397;
}
);
note = threesuperior;
unicode = 00B3;
},
{
glyphname = uni2074;
lastChange = "2017-06-04 21:18:45 +0000";
layers = (
{
layerId = "EE746D13-63D7-48F9-B77E-C723CA6A668B";
paths = (
{
closed = 1;
nodes = (
"363 408 LINE",
"363 450 LINE",
"299 450 LINE",
"299 539 LINE",
"363 539 LINE",
"363 580 LINE",
"299 580 LINE",
"299 801 LINE",
"222 801 LINE",
"67 584 LINE",
"67 539 LINE",
"238 539 LINE",
"238 450 LINE",
"167 450 LINE",
"167 408 LINE"
);
},
{
closed = 1;
nodes = (
"238 748 LINE",
"238 580 LINE",
"123 580 LINE"
);
}
);
width = 432;
}
);
note = uni2074;
unicode = 2074;
},
{
glyphname = fraction;
lastChange = "2017-06-04 21:18:45 +0000";
layers = (
{
layerId = "EE746D13-63D7-48F9-B77E-C723CA6A668B";
paths = (
{
closed = 1;
nodes = (
"600 693 LINE",
"551 722 LINE",
"31 -1 LINE",
"80 -30 LINE"
);
}
);
width = 630;
}
);
note = fraction;
unicode = 2044;
},
{
glyphname = onehalf;
lastChange = "2017-06-04 21:18:45 +0000";
layers = (
{
layerId = "EE746D13-63D7-48F9-B77E-C723CA6A668B";
paths = (
{
closed = 1;
nodes = (
"644 693 LINE",
"595 722 LINE",
"75 -1 LINE",
"124 -30 LINE"
);
},
{
closed = 1;
nodes = (
"231 366 LINE",
"231 408 LINE",
"170 408 LINE",
"170 762 LINE",
"34 724 LINE",
"34 672 LINE",
"99 689 LINE",
"99 408 LINE",
"34 408 LINE",
"34 366 LINE"
);
},
{
closed = 1;
nodes = (
"782 -50 LINE",
"769 60 LINE",
"576 60 LINE",
"674 132 LINE SMOOTH",
"741 181 OFFCURVE",
"771 229 OFFCURVE",
"771 266 CURVE SMOOTH",
"771 354 OFFCURVE",
"715 406 OFFCURVE",
"625 406 CURVE SMOOTH",
"531 406 OFFCURVE",
"453 352 OFFCURVE",
"453 291 CURVE SMOOTH",
"453 289 LINE",
"455 257 OFFCURVE",
"474 230 OFFCURVE",
"513 230 CURVE SMOOTH",
"546 230 OFFCURVE",
"569 251 OFFCURVE",
"569 284 CURVE SMOOTH",
"569 308 OFFCURVE",
"552 323 OFFCURVE",
"534 329 CURVE",
"554 352 OFFCURVE",
"581 364 OFFCURVE",
"612 364 CURVE SMOOTH",
"657 364 OFFCURVE",
"696 321 OFFCURVE",
"696 272 CURVE SMOOTH",
"696 237 OFFCURVE",
"672 199 OFFCURVE",
"631 164 CURVE SMOOTH",
"590 128 OFFCURVE",
"558 105 OFFCURVE",
"512 75 CURVE SMOOTH",
"489 60 OFFCURVE",
"474 49 OFFCURVE",
"467 44 CURVE",
"468 44 OFFCURVE",
"470 29 OFFCURVE",
"474 0 CURVE",
"723 0 LINE",
"757 -54 LINE"
);
}
);
width = 814;
}
);
note = onehalf;
unicode = 00BD;
},
{
glyphname = onequarter;
lastChange = "2017-06-04 21:18:45 +0000";
layers = (
{
layerId = "EE746D13-63D7-48F9-B77E-C723CA6A668B";
paths = (
{
closed = 1;
nodes = (
"644 693 LINE",
"595 722 LINE",
"75 -1 LINE",
"124 -30 LINE"
);
},
{
closed = 1;
nodes = (
"231 366 LINE",
"231 408 LINE",
"170 408 LINE",
"170 762 LINE",
"34 724 LINE",
"34 672 LINE",
"99 689 LINE",
"99 408 LINE",
"34 408 LINE",
"34 366 LINE"
);
},
{
closed = 1;
nodes = (
"712 0 LINE",
"712 42 LINE",
"648 42 LINE",
"648 131 LINE",
"712 131 LINE",
"712 172 LINE",
"648 172 LINE",
"648 393 LINE",
"571 393 LINE",
"417 176 LINE",
"417 131 LINE",
"587 131 LINE",
"587 42 LINE",
"516 42 LINE",
"516 0 LINE"
);
},
{
closed = 1;
nodes = (
"587 340 LINE",
"587 172 LINE",
"472 172 LINE"
);
}
);
width = 745;
}
);
note = onequarter;
unicode = 00BC;
},
{
glyphname = threequarters;
lastChange = "2017-06-04 21:18:45 +0000";
layers = (
{
layerId = "EE746D13-63D7-48F9-B77E-C723CA6A668B";
paths = (
{
closed = 1;
nodes = (
"667 693 LINE",
"619 722 LINE",
"99 -1 LINE",
"147 -30 LINE"
);
},
{
closed = 1;
nodes = (
"250 356 OFFCURVE",
"322 412 OFFCURVE",
"322 486 CURVE SMOOTH",
"322 545 OFFCURVE",
"279 589 OFFCURVE",
"199 589 CURVE",
"255 600 OFFCURVE",
"290 636 OFFCURVE",
"290 678 CURVE SMOOTH",
"290 729 OFFCURVE",
"246 773 OFFCURVE",
"166 773 CURVE SMOOTH",
"93 773 OFFCURVE",
"33 725 OFFCURVE",
"33 676 CURVE SMOOTH",
"33 648 OFFCURVE",
"49 625 OFFCURVE",
"81 625 CURVE SMOOTH",
"106 625 OFFCURVE",
"127 644 OFFCURVE",
"127 669 CURVE SMOOTH",
"127 695 OFFCURVE",
"109 707 OFFCURVE",
"88 711 CURVE",
"109 730 OFFCURVE",
"133 740 OFFCURVE",
"159 740 CURVE SMOOTH",
"200 740 OFFCURVE",
"231 713 OFFCURVE",
"231 674 CURVE SMOOTH",
"231 632 OFFCURVE",
"199 604 OFFCURVE",
"135 594 CURVE",
"142 557 LINE",
"153 559 OFFCURVE",
"163 560 OFFCURVE",
"172 560 CURVE SMOOTH",
"224 560 OFFCURVE",
"250 535 OFFCURVE",
"250 486 CURVE SMOOTH",
"250 434 OFFCURVE",
"209 392 OFFCURVE",
"146 392 CURVE SMOOTH",
"138 392 OFFCURVE",
"128 393 OFFCURVE",
"117 395 CURVE",
"122 402 OFFCURVE",
"125 412 OFFCURVE",
"125 423 CURVE SMOOTH",
"125 444 OFFCURVE",
"107 461 OFFCURVE",
"83 461 CURVE SMOOTH",
"55 461 OFFCURVE",
"41 443 OFFCURVE",
"41 418 CURVE SMOOTH",
"41 379 OFFCURVE",
"87 356 OFFCURVE",
"146 356 CURVE SMOOTH"
);
},
{
closed = 1;
nodes = (
"736 0 LINE",
"736 42 LINE",
"672 42 LINE",
"672 131 LINE",
"736 131 LINE",
"736 172 LINE",
"672 172 LINE",
"672 393 LINE",
"595 393 LINE",
"440 176 LINE",
"440 131 LINE",
"611 131 LINE",
"611 42 LINE",
"540 42 LINE",
"540 0 LINE"
);
},
{
closed = 1;
nodes = (
"611 340 LINE",
"611 172 LINE",
"496 172 LINE"
);
}
);
width = 770;
}
);
note = threequarters;
unicode = 00BE;
},
{
glyphname = asterisk;
lastChange = "2017-06-04 21:18:45 +0000";
layers = (
{
layerId = "EE746D13-63D7-48F9-B77E-C723CA6A668B";
paths = (
{
closed = 1;
nodes = (
"354 417 LINE",
"499 180 LINE",
"583 255 LINE",
"396 449 LINE",
"649 528 LINE",
"609 623 LINE",
"376 490 LINE",
"408 750 LINE",
"301 750 LINE",
"333 490 LINE",
"100 623 LINE",
"60 528 LINE",
"313 449 LINE",
"126 255 LINE",
"210 180 LINE"
);
}
);
width = 710;
}
);
note = asterisk;
unicode = 002A;
},
{
glyphname = backslash;
lastChange = "2017-06-04 21:18:45 +0000";
layers = (
{
layerId = "EE746D13-63D7-48F9-B77E-C723CA6A668B";
paths = (
{
closed = 1;
nodes = (
"369 762 LINE",
"311 780 LINE",
"31 -65 LINE",
"89 -83 LINE"
);
}
);
width = 400;
}
);
note = backslash;
unicode = 005C;
},
{
glyphname = periodcentered;
lastChange = "2017-06-04 21:18:45 +0000";
layers = (
{
layerId = "EE746D13-63D7-48F9-B77E-C723CA6A668B";
paths = (
{
closed = 1;
nodes = (
"202 379 OFFCURVE",
"236 412 OFFCURVE",
"236 451 CURVE SMOOTH",
"236 491 OFFCURVE",
"202 524 OFFCURVE",
"163 524 CURVE SMOOTH",
"124 524 OFFCURVE",
"91 492 OFFCURVE",
"91 451 CURVE SMOOTH",
"91 412 OFFCURVE",
"124 379 OFFCURVE",
"163 379 CURVE SMOOTH"
);
}
);
width = 327;
}
);
note = periodcentered;
unicode = 00B7;
},
{
glyphname = bullet;
lastChange = "2017-06-04 21:18:45 +0000";
layers = (
{
layerId = "EE746D13-63D7-48F9-B77E-C723CA6A668B";
paths = (
{
closed = 1;
nodes = (
"318 226 OFFCURVE",
"378 296 OFFCURVE",
"378 380 CURVE SMOOTH",
"378 464 OFFCURVE",
"318 533 OFFCURVE",
"225 533 CURVE SMOOTH",
"130 533 OFFCURVE",
"70 464 OFFCURVE",
"70 380 CURVE SMOOTH",
"70 294 OFFCURVE",
"131 226 OFFCURVE",
"225 226 CURVE SMOOTH"
);
}
);
width = 449;
}
);
note = bullet;
unicode = 2022;
},
{
glyphname = colon;
lastChange = "2017-06-04 21:18:45 +0000";
layers = (
{
layerId = "EE746D13-63D7-48F9-B77E-C723CA6A668B";
paths = (
{
closed = 1;
nodes = (
"183 378 OFFCURVE",
"216 411 OFFCURVE",
"216 450 CURVE SMOOTH",
"216 490 OFFCURVE",
"183 523 OFFCURVE",
"144 523 CURVE SMOOTH",
"104 523 OFFCURVE",
"71 491 OFFCURVE",
"71 450 CURVE SMOOTH",
"71 411 OFFCURVE",
"104 378 OFFCURVE",
"144 378 CURVE SMOOTH"
);
},
{
closed = 1;
nodes = (
"183 0 OFFCURVE",
"216 33 OFFCURVE",
"216 72 CURVE SMOOTH",
"216 111 OFFCURVE",
"183 145 OFFCURVE",
"144 145 CURVE SMOOTH",
"104 145 OFFCURVE",
"71 112 OFFCURVE",
"71 72 CURVE SMOOTH",
"71 33 OFFCURVE",
"104 0 OFFCURVE",
"144 0 CURVE SMOOTH"
);
}
);
width = 287;
}
);
leftKerningGroup = colon;
note = colon;
unicode = 003A;
},
{
glyphname = comma;
lastChange = "2017-06-04 21:18:45 +0000";
layers = (
{
layerId = "EE746D13-63D7-48F9-B77E-C723CA6A668B";
paths = (
{
closed = 1;
nodes = (
"141 -121 OFFCURVE",
"143 -120 OFFCURVE",
"145 -119 CURVE",
"205 -78 OFFCURVE",
"233 -23 OFFCURVE",
"233 27 CURVE SMOOTH",
"233 92 OFFCURVE",
"188 129 OFFCURVE",
"141 129 CURVE SMOOTH",
"105 129 OFFCURVE",
"68 96 OFFCURVE",
"68 59 CURVE SMOOTH",
"68 26 OFFCURVE",
"99 -6 OFFCURVE",
"133 -6 CURVE SMOOTH",
"147 -6 OFFCURVE",
"161 -2 OFFCURVE",
"174 6 CURVE",
"176 2 OFFCURVE",
"178 -2 OFFCURVE",
"178 -8 CURVE SMOOTH",
"178 -33 OFFCURVE",
"146 -66 OFFCURVE",
"115 -85 CURVE",
"139 -123 LINE"
);
}
);
width = 301;
}
);
leftKerningGroup = comma;
note = comma;
unicode = 002C;
},
{
glyphname = exclam;
lastChange = "2017-06-04 21:18:45 +0000";
layers = (
{
layerId = "EE746D13-63D7-48F9-B77E-C723CA6A668B";
paths = (
{
closed = 1;
nodes = (
"230 220 LINE",
"276 722 LINE",
"149 722 LINE",
"195 220 LINE"
);
},
{
closed = 1;
nodes = (
"253 -10 OFFCURVE",
"287 23 OFFCURVE",
"287 62 CURVE SMOOTH",
"287 102 OFFCURVE",
"253 135 OFFCURVE",
"214 135 CURVE SMOOTH",
"174 135 OFFCURVE",
"142 103 OFFCURVE",
"142 62 CURVE SMOOTH",
"142 23 OFFCURVE",
"174 -10 OFFCURVE",
"214 -10 CURVE SMOOTH"
);
}
);
width = 418;
}
);
note = exclam;
unicode = 0021;
},
{
glyphname = exclamdown;
lastChange = "2017-06-04 21:18:45 +0000";
layers = (
{
layerId = "EE746D13-63D7-48F9-B77E-C723CA6A668B";
paths = (
{
closed = 1;
nodes = (
"280 0 LINE",
"234 502 LINE",
"199 502 LINE",
"153 0 LINE"
);
},
{
closed = 1;
nodes = (
"287 699 OFFCURVE",
"255 732 OFFCURVE",
"215 732 CURVE SMOOTH",
"176 732 OFFCURVE",
"142 699 OFFCURVE",
"142 660 CURVE SMOOTH",
"142 621 OFFCURVE",
"176 587 OFFCURVE",
"215 587 CURVE SMOOTH",
"255 587 OFFCURVE",
"287 620 OFFCURVE",
"287 660 CURVE SMOOTH"
);
}
);
width = 418;
}
);
note = exclamdown;
unicode = 00A1;
},
{
glyphname = numbersign;
lastChange = "2017-06-04 21:18:45 +0000";
layers = (
{
layerId = "EE746D13-63D7-48F9-B77E-C723CA6A668B";
paths = (
{
closed = 1;
nodes = (
"212 282 LINE",
"372 282 LINE",
"256 -65 LINE",
"314 -83 LINE",
"436 282 LINE",
"570 282 LINE",
"570 315 LINE",
"446 315 LINE",
"504 491 LINE",
"629 491 LINE",
"629 524 LINE",
"515 524 LINE",
"594 762 LINE",
"537 780 LINE",
"452 524 LINE",
"292 524 LINE",
"372 762 LINE",
"313 780 LINE",
"229 524 LINE",
"99 524 LINE",
"99 491 LINE",
"218 491 LINE",
"159 315 LINE",
"40 315 LINE",
"40 282 LINE",
"148 282 LINE",
"33 -65 LINE",
"91 -83 LINE"
);
},
{
closed = 1;
nodes = (
"282 491 LINE",
"441 491 LINE",
"382 315 LINE",
"223 315 LINE"
);
}
);
width = 659;
}
);
note = numbersign;
unicode = 0023;
},
{
glyphname = period;
lastChange = "2017-06-04 21:18:45 +0000";
layers = (
{
layerId = "EE746D13-63D7-48F9-B77E-C723CA6A668B";
paths = (
{
closed = 1;
nodes = (
"182 -10 OFFCURVE",
"216 23 OFFCURVE",
"216 62 CURVE SMOOTH",
"216 102 OFFCURVE",
"182 135 OFFCURVE",
"143 135 CURVE SMOOTH",
"104 135 OFFCURVE",
"71 103 OFFCURVE",
"71 62 CURVE SMOOTH",
"71 23 OFFCURVE",
"104 -10 OFFCURVE",
"143 -10 CURVE SMOOTH"
);
}
);
width = 288;
}
);
leftKerningGroup = period;
note = period;
unicode = 002E;
},
{
glyphname = question;
lastChange = "2017-06-04 21:18:45 +0000";
layers = (
{
layerId = "EE746D13-63D7-48F9-B77E-C723CA6A668B";
paths = (
{
closed = 1;
nodes = (
"240 198 LINE",
"254 243 OFFCURVE",
"293 290 OFFCURVE",
"332 327 CURVE SMOOTH",
"351 346 OFFCURVE",
"370 365 OFFCURVE",
"389 386 CURVE SMOOTH",
"425 428 OFFCURVE",
"452 484 OFFCURVE",
"452 548 CURVE SMOOTH",
"452 579 OFFCURVE",
"448 606 OFFCURVE",
"438 630 CURVE SMOOTH",
"420 679 OFFCURVE",
"392 705 OFFCURVE",
"355 725 CURVE SMOOTH",
"319 744 OFFCURVE",
"287 750 OFFCURVE",
"258 750 CURVE SMOOTH",
"219 750 OFFCURVE",
"183 744 OFFCURVE",
"150 730 CURVE SMOOTH",
"85 705 OFFCURVE",
"40 649 OFFCURVE",
"40 577 CURVE SMOOTH",
"40 539 OFFCURVE",
"74 500 OFFCURVE",
"125 500 CURVE SMOOTH",
"167 500 OFFCURVE",
"196 530 OFFCURVE",
"196 572 CURVE SMOOTH",
"196 582 OFFCURVE",
"194 590 OFFCURVE",
"191 598 CURVE SMOOTH",
"184 613 OFFCURVE",
"174 622 OFFCURVE",
"160 627 CURVE SMOOTH",
"146 633 OFFCURVE",
"135 635 OFFCURVE",
"123 635 CURVE",
"141 676 OFFCURVE",
"183 699 OFFCURVE",
"227 699 CURVE SMOOTH",
"258 699 OFFCURVE",
"286 688 OFFCURVE",
"310 667 CURVE SMOOTH",
"333 645 OFFCURVE",
"347 608 OFFCURVE",
"347 563 CURVE SMOOTH",
"347 514 OFFCURVE",
"325 468 OFFCURVE",
"298 429 CURVE SMOOTH",
"284 409 OFFCURVE",
"271 389 OFFCURVE",
"257 368 CURVE SMOOTH",
"230 327 OFFCURVE",
"208 266 OFFCURVE",
"208 198 CURVE"
);
},
{
closed = 1;
nodes = (
"261 -10 OFFCURVE",
"295 23 OFFCURVE",
"295 62 CURVE SMOOTH",
"295 102 OFFCURVE",
"261 135 OFFCURVE",
"222 135 CURVE SMOOTH",
"183 135 OFFCURVE",
"150 103 OFFCURVE",
"150 62 CURVE SMOOTH",
"150 23 OFFCURVE",
"183 -10 OFFCURVE",
"222 -10 CURVE SMOOTH"
);
}
);
width = 493;
}
);
note = question;
unicode = 003F;
},
{
glyphname = questiondown;
lastChange = "2017-06-04 21:18:45 +0000";
layers = (
{
layerId = "EE746D13-63D7-48F9-B77E-C723CA6A668B";
paths = (
{
closed = 1;
nodes = (
"238 494 OFFCURVE",
"199 447 OFFCURVE",
"160 410 CURVE SMOOTH",
"141 391 OFFCURVE",
"122 372 OFFCURVE",
"104 351 CURVE SMOOTH",
"67 309 OFFCURVE",
"40 252 OFFCURVE",
"40 188 CURVE SMOOTH",
"40 158 OFFCURVE",
"45 131 OFFCURVE",
"54 107 CURVE SMOOTH",
"73 58 OFFCURVE",
"101 32 OFFCURVE",
"137 12 CURVE SMOOTH",
"173 -7 OFFCURVE",
"205 -13 OFFCURVE",
"234 -13 CURVE SMOOTH",
"273 -13 OFFCURVE",
"309 -7 OFFCURVE",
"342 6 CURVE SMOOTH",
"407 32 OFFCURVE",
"452 88 OFFCURVE",
"452 160 CURVE SMOOTH",
"452 198 OFFCURVE",
"418 237 OFFCURVE",
"367 237 CURVE SMOOTH",
"326 237 OFFCURVE",
"296 207 OFFCURVE",
"296 165 CURVE SMOOTH",
"296 155 OFFCURVE",
"298 146 OFFCURVE",
"302 139 CURVE SMOOTH",
"309 124 OFFCURVE",
"318 115 OFFCURVE",
"332 109 CURVE SMOOTH",
"346 104 OFFCURVE",
"357 102 OFFCURVE",
"369 102 CURVE",
"351 61 OFFCURVE",
"310 38 OFFCURVE",
"265 38 CURVE SMOOTH",
"234 38 OFFCURVE",
"206 49 OFFCURVE",
"183 70 CURVE SMOOTH",
"160 92 OFFCURVE",
"145 129 OFFCURVE",
"145 174 CURVE SMOOTH",
"145 223 OFFCURVE",
"167 269 OFFCURVE",
"194 308 CURVE SMOOTH",
"208 328 OFFCURVE",
"222 348 OFFCURVE",
"235 369 CURVE SMOOTH",
"262 410 OFFCURVE",
"284 471 OFFCURVE",
"284 539 CURVE",
"252 539 LINE"
);
},
{
closed = 1;
nodes = (
"231 747 OFFCURVE",
"197 714 OFFCURVE",
"197 675 CURVE SMOOTH",
"197 635 OFFCURVE",
"231 602 OFFCURVE",
"270 602 CURVE SMOOTH",
"310 602 OFFCURVE",
"342 634 OFFCURVE",
"342 675 CURVE SMOOTH",
"342 714 OFFCURVE",
"310 747 OFFCURVE",
"270 747 CURVE SMOOTH"
);
}
);
width = 493;
}
);
note = questiondown;
unicode = 00BF;
},
{
glyphname = quotedbl;
lastChange = "2017-06-04 21:18:45 +0000";
layers = (
{
layerId = "EE746D13-63D7-48F9-B77E-C723CA6A668B";
paths = (
{
closed = 1;
nodes = (
"249 490 OFFCURVE",
"254 494 OFFCURVE",
"255 502 CURVE SMOOTH",
"281 711 LINE",
"281 737 OFFCURVE",
"267 750 OFFCURVE",
"240 750 CURVE SMOOTH",
"213 750 OFFCURVE",
"198 734 OFFCURVE",
"198 711 CURVE SMOOTH",
"198 709 OFFCURVE",
"207 640 OFFCURVE",
"224 502 CURVE SMOOTH",
"225 494 OFFCURVE",
"230 490 OFFCURVE",
"240 490 CURVE SMOOTH"
);
},
{
closed = 1;
nodes = (
"121 490 OFFCURVE",
"126 494 OFFCURVE",
"127 502 CURVE SMOOTH",
"153 711 LINE",
"153 737 OFFCURVE",
"139 750 OFFCURVE",
"112 750 CURVE SMOOTH",
"85 750 OFFCURVE",
"70 734 OFFCURVE",
"70 711 CURVE SMOOTH",
"70 709 OFFCURVE",
"79 640 OFFCURVE",
"96 502 CURVE SMOOTH",
"97 494 OFFCURVE",
"102 490 OFFCURVE",
"112 490 CURVE SMOOTH"
);
}
);
width = 350;
}
);
note = quotedbl;
unicode = 0022;
},
{
glyphname = quotesingle;
lastChange = "2017-06-04 21:18:45 +0000";
layers = (
{
layerId = "EE746D13-63D7-48F9-B77E-C723CA6A668B";
paths = (
{
closed = 1;
nodes = (
"130 490 OFFCURVE",
"153 666 OFFCURVE",
"153 711 CURVE SMOOTH",
"153 737 OFFCURVE",
"139 750 OFFCURVE",
"112 750 CURVE SMOOTH",
"85 750 OFFCURVE",
"70 734 OFFCURVE",
"70 711 CURVE SMOOTH",
"70 663 OFFCURVE",
"92 490 OFFCURVE",
"112 490 CURVE SMOOTH"
);
}
);
width = 222;
}
);
note = quotesingle;
unicode = 0027;
},
{
glyphname = semicolon;
lastChange = "2017-06-04 21:18:45 +0000";
layers = (
{
layerId = "EE746D13-63D7-48F9-B77E-C723CA6A668B";
paths = (
{
closed = 1;
nodes = (
"167 -75 OFFCURVE",
"179 -64 OFFCURVE",
"197 -39 CURVE SMOOTH",
"215 -14 OFFCURVE",
"221 7 OFFCURVE",
"221 34 CURVE SMOOTH",
"221 95 OFFCURVE",
"185 131 OFFCURVE",
"140 131 CURVE SMOOTH",
"103 131 OFFCURVE",
"68 100 OFFCURVE",
"68 64 CURVE SMOOTH",
"68 33 OFFCURVE",
"97 2 OFFCURVE",
"128 2 CURVE SMOOTH",
"141 2 OFFCURVE",
"154 6 OFFCURVE",
"166 14 CURVE",
"168 10 OFFCURVE",
"170 5 OFFCURVE",
"170 0 CURVE SMOOTH",
"170 -24 OFFCURVE",
"141 -56 OFFCURVE",
"112 -73 CURVE",
"134 -109 LINE"
);
},
{
closed = 1;
nodes = (
"179 378 OFFCURVE",
"213 411 OFFCURVE",
"213 450 CURVE SMOOTH",
"213 490 OFFCURVE",
"179 523 OFFCURVE",
"140 523 CURVE SMOOTH",
"100 523 OFFCURVE",
"68 491 OFFCURVE",
"68 450 CURVE SMOOTH",
"68 411 OFFCURVE",
"100 378 OFFCURVE",
"140 378 CURVE SMOOTH"
);
}
);
width = 288;
}
);
leftKerningGroup = semicolon;
note = semicolon;
unicode = 003B;
},
{
glyphname = slash;
lastChange = "2017-06-04 21:18:45 +0000";
layers = (
{
layerId = "EE746D13-63D7-48F9-B77E-C723CA6A668B";
paths = (
{
closed = 1;
nodes = (
"369 762 LINE",
"311 780 LINE",
"31 -65 LINE",
"89 -83 LINE"
);
}
);
width = 400;
}
);
note = slash;
unicode = 002F;
},
{
glyphname = underscore;
lastChange = "2017-06-04 21:18:45 +0000";
layers = (
{
layerId = "EE746D13-63D7-48F9-B77E-C723CA6A668B";
paths = (
{
closed = 1;
nodes = (
"365 -62 LINE",
"365 5 LINE",
"-4 5 LINE",
"-4 -62 LINE"
);
}
);
width = 361;
}
);
note = underscore;
unicode = 005F;
},
{
glyphname = braceleft;
lastChange = "2017-06-04 21:18:45 +0000";
layers = (
{
layerId = "EE746D13-63D7-48F9-B77E-C723CA6A668B";
paths = (
{
closed = 1;
nodes = (
"388 -121 LINE",
"362 -121 OFFCURVE",
"342 -119 OFFCURVE",
"325 -113 CURVE SMOOTH",
"308 -107 OFFCURVE",
"295 -102 OFFCURVE",
"286 -88 CURVE SMOOTH",
"276 -74 OFFCURVE",
"269 -65 OFFCURVE",
"265 -43 CURVE SMOOTH",
"260 -21 OFFCURVE",
"258 -7 OFFCURVE",
"256 24 CURVE SMOOTH",
"255 55 OFFCURVE",
"255 75 OFFCURVE",
"255 115 CURVE SMOOTH",
"255 163 OFFCURVE",
"254 189 OFFCURVE",
"251 219 CURVE SMOOTH",
"247 248 OFFCURVE",
"242 263 OFFCURVE",
"231 278 CURVE SMOOTH",
"220 293 OFFCURVE",
"206 300 OFFCURVE",
"184 305 CURVE",
"206 311 OFFCURVE",
"220 317 OFFCURVE",
"231 333 CURVE SMOOTH",
"242 348 OFFCURVE",
"247 362 OFFCURVE",
"251 392 CURVE SMOOTH",
"254 421 OFFCURVE",
"255 448 OFFCURVE",
"255 495 CURVE SMOOTH",
"255 536 OFFCURVE",
"255 567 OFFCURVE",
"257 588 CURVE SMOOTH",
"259 629 OFFCURVE",
"267 681 OFFCURVE",
"286 700 CURVE SMOOTH",
"305 718 OFFCURVE",
"336 731 OFFCURVE",
"388 731 CURVE",
"388 773 LINE",
"318 773 OFFCURVE",
"268 765 OFFCURVE",
"232 744 CURVE SMOOTH",
"196 723 OFFCURVE",
"174 698 OFFCURVE",
"161 654 CURVE SMOOTH",
"148 609 OFFCURVE",
"145 565 OFFCURVE",
"145 495 CURVE SMOOTH",
"145 482 OFFCURVE",
"145 466 OFFCURVE",
"145 448 CURVE SMOOTH",
"145 411 LINE SMOOTH",
"145 347 OFFCURVE",
"139 338 OFFCURVE",
"88 338 CURVE SMOOTH",
"32 338 LINE",
"32 272 LINE",
"88 272 LINE SMOOTH",
"139 272 OFFCURVE",
"145 263 OFFCURVE",
"145 199 CURVE SMOOTH",
"145 162 LINE SMOOTH",
"145 144 OFFCURVE",
"145 128 OFFCURVE",
"145 115 CURVE SMOOTH",
"145 45 OFFCURVE",
"148 1 OFFCURVE",
"161 -43 CURVE SMOOTH",
"174 -88 OFFCURVE",
"196 -113 OFFCURVE",
"232 -134 CURVE SMOOTH",
"268 -155 OFFCURVE",
"318 -163 OFFCURVE",
"388 -163 CURVE"
);
}
);
width = 421;
}
);
note = braceleft;
unicode = 007B;
},
{
glyphname = braceright;
lastChange = "2017-06-04 21:18:45 +0000";
layers = (
{
layerId = "EE746D13-63D7-48F9-B77E-C723CA6A668B";
paths = (
{
closed = 1;
nodes = (
"104 -163 OFFCURVE",
"155 -155 OFFCURVE",
"190 -134 CURVE SMOOTH",
"226 -113 OFFCURVE",
"249 -88 OFFCURVE",
"261 -43 CURVE SMOOTH",
"274 1 OFFCURVE",
"277 45 OFFCURVE",
"277 115 CURVE SMOOTH",
"277 156 OFFCURVE",
"277 174 OFFCURVE",
"279 200 CURVE SMOOTH",
"280 226 OFFCURVE",
"282 234 OFFCURVE",
"287 249 CURVE SMOOTH",
"292 262 OFFCURVE",
"298 265 OFFCURVE",
"308 271 CURVE SMOOTH",
"318 276 OFFCURVE",
"330 276 OFFCURVE",
"348 276 CURVE SMOOTH",
"391 276 LINE",
"391 334 LINE",
"348 334 LINE SMOOTH",
"330 334 OFFCURVE",
"318 334 OFFCURVE",
"308 340 CURVE",
"298 345 OFFCURVE",
"292 348 OFFCURVE",
"287 362 CURVE SMOOTH",
"282 376 OFFCURVE",
"280 385 OFFCURVE",
"279 411 CURVE SMOOTH",
"277 437 OFFCURVE",
"277 454 OFFCURVE",
"277 495 CURVE SMOOTH",
"277 525 OFFCURVE",
"276 550 OFFCURVE",
"275 572 CURVE SMOOTH",
"271 616 OFFCURVE",
"263 659 OFFCURVE",
"248 687 CURVE SMOOTH",
"232 714 OFFCURVE",
"209 739 OFFCURVE",
"174 752 CURVE SMOOTH",
"140 766 OFFCURVE",
"95 773 OFFCURVE",
"35 773 CURVE",
"35 731 LINE",
"61 731 OFFCURVE",
"82 728 OFFCURVE",
"98 722 CURVE SMOOTH",
"130 710 OFFCURVE",
"149 697 OFFCURVE",
"158 652 CURVE SMOOTH",
"167 608 OFFCURVE",
"167 577 OFFCURVE",
"167 495 CURVE SMOOTH",
"167 369 OFFCURVE",
"194 321 OFFCURVE",
"261 305 CURVE",
"194 290 OFFCURVE",
"167 242 OFFCURVE",
"167 115 CURVE SMOOTH",
"167 75 OFFCURVE",
"167 55 OFFCURVE",
"166 24 CURVE SMOOTH",
"165 -7 OFFCURVE",
"162 -21 OFFCURVE",
"158 -43 CURVE SMOOTH",
"153 -65 OFFCURVE",
"146 -74 OFFCURVE",
"137 -88 CURVE SMOOTH",
"127 -102 OFFCURVE",
"115 -107 OFFCURVE",
"98 -113 CURVE SMOOTH",
"81 -119 OFFCURVE",
"61 -121 OFFCURVE",
"35 -121 CURVE",
"35 -163 LINE"
);
}
);
width = 421;
}
);
note = braceright;
unicode = 007D;
},
{
glyphname = bracketleft;
lastChange = "2017-06-04 21:18:45 +0000";
layers = (
{
layerId = "EE746D13-63D7-48F9-B77E-C723CA6A668B";
paths = (
{
closed = 1;
nodes = (
"438 -120 LINE",
"438 -53 LINE",
"188 -53 LINE",
"188 715 LINE",
"438 715 LINE",
"438 782 LINE",
"74 782 LINE",
"74 -120 LINE"
);
}
);
width = 508;
}
);
note = bracketleft;
unicode = 005B;
},
{
glyphname = bracketright;
lastChange = "2017-06-04 21:18:45 +0000";
layers = (
{
layerId = "EE746D13-63D7-48F9-B77E-C723CA6A668B";
paths = (
{
closed = 1;
nodes = (
"435 -120 LINE",
"435 782 LINE",
"71 782 LINE",
"71 715 LINE",
"320 715 LINE",
"320 -53 LINE",
"71 -53 LINE",
"71 -120 LINE"
);
}
);
width = 508;
}
);
note = bracketright;
unicode = 005D;
},
{
glyphname = parenleft;
lastChange = "2017-06-04 21:18:45 +0000";
layers = (
{
layerId = "EE746D13-63D7-48F9-B77E-C723CA6A668B";
paths = (
{
closed = 1;
nodes = (
"328 -70 LINE",
"269 -59 OFFCURVE",
"219 -4 OFFCURVE",
"190 71 CURVE SMOOTH",
"161 146 OFFCURVE",
"145 236 OFFCURVE",
"145 326 CURVE SMOOTH",
"145 416 OFFCURVE",
"161 506 OFFCURVE",
"190 581 CURVE SMOOTH",
"219 656 OFFCURVE",
"269 711 OFFCURVE",
"328 722 CURVE",
"328 764 LINE",
"234 755 OFFCURVE",
"155 696 OFFCURVE",
"108 612 CURVE SMOOTH",
"61 529 OFFCURVE",
"35 428 OFFCURVE",
"35 326 CURVE SMOOTH",
"35 224 OFFCURVE",
"61 123 OFFCURVE",
"108 40 CURVE SMOOTH",
"155 -43 OFFCURVE",
"234 -103 OFFCURVE",
"328 -112 CURVE"
);
}
);
width = 360;
}
);
note = parenleft;
unicode = 0028;
},
{
glyphname = parenright;
lastChange = "2017-06-04 21:18:45 +0000";
layers = (
{
layerId = "EE746D13-63D7-48F9-B77E-C723CA6A668B";
paths = (
{
closed = 1;
nodes = (
"127 -103 OFFCURVE",
"206 -43 OFFCURVE",
"253 40 CURVE SMOOTH",
"300 124 OFFCURVE",
"326 225 OFFCURVE",
"326 326 CURVE SMOOTH",
"326 428 OFFCURVE",
"300 530 OFFCURVE",
"253 613 CURVE SMOOTH",
"206 696 OFFCURVE",
"127 755 OFFCURVE",
"33 764 CURVE",
"33 722 LINE",
"92 711 OFFCURVE",
"142 656 OFFCURVE",
"171 582 CURVE SMOOTH",
"200 507 OFFCURVE",
"216 417 OFFCURVE",
"216 326 CURVE SMOOTH",
"216 236 OFFCURVE",
"200 146 OFFCURVE",
"171 71 CURVE SMOOTH",
"142 -3 OFFCURVE",
"92 -59 OFFCURVE",
"33 -70 CURVE",
"33 -112 LINE"
);
}
);
width = 360;
}
);
note = parenright;
unicode = 0029;
},
{
glyphname = hyphen;
lastChange = "2017-06-04 21:18:45 +0000";
layers = (
{
layerId = "EE746D13-63D7-48F9-B77E-C723CA6A668B";
paths = (
{
closed = 1;
nodes = (
"359 267 LINE",
"359 334 LINE",
"75 334 LINE",
"75 267 LINE"
);
}
);
width = 434;
}
);
leftKerningGroup = hyphen;
note = hyphen;
unicode = 002D;
},
{
glyphname = uni00AD;
lastChange = "2017-06-04 21:18:45 +0000";
layers = (
{
layerId = "EE746D13-63D7-48F9-B77E-C723CA6A668B";
paths = (
{
closed = 1;
nodes = (
"398 317 LINE",
"398 389 LINE",
"75 389 LINE",
"75 317 LINE"
);
}
);
width = 474;
}
);
note = uni00AD;
unicode = 00AD;
},
{
glyphname = guillemotleft;
lastChange = "2017-06-04 21:18:45 +0000";
layers = (
{
layerId = "EE746D13-63D7-48F9-B77E-C723CA6A668B";
paths = (
{
closed = 1;
nodes = (
"227 237 LINE",
"109 328 LINE",
"227 413 LINE",
"227 518 LINE",
"38 357 LINE",
"38 291 LINE",
"227 126 LINE"
);
},
{
closed = 1;
nodes = (
"431 237 LINE",
"313 328 LINE",
"431 413 LINE",
"431 518 LINE",
"242 357 LINE",
"242 291 LINE",
"431 126 LINE"
);
}
);
width = 472;
}
);
note = guillemotleft;
unicode = 00AB;
},
{
glyphname = guillemotright;
lastChange = "2017-06-04 21:18:45 +0000";
layers = (
{
layerId = "EE746D13-63D7-48F9-B77E-C723CA6A668B";
paths = (
{
closed = 1;
nodes = (
"434 291 LINE",
"434 357 LINE",
"245 518 LINE",
"245 413 LINE",
"362 328 LINE",
"245 237 LINE",
"245 126 LINE"
);
},
{
closed = 1;
nodes = (
"230 291 LINE",
"230 357 LINE",
"41 518 LINE",
"41 413 LINE",
"158 328 LINE",
"41 237 LINE",
"41 126 LINE"
);
}
);
width = 472;
}
);
note = guillemotright;
unicode = 00BB;
},
{
glyphname = guilsinglleft;
lastChange = "2017-06-04 21:18:45 +0000";
layers = (
{
layerId = "EE746D13-63D7-48F9-B77E-C723CA6A668B";
paths = (
{
closed = 1;
nodes = (
"227 237 LINE",
"110 328 LINE",
"227 413 LINE",
"227 518 LINE",
"199 494 OFFCURVE",
"136 440 OFFCURVE",
"38 357 CURVE",
"38 291 LINE",
"227 126 LINE"
);
}
);
width = 268;
}
);
note = guilsinglleft;
unicode = 2039;
},
{
glyphname = guilsinglright;
lastChange = "2017-06-04 21:18:45 +0000";
layers = (
{
layerId = "EE746D13-63D7-48F9-B77E-C723CA6A668B";
paths = (
{
closed = 1;
nodes = (
"230 291 LINE",
"230 357 LINE",
"41 518 LINE",
"41 413 LINE",
"158 328 LINE",
"41 237 LINE",
"41 126 LINE"
);
}
);
width = 268;
}
);
note = guilsinglright;
unicode = 203A;
},
{
glyphname = quotedblbase;
lastChange = "2017-06-04 21:18:45 +0000";
layers = (
{
layerId = "EE746D13-63D7-48F9-B77E-C723CA6A668B";
paths = (
{
closed = 1;
nodes = (
"247 -194 OFFCURVE",
"270 -26 OFFCURVE",
"270 17 CURVE SMOOTH",
"270 43 OFFCURVE",
"256 56 OFFCURVE",
"229 56 CURVE SMOOTH",
"202 56 OFFCURVE",
"187 40 OFFCURVE",
"187 17 CURVE SMOOTH",
"187 -29 OFFCURVE",
"209 -194 OFFCURVE",
"229 -194 CURVE SMOOTH"
);
},
{
closed = 1;
nodes = (
"130 -194 OFFCURVE",
"153 -26 OFFCURVE",
"153 17 CURVE SMOOTH",
"153 43 OFFCURVE",
"139 56 OFFCURVE",
"112 56 CURVE SMOOTH",
"85 56 OFFCURVE",
"70 40 OFFCURVE",
"70 17 CURVE SMOOTH",
"70 -27 OFFCURVE",
"93 -194 OFFCURVE",
"112 -194 CURVE SMOOTH"
);
}
);
width = 339;
}
);
note = quotedblbase;
unicode = 201E;
},
{
glyphname = quotedblleft;
lastChange = "2017-06-04 21:18:45 +0000";
layers = (
{
layerId = "EE746D13-63D7-48F9-B77E-C723CA6A668B";
paths = (
{
closed = 1;
nodes = (
"188 510 OFFCURVE",
"223 542 OFFCURVE",
"223 577 CURVE SMOOTH",
"223 608 OFFCURVE",
"193 639 OFFCURVE",
"163 639 CURVE SMOOTH",
"149 639 OFFCURVE",
"136 635 OFFCURVE",
"125 627 CURVE",
"122 630 OFFCURVE",
"121 635 OFFCURVE",
"121 641 CURVE SMOOTH",
"121 665 OFFCURVE",
"150 696 OFFCURVE",
"179 714 CURVE",
"157 750 LINE",
"126 719 LINE SMOOTH",
"114 707 OFFCURVE",
"91 680 OFFCURVE",
"84 665 CURVE SMOOTH",
"76 650 OFFCURVE",
"69 629 OFFCURVE",
"69 607 CURVE SMOOTH",
"69 545 OFFCURVE",
"112 510 OFFCURVE",
"154 510 CURVE SMOOTH"
);
},
{
closed = 1;
nodes = (
"363 510 OFFCURVE",
"397 542 OFFCURVE",
"397 577 CURVE SMOOTH",
"397 608 OFFCURVE",
"368 639 OFFCURVE",
"337 639 CURVE SMOOTH",
"324 639 OFFCURVE",
"311 635 OFFCURVE",
"299 627 CURVE",
"297 630 OFFCURVE",
"295 635 OFFCURVE",
"295 641 CURVE SMOOTH",
"295 665 OFFCURVE",
"325 696 OFFCURVE",
"354 714 CURVE",
"332 750 LINE",
"298 716 OFFCURVE",
"287 705 OFFCURVE",
"269 680 CURVE SMOOTH",
"250 655 OFFCURVE",
"245 634 OFFCURVE",
"245 607 CURVE SMOOTH",
"245 545 OFFCURVE",
"287 510 OFFCURVE",
"330 510 CURVE SMOOTH"
);
}
);
width = 465;
}
);
note = quotedblleft;
unicode = 201C;
},
{
glyphname = quotedblright;
lastChange = "2017-06-04 21:18:45 +0000";
layers = (
{
layerId = "EE746D13-63D7-48F9-B77E-C723CA6A668B";
paths = (
{
closed = 1;
nodes = (
"170 546 OFFCURVE",
"178 554 OFFCURVE",
"197 580 CURVE SMOOTH",
"216 605 OFFCURVE",
"221 625 OFFCURVE",
"221 653 CURVE SMOOTH",
"221 715 OFFCURVE",
"178 750 OFFCURVE",
"136 750 CURVE SMOOTH",
"102 750 OFFCURVE",
"68 718 OFFCURVE",
"68 683 CURVE SMOOTH",
"68 652 OFFCURVE",
"97 621 OFFCURVE",
"128 621 CURVE SMOOTH",
"142 621 OFFCURVE",
"155 625 OFFCURVE",
"166 633 CURVE",
"168 629 OFFCURVE",
"170 625 OFFCURVE",
"170 619 CURVE SMOOTH",
"170 595 OFFCURVE",
"141 563 OFFCURVE",
"112 546 CURVE",
"134 510 LINE"
);
},
{
closed = 1;
nodes = (
"345 545 OFFCURVE",
"354 554 OFFCURVE",
"373 580 CURVE SMOOTH",
"392 605 OFFCURVE",
"397 625 OFFCURVE",
"397 653 CURVE SMOOTH",
"397 715 OFFCURVE",
"354 750 OFFCURVE",
"312 750 CURVE SMOOTH",
"278 750 OFFCURVE",
"244 718 OFFCURVE",
"244 683 CURVE SMOOTH",
"244 652 OFFCURVE",
"273 621 OFFCURVE",
"304 621 CURVE SMOOTH",
"318 621 OFFCURVE",
"331 625 OFFCURVE",
"342 633 CURVE",
"345 629 OFFCURVE",
"346 625 OFFCURVE",
"346 619 CURVE SMOOTH",
"346 595 OFFCURVE",
"317 563 OFFCURVE",
"288 546 CURVE",
"310 510 LINE"
);
}
);
width = 466;
}
);
leftKerningGroup = quotedblright;
note = quotedblright;
unicode = 201D;
},
{
glyphname = quoteleft;
lastChange = "2017-06-04 21:18:45 +0000";
layers = (
{
layerId = "EE746D13-63D7-48F9-B77E-C723CA6A668B";
paths = (
{
closed = 1;
nodes = (
"188 510 OFFCURVE",
"222 542 OFFCURVE",
"222 577 CURVE SMOOTH",
"222 608 OFFCURVE",
"193 639 OFFCURVE",
"162 639 CURVE SMOOTH",
"149 639 OFFCURVE",
"136 635 OFFCURVE",
"125 627 CURVE",
"122 631 OFFCURVE",
"120 636 OFFCURVE",
"120 641 CURVE SMOOTH",
"120 665 OFFCURVE",
"149 696 OFFCURVE",
"178 714 CURVE",
"156 750 LINE",
"123 716 OFFCURVE",
"111 705 OFFCURVE",
"93 680 CURVE SMOOTH",
"75 655 OFFCURVE",
"69 634 OFFCURVE",
"69 607 CURVE SMOOTH",
"69 545 OFFCURVE",
"112 510 OFFCURVE",
"154 510 CURVE SMOOTH"
);
}
);
width = 290;
}
);
note = quoteleft;
unicode = 2018;
},
{
glyphname = quoteright;
lastChange = "2017-06-04 21:18:45 +0000";
layers = (
{
layerId = "EE746D13-63D7-48F9-B77E-C723CA6A668B";
paths = (
{
closed = 1;
nodes = (
"169 545 OFFCURVE",
"178 554 OFFCURVE",
"197 580 CURVE SMOOTH",
"216 605 OFFCURVE",
"221 625 OFFCURVE",
"221 653 CURVE SMOOTH",
"221 715 OFFCURVE",
"179 750 OFFCURVE",
"136 750 CURVE SMOOTH",
"103 750 OFFCURVE",
"68 718 OFFCURVE",
"68 683 CURVE SMOOTH",
"68 652 OFFCURVE",
"97 621 OFFCURVE",
"128 621 CURVE SMOOTH",
"142 621 OFFCURVE",
"155 625 OFFCURVE",
"166 633 CURVE",
"168 629 OFFCURVE",
"170 625 OFFCURVE",
"170 619 CURVE SMOOTH",
"170 595 OFFCURVE",
"141 563 OFFCURVE",
"112 546 CURVE",
"134 510 LINE"
);
}
);
width = 290;
}
);
leftKerningGroup = quoteright;
note = quoteright;
unicode = 2019;
},
{
glyphname = quotesinglbase;
lastChange = "2017-06-04 21:18:45 +0000";
layers = (
{
layerId = "EE746D13-63D7-48F9-B77E-C723CA6A668B";
paths = (
{
closed = 1;
nodes = (
"130 -194 OFFCURVE",
"153 -26 OFFCURVE",
"153 17 CURVE SMOOTH",
"153 43 OFFCURVE",
"139 56 OFFCURVE",
"112 56 CURVE SMOOTH",
"85 56 OFFCURVE",
"70 40 OFFCURVE",
"70 17 CURVE SMOOTH",
"70 -27 OFFCURVE",
"93 -194 OFFCURVE",
"112 -194 CURVE SMOOTH"
);
}
);
width = 222;
}
);
note = quotesinglbase;
unicode = 201A;
},
{
glyphname = Euro;
lastChange = "2017-06-04 21:18:45 +0000";
layers = (
{
layerId = "EE746D13-63D7-48F9-B77E-C723CA6A668B";
paths = (
{
closed = 1;
nodes = (
"641 -13 OFFCURVE",
"749 73 OFFCURVE",
"783 223 CURVE",
"718 255 LINE",
"707 212 OFFCURVE",
"683 170 OFFCURVE",
"648 136 CURVE SMOOTH",
"614 101 OFFCURVE",
"561 77 OFFCURVE",
"504 77 CURVE SMOOTH",
"391 77 OFFCURVE",
"309 155 OFFCURVE",
"272 264 CURVE",
"402 264 LINE",
"402 332 LINE",
"257 332 LINE",
"256 344 OFFCURVE",
"255 358 OFFCURVE",
"255 376 CURVE SMOOTH",
"255 385 OFFCURVE",
"255 399 OFFCURVE",
"257 417 CURVE",
"446 417 LINE",
"446 483 LINE",
"268 483 LINE",
"297 608 OFFCURVE",
"379 682 OFFCURVE",
"483 682 CURVE SMOOTH",
"565 682 OFFCURVE",
"630 643 OFFCURVE",
"662 594 CURVE",
"623 594 OFFCURVE",
"575 566 OFFCURVE",
"575 516 CURVE SMOOTH",
"575 466 OFFCURVE",
"609 435 OFFCURVE",
"658 435 CURVE SMOOTH",
"716 435 OFFCURVE",
"754 479 OFFCURVE",
"754 524 CURVE SMOOTH",
"754 567 OFFCURVE",
"741 606 OFFCURVE",
"714 641 CURVE SMOOTH",
"661 711 OFFCURVE",
"573 750 OFFCURVE",
"484 750 CURVE SMOOTH",
"310 750 OFFCURVE",
"181 646 OFFCURVE",
"140 483 CURVE",
"34 483 LINE",
"34 417 LINE",
"128 417 LINE",
"127 399 OFFCURVE",
"126 384 OFFCURVE",
"126 370 CURVE SMOOTH",
"126 357 OFFCURVE",
"126 344 OFFCURVE",
"127 332 CURVE",
"61 332 LINE",
"61 264 LINE",
"139 264 LINE",
"179 102 OFFCURVE",
"310 -13 OFFCURVE",
"473 -13 CURVE SMOOTH"
);
}
);
width = 813;
}
);
note = Euro;
unicode = 20AC;
},
{
glyphname = cent;
lastChange = "2017-06-04 21:18:45 +0000";
layers = (
{
layerId = "EE746D13-63D7-48F9-B77E-C723CA6A668B";
paths = (
{
closed = 1;
nodes = (
"316 -104 LINE",
"316 -13 LINE",
"423 -3 OFFCURVE",
"496 64 OFFCURVE",
"519 163 CURVE",
"464 181 LINE",
"458 160 OFFCURVE",
"441 136 OFFCURVE",
"417 111 CURVE SMOOTH",
"392 86 OFFCURVE",
"354 67 OFFCURVE",
"316 66 CURVE",
"316 483 LINE",
"318 483 LINE SMOOTH",
"369 483 OFFCURVE",
"410 458 OFFCURVE",
"431 424 CURVE",
"391 424 OFFCURVE",
"356 399 OFFCURVE",
"356 357 CURVE SMOOTH",
"356 315 OFFCURVE",
"389 288 OFFCURVE",
"431 288 CURVE SMOOTH",
"479 288 OFFCURVE",
"508 328 OFFCURVE",
"508 367 CURVE SMOOTH",
"508 420 OFFCURVE",
"482 466 OFFCURVE",
"445 493 CURVE SMOOTH",
"407 520 OFFCURVE",
"362 536 OFFCURVE",
"316 539 CURVE",
"316 630 LINE",
"273 630 LINE",
"273 538 LINE",
"223 534 OFFCURVE",
"179 518 OFFCURVE",
"143 489 CURVE SMOOTH",
"70 433 OFFCURVE",
"36 348 OFFCURVE",
"36 252 CURVE SMOOTH",
"36 99 OFFCURVE",
"137 -6 OFFCURVE",
"273 -14 CURVE",
"273 -104 LINE"
);
},
{
closed = 1;
nodes = (
"193 87 OFFCURVE",
"147 159 OFFCURVE",
"147 268 CURVE SMOOTH",
"147 299 OFFCURVE",
"151 329 OFFCURVE",
"160 357 CURVE SMOOTH",
"177 413 OFFCURVE",
"218 461 OFFCURVE",
"273 477 CURVE",
"273 70 LINE"
);
}
);
width = 560;
}
);
note = cent;
unicode = 00A2;
},
{
glyphname = currency;
lastChange = "2017-06-04 21:18:45 +0000";
layers = (
{
layerId = "EE746D13-63D7-48F9-B77E-C723CA6A668B";
paths = (
{
closed = 1;
nodes = (
"351 279 OFFCURVE",
"399 295 OFFCURVE",
"438 328 CURVE",
"484 282 LINE",
"513 311 LINE",
"467 357 LINE",
"498 397 OFFCURVE",
"514 445 OFFCURVE",
"514 498 CURVE SMOOTH",
"514 555 OFFCURVE",
"498 604 OFFCURVE",
"465 644 CURVE",
"513 692 LINE",
"484 721 LINE",
"436 673 LINE",
"397 705 OFFCURVE",
"350 721 OFFCURVE",
"293 721 CURVE SMOOTH",
"236 721 OFFCURVE",
"188 706 OFFCURVE",
"150 674 CURVE",
"103 721 LINE",
"74 692 LINE",
"120 646 LINE",
"86 605 OFFCURVE",
"70 556 OFFCURVE",
"70 500 CURVE SMOOTH",
"70 445 OFFCURVE",
"86 397 OFFCURVE",
"119 356 CURVE",
"74 311 LINE",
"103 282 LINE",
"148 327 LINE",
"189 295 OFFCURVE",
"238 279 OFFCURVE",
"294 279 CURVE SMOOTH"
);
},
{
closed = 1;
nodes = (
"202 335 OFFCURVE",
"139 397 OFFCURVE",
"139 498 CURVE SMOOTH",
"139 602 OFFCURVE",
"202 668 OFFCURVE",
"293 668 CURVE SMOOTH",
"338 668 OFFCURVE",
"375 653 OFFCURVE",
"404 622 CURVE SMOOTH",
"433 591 OFFCURVE",
"447 550 OFFCURVE",
"447 498 CURVE SMOOTH",
"447 398 OFFCURVE",
"384 335 OFFCURVE",
"294 335 CURVE SMOOTH"
);
}
);
width = 584;
}
);
note = currency;
unicode = 00A4;
},
{
glyphname = dollar;
lastChange = "2017-06-04 21:18:45 +0000";
layers = (
{
layerId = "EE746D13-63D7-48F9-B77E-C723CA6A668B";
paths = (
{
closed = 1;
nodes = (
"359 -93 LINE",
"359 -12 LINE",
"531 -4 OFFCURVE",
"617 65 OFFCURVE",
"617 188 CURVE SMOOTH",
"617 243 OFFCURVE",
"605 282 OFFCURVE",
"568 320 CURVE SMOOTH",
"531 358 OFFCURVE",
"464 388 OFFCURVE",
"359 414 CURVE",
"359 674 LINE",
"417 670 OFFCURVE",
"464 654 OFFCURVE",
"499 623 CURVE",
"463 623 OFFCURVE",
"432 599 OFFCURVE",
"432 547 CURVE SMOOTH",
"432 505 OFFCURVE",
"471 478 OFFCURVE",
"514 478 CURVE SMOOTH",
"567 478 OFFCURVE",
"597 519 OFFCURVE",
"597 576 CURVE SMOOTH",
"597 627 OFFCURVE",
"564 669 OFFCURVE",
"516 693 CURVE SMOOTH",
"467 717 OFFCURVE",
"414 731 OFFCURVE",
"359 735 CURVE",
"359 811 LINE",
"312 810 LINE",
"312 737 LINE",
"152 733 OFFCURVE",
"52 648 OFFCURVE",
"52 527 CURVE SMOOTH",
"52 479 OFFCURVE",
"65 441 OFFCURVE",
"102 404 CURVE SMOOTH",
"138 366 OFFCURVE",
"206 335 OFFCURVE",
"303 311 CURVE",
"307 310 OFFCURVE",
"310 309 OFFCURVE",
"312 309 CURVE",
"312 53 LINE",
"247 57 OFFCURVE",
"189 74 OFFCURVE",
"140 105 CURVE",
"183 110 OFFCURVE",
"209 133 OFFCURVE",
"209 176 CURVE SMOOTH",
"209 217 OFFCURVE",
"174 257 OFFCURVE",
"131 257 CURVE SMOOTH",
"84 257 OFFCURVE",
"43 218 OFFCURVE",
"43 164 CURVE SMOOTH",
"43 142 OFFCURVE",
"49 121 OFFCURVE",
"61 102 CURVE SMOOTH",
"83 63 OFFCURVE",
"122 39 OFFCURVE",
"169 19 CURVE SMOOTH",
"217 -1 OFFCURVE",
"266 -11 OFFCURVE",
"312 -13 CURVE",
"312 -94 LINE"
);
},
{
closed = 1;
nodes = (
"359 297 LINE",
"473 267 OFFCURVE",
"521 240 OFFCURVE",
"521 177 CURVE SMOOTH",
"521 104 OFFCURVE",
"454 59 OFFCURVE",
"362 53 CURVE",
"359 53 LINE"
);
},
{
closed = 1;
nodes = (
"284 431 OFFCURVE",
"261 438 OFFCURVE",
"241 446 CURVE SMOOTH",
"202 461 OFFCURVE",
"182 475 OFFCURVE",
"169 494 CURVE SMOOTH",
"156 513 OFFCURVE",
"154 528 OFFCURVE",
"154 550 CURVE SMOOTH",
"154 620 OFFCURVE",
"224 667 OFFCURVE",
"312 674 CURVE",
"312 425 LINE"
);
}
);
width = 681;
}
);
note = dollar;
unicode = 0024;
},
{
glyphname = florin;
lastChange = "2017-06-04 21:18:45 +0000";
layers = (
{
layerId = "EE746D13-63D7-48F9-B77E-C723CA6A668B";
paths = (
{
closed = 1;
nodes = (
"60 -190 OFFCURVE",
"106 -171 OFFCURVE",
"138 -128 CURVE SMOOTH",
"169 -85 OFFCURVE",
"186 -29 OFFCURVE",
"196 57 CURVE SMOOTH",
"247 467 LINE",
"399 467 LINE",
"410 524 LINE",
"250 524 LINE",
"260 597 LINE SMOOTH",
"272 694 OFFCURVE",
"290 732 OFFCURVE",
"344 732 CURVE SMOOTH",
"356 732 OFFCURVE",
"367 730 OFFCURVE",
"377 727 CURVE",
"358 706 OFFCURVE",
"349 686 OFFCURVE",
"349 666 CURVE SMOOTH",
"349 633 OFFCURVE",
"375 608 OFFCURVE",
"408 608 CURVE SMOOTH",
"453 608 OFFCURVE",
"490 634 OFFCURVE",
"490 689 CURVE SMOOTH",
"490 738 OFFCURVE",
"441 773 OFFCURVE",
"355 773 CURVE SMOOTH",
"286 773 OFFCURVE",
"239 754 OFFCURVE",
"208 711 CURVE SMOOTH",
"176 668 OFFCURVE",
"159 612 OFFCURVE",
"148 524 CURVE",
"53 524 LINE",
"46 467 LINE",
"142 467 LINE",
"82 -24 LINE SMOOTH",
"70 -112 OFFCURVE",
"40 -149 OFFCURVE",
"-18 -149 CURVE SMOOTH",
"-29 -149 OFFCURVE",
"-41 -147 OFFCURVE",
"-51 -143 CURVE",
"-24 -120 OFFCURVE",
"-10 -95 OFFCURVE",
"-10 -68 CURVE SMOOTH",
"-10 -36 OFFCURVE",
"-38 -15 OFFCURVE",
"-71 -15 CURVE SMOOTH",
"-116 -15 OFFCURVE",
"-154 -44 OFFCURVE",
"-154 -99 CURVE SMOOTH",
"-154 -150 OFFCURVE",
"-106 -190 OFFCURVE",
"-8 -190 CURVE SMOOTH"
);
}
);
width = 384;
}
);
note = florin;
unicode = 0192;
},
{
glyphname = sterling;
lastChange = "2017-06-04 21:18:45 +0000";
layers = (
{
layerId = "EE746D13-63D7-48F9-B77E-C723CA6A668B";
paths = (
{
closed = 1;
nodes = (
"542 0 LINE",
"542 242 LINE",
"451 242 LINE",
"451 57 LINE",
"168 57 LINE",
"223 122 OFFCURVE",
"268 227 OFFCURVE",
"268 323 CURVE",
"401 322 LINE",
"414 381 LINE",
"261 381 LINE",
"256 404 OFFCURVE",
"248 427 OFFCURVE",
"237 451 CURVE SMOOTH",
"214 498 OFFCURVE",
"196 535 OFFCURVE",
"196 577 CURVE SMOOTH",
"196 648 OFFCURVE",
"251 695 OFFCURVE",
"333 695 CURVE SMOOTH",
"375 695 OFFCURVE",
"409 681 OFFCURVE",
"436 652 CURVE",
"411 648 OFFCURVE",
"376 615 OFFCURVE",
"376 580 CURVE SMOOTH",
"376 539 OFFCURVE",
"415 511 OFFCURVE",
"458 511 CURVE SMOOTH",
"508 511 OFFCURVE",
"541 549 OFFCURVE",
"541 600 CURVE SMOOTH",
"541 690 OFFCURVE",
"446 750 OFFCURVE",
"329 750 CURVE SMOOTH",
"181 750 OFFCURVE",
"81 679 OFFCURVE",
"81 577 CURVE SMOOTH",
"81 536 OFFCURVE",
"99 501 OFFCURVE",
"121 454 CURVE SMOOTH",
"132 430 OFFCURVE",
"141 406 OFFCURVE",
"146 381 CURVE",
"80 381 LINE",
"69 322 LINE",
"153 322 LINE",
"153 223 OFFCURVE",
"110 133 OFFCURVE",
"52 66 CURVE",
"83 0 LINE"
);
}
);
width = 603;
}
);
note = sterling;
unicode = 00A3;
},
{
glyphname = yen;
lastChange = "2017-06-04 21:18:45 +0000";
layers = (
{
layerId = "EE746D13-63D7-48F9-B77E-C723CA6A668B";
paths = (
{
closed = 1;
nodes = (
"549 0 LINE",
"549 67 LINE",
"437 67 LINE",
"437 194 LINE",
"558 194 LINE",
"558 258 LINE",
"437 258 LINE",
"437 288 LINE",
"441 294 LINE",
"464 294 LINE SMOOTH",
"527 294 OFFCURVE",
"558 294 OFFCURVE",
"558 295 CURVE SMOOTH",
"558 359 LINE",
"478 359 LINE",
"656 665 LINE",
"748 665 LINE",
"748 735 LINE",
"452 735 LINE",
"452 665 LINE",
"561 665 LINE",
"391 362 LINE",
"226 665 LINE",
"338 665 LINE",
"338 735 LINE",
"11 735 LINE",
"11 665 LINE",
"111 665 LINE",
"283 359 LINE",
"194 359 LINE",
"194 295 LINE",
"277 294 OFFCURVE",
"319 294 OFFCURVE",
"319 294 CURVE",
"322 291 LINE",
"322 258 LINE",
"194 258 LINE",
"194 194 LINE",
"322 194 LINE",
"322 67 LINE",
"203 67 LINE",
"203 0 LINE"
);
}
);
width = 782;
}
);
note = yen;
unicode = 00A5;
},
{
glyphname = plus;
lastChange = "2017-06-04 21:18:45 +0000";
layers = (
{
layerId = "EE746D13-63D7-48F9-B77E-C723CA6A668B";
paths = (
{
closed = 1;
nodes = (
"317 76 LINE",
"317 260 LINE",
"479 260 LINE",
"479 332 LINE",
"317 332 LINE",
"317 511 LINE",
"234 511 LINE",
"234 332 LINE",
"72 332 LINE",
"72 260 LINE",
"234 260 LINE",
"234 76 LINE"
);
}
);
width = 552;
}
);
note = plus;
unicode = 002B;
},
{
glyphname = minus;
lastChange = "2017-06-04 21:18:45 +0000";
layers = (
{
layerId = "EE746D13-63D7-48F9-B77E-C723CA6A668B";
paths = (
{
closed = 1;
nodes = (
"359 267 LINE",
"359 347 LINE",
"75 347 LINE",
"75 267 LINE"
);
}
);
width = 434;
}
);
note = minus;
unicode = 2212;
},
{
glyphname = multiply;
lastChange = "2017-06-04 21:18:45 +0000";
layers = (
{
layerId = "EE746D13-63D7-48F9-B77E-C723CA6A668B";
paths = (
{
closed = 1;
nodes = (
"411 147 LINE",
"282 276 LINE",
"411 405 LINE",
"361 454 LINE",
"232 325 LINE",
"102 455 LINE",
"53 405 LINE",
"182 275 LINE",
"53 146 LINE",
"103 97 LINE",
"232 226 LINE",
"361 96 LINE"
);
}
);
width = 467;
}
);
note = multiply;
unicode = 00D7;
},
{
glyphname = divide;
lastChange = "2017-06-04 21:18:45 +0000";
layers = (
{
layerId = "EE746D13-63D7-48F9-B77E-C723CA6A668B";
paths = (
{
closed = 1;
nodes = (
"385 258 LINE",
"385 334 LINE",
"61 334 LINE",
"61 258 LINE"
);
},
{
closed = 1;
nodes = (
"263 68 OFFCURVE",
"292 97 OFFCURVE",
"292 131 CURVE SMOOTH",
"292 166 OFFCURVE",
"263 195 OFFCURVE",
"228 195 CURVE SMOOTH",
"193 195 OFFCURVE",
"165 166 OFFCURVE",
"165 131 CURVE SMOOTH",
"165 96 OFFCURVE",
"193 68 OFFCURVE",
"228 68 CURVE SMOOTH"
);
},
{
closed = 1;
nodes = (
"263 397 OFFCURVE",
"292 426 OFFCURVE",
"292 460 CURVE SMOOTH",
"292 495 OFFCURVE",
"263 524 OFFCURVE",
"228 524 CURVE SMOOTH",
"193 524 OFFCURVE",
"165 495 OFFCURVE",
"165 460 CURVE SMOOTH",
"165 425 OFFCURVE",
"193 397 OFFCURVE",
"228 397 CURVE SMOOTH"
);
}
);
width = 446;
}
);
note = divide;
unicode = 00F7;
},
{
glyphname = equal;
lastChange = "2017-06-04 21:18:45 +0000";
layers = (
{
layerId = "EE746D13-63D7-48F9-B77E-C723CA6A668B";
paths = (
{
closed = 1;
nodes = (
"416 175 LINE",
"416 242 LINE",
"75 242 LINE",
"75 175 LINE"
);
},
{
closed = 1;
nodes = (
"416 353 LINE",
"416 420 LINE",
"75 420 LINE",
"75 353 LINE"
);
}
);
width = 491;
}
);
note = equal;
unicode = 003D;
},
{
glyphname = notequal;
lastChange = "2017-06-04 21:18:45 +0000";
layers = (
{
layerId = "EE746D13-63D7-48F9-B77E-C723CA6A668B";
paths = (
{
closed = 1;
nodes = (
"207 180 LINE",
"465 180 LINE",
"465 247 LINE",
"255 247 LINE",
"334 358 LINE",
"465 358 LINE",
"465 425 LINE",
"383 425 LINE",
"473 550 LINE",
"424 580 LINE",
"313 425 LINE",
"76 425 LINE",
"76 358 LINE",
"265 358 LINE",
"185 247 LINE",
"76 247 LINE",
"76 180 LINE",
"137 180 LINE",
"45 53 LINE",
"94 24 LINE"
);
}
);
width = 524;
}
);
note = notequal;
unicode = 2260;
},
{
glyphname = greater;
lastChange = "2017-06-04 21:18:45 +0000";
layers = (
{
layerId = "EE746D13-63D7-48F9-B77E-C723CA6A668B";
paths = (
{
closed = 1;
nodes = (
"427 295 LINE",
"427 391 LINE",
"36 564 LINE",
"36 483 LINE",
"351 347 LINE",
"36 219 LINE",
"36 136 LINE"
);
}
);
width = 460;
}
);
note = greater;
unicode = 003E;
},
{
glyphname = less;
lastChange = "2017-06-04 21:18:45 +0000";
layers = (
{
layerId = "EE746D13-63D7-48F9-B77E-C723CA6A668B";
paths = (
{
closed = 1;
nodes = (
"425 219 LINE",
"110 347 LINE",
"425 483 LINE",
"425 564 LINE",
"34 391 LINE",
"34 295 LINE",
"425 136 LINE"
);
}
);
width = 460;
}
);
note = less;
unicode = 003C;
},
{
glyphname = greaterequal;
lastChange = "2017-06-04 21:18:45 +0000";
layers = (
{
layerId = "EE746D13-63D7-48F9-B77E-C723CA6A668B";
paths = (
{
closed = 1;
nodes = (
"463 295 LINE",
"463 391 LINE",
"72 564 LINE",
"72 483 LINE",
"387 347 LINE",
"72 219 LINE",
"72 136 LINE"
);
},
{
closed = 1;
nodes = (
"463 34 LINE",
"463 102 LINE",
"72 102 LINE",
"72 34 LINE"
);
}
);
width = 534;
}
);
note = greaterequal;
unicode = 2265;
},
{
glyphname = lessequal;
lastChange = "2017-06-04 21:18:45 +0000";
layers = (
{
layerId = "EE746D13-63D7-48F9-B77E-C723CA6A668B";
paths = (
{
closed = 1;
nodes = (
"462 219 LINE",
"147 347 LINE",
"462 483 LINE",
"462 564 LINE",
"71 391 LINE",
"71 295 LINE",
"462 136 LINE"
);
},
{
closed = 1;
nodes = (
"462 34 LINE",
"462 102 LINE",
"71 102 LINE",
"71 34 LINE"
);
}
);
width = 534;
}
);
note = lessequal;
unicode = 2264;
},
{
glyphname = plusminus;
lastChange = "2017-06-04 21:18:45 +0000";
layers = (
{
layerId = "EE746D13-63D7-48F9-B77E-C723CA6A668B";
paths = (
{
closed = 1;
nodes = (
"275 159 LINE",
"275 303 LINE",
"417 303 LINE",
"417 375 LINE",
"275 375 LINE",
"275 514 LINE",
"192 514 LINE",
"192 375 LINE",
"50 375 LINE",
"50 303 LINE",
"192 303 LINE",
"192 159 LINE"
);
},
{
closed = 1;
nodes = (
"417 0 LINE",
"417 72 LINE",
"50 72 LINE",
"50 0 LINE"
);
}
);
width = 467;
}
);
note = plusminus;
unicode = 00B1;
},
{
glyphname = approxequal;
lastChange = "2017-06-04 21:18:45 +0000";
layers = (
{
layerId = "EE746D13-63D7-48F9-B77E-C723CA6A668B";
paths = (
{
closed = 1;
nodes = (
"126 367 LINE",
"126 418 OFFCURVE",
"133 433 OFFCURVE",
"176 433 CURVE SMOOTH",
"187 433 OFFCURVE",
"207 428 OFFCURVE",
"236 417 CURVE SMOOTH",
"294 395 OFFCURVE",
"370 367 OFFCURVE",
"413 367 CURVE SMOOTH",
"458 367 OFFCURVE",
"486 375 OFFCURVE",
"508 398 CURVE SMOOTH",
"529 421 OFFCURVE",
"539 461 OFFCURVE",
"539 523 CURVE",
"478 523 LINE",
"478 472 OFFCURVE",
"471 453 OFFCURVE",
"428 453 CURVE SMOOTH",
"417 453 OFFCURVE",
"396 459 OFFCURVE",
"367 471 CURVE SMOOTH",
"309 494 OFFCURVE",
"233 524 OFFCURVE",
"191 524 CURVE SMOOTH",
"146 524 OFFCURVE",
"118 516 OFFCURVE",
"96 492 CURVE SMOOTH",
"74 469 OFFCURVE",
"65 429 OFFCURVE",
"65 367 CURVE"
);
},
{
closed = 1;
nodes = (
"126 168 LINE",
"126 218 OFFCURVE",
"133 233 OFFCURVE",
"176 233 CURVE SMOOTH",
"187 233 OFFCURVE",
"207 228 OFFCURVE",
"236 217 CURVE SMOOTH",
"294 195 OFFCURVE",
"370 168 OFFCURVE",
"413 168 CURVE SMOOTH",
"443 168 OFFCURVE",
"467 172 OFFCURVE",
"484 181 CURVE SMOOTH",
"519 197 OFFCURVE",
"539 241 OFFCURVE",
"539 323 CURVE",
"478 323 LINE",
"478 272 OFFCURVE",
"471 254 OFFCURVE",
"428 254 CURVE SMOOTH",
"417 254 OFFCURVE",
"396 260 OFFCURVE",
"367 271 CURVE SMOOTH",
"309 295 OFFCURVE",
"233 324 OFFCURVE",
"191 324 CURVE SMOOTH",
"161 324 OFFCURVE",
"137 320 OFFCURVE",
"120 312 CURVE SMOOTH",
"84 294 OFFCURVE",
"65 250 OFFCURVE",
"65 168 CURVE"
);
}
);
width = 603;
}
);
note = approxequal;
unicode = 2248;
},
{
glyphname = asciitilde;
lastChange = "2017-06-04 21:18:45 +0000";
layers = (
{
layerId = "EE746D13-63D7-48F9-B77E-C723CA6A668B";
paths = (
{
closed = 1;
nodes = (
"83 367 LINE",
"83 418 OFFCURVE",
"90 433 OFFCURVE",
"133 433 CURVE SMOOTH",
"144 433 OFFCURVE",
"164 428 OFFCURVE",
"193 417 CURVE SMOOTH",
"251 395 OFFCURVE",
"327 367 OFFCURVE",
"370 367 CURVE SMOOTH",
"415 367 OFFCURVE",
"443 375 OFFCURVE",
"465 398 CURVE SMOOTH",
"486 421 OFFCURVE",
"496 461 OFFCURVE",
"496 523 CURVE",
"435 523 LINE",
"435 472 OFFCURVE",
"428 453 OFFCURVE",
"385 453 CURVE SMOOTH",
"374 453 OFFCURVE",
"354 459 OFFCURVE",
"324 471 CURVE SMOOTH",
"266 494 OFFCURVE",
"190 524 OFFCURVE",
"148 524 CURVE SMOOTH",
"103 524 OFFCURVE",
"75 516 OFFCURVE",
"53 492 CURVE SMOOTH",
"31 469 OFFCURVE",
"22 429 OFFCURVE",
"22 367 CURVE"
);
}
);
width = 518;
}
);
note = asciitilde;
unicode = 007E;
},
{
glyphname = logicalnot;
lastChange = "2017-06-04 21:18:45 +0000";
layers = (
{
layerId = "EE746D13-63D7-48F9-B77E-C723CA6A668B";
paths = (
{
closed = 1;
nodes = (
"480 141 LINE",
"480 389 LINE",
"73 389 LINE",
"73 317 LINE",
"397 317 LINE",
"397 141 LINE"
);
}
);
width = 555;
}
);
note = logicalnot;
unicode = 00AC;
},
{
glyphname = infinity;
lastChange = "2017-06-04 21:18:45 +0000";
layers = (
{
layerId = "EE746D13-63D7-48F9-B77E-C723CA6A668B";
paths = (
{
closed = 1;
nodes = (
"311 98 OFFCURVE",
"366 143 OFFCURVE",
"417 218 CURVE",
"442 183 OFFCURVE",
"463 160 OFFCURVE",
"493 136 CURVE SMOOTH",
"523 113 OFFCURVE",
"558 101 OFFCURVE",
"599 101 CURVE SMOOTH",
"620 101 OFFCURVE",
"640 105 OFFCURVE",
"657 115 CURVE SMOOTH",
"692 133 OFFCURVE",
"712 162 OFFCURVE",
"726 197 CURVE SMOOTH",
"740 232 OFFCURVE",
"746 265 OFFCURVE",
"746 293 CURVE SMOOTH",
"746 340 OFFCURVE",
"736 380 OFFCURVE",
"714 418 CURVE SMOOTH",
"691 456 OFFCURVE",
"648 480 OFFCURVE",
"591 480 CURVE SMOOTH",
"513 480 OFFCURVE",
"452 435 OFFCURVE",
"396 362 CURVE",
"347 430 OFFCURVE",
"288 463 OFFCURVE",
"219 463 CURVE SMOOTH",
"197 463 OFFCURVE",
"177 459 OFFCURVE",
"159 452 CURVE SMOOTH",
"124 437 OFFCURVE",
"104 413 OFFCURVE",
"89 380 CURVE SMOOTH",
"75 346 OFFCURVE",
"70 313 OFFCURVE",
"70 276 CURVE SMOOTH",
"70 262 OFFCURVE",
"72 247 OFFCURVE",
"75 232 CURVE SMOOTH",
"81 202 OFFCURVE",
"97 166 OFFCURVE",
"121 141 CURVE SMOOTH",
"144 116 OFFCURVE",
"184 98 OFFCURVE",
"231 98 CURVE SMOOTH"
);
},
{
closed = 1;
nodes = (
"156 179 OFFCURVE",
"124 223 OFFCURVE",
"123 279 CURVE",
"123 282 LINE SMOOTH",
"123 311 OFFCURVE",
"128 336 OFFCURVE",
"143 358 CURVE SMOOTH",
"156 379 OFFCURVE",
"182 393 OFFCURVE",
"217 393 CURVE SMOOTH",
"264 393 OFFCURVE",
"310 364 OFFCURVE",
"355 306 CURVE",
"301 224 OFFCURVE",
"260 179 OFFCURVE",
"213 179 CURVE SMOOTH"
);
},
{
closed = 1;
nodes = (
"533 176 OFFCURVE",
"493 210 OFFCURVE",
"452 272 CURVE",
"454 274 OFFCURVE",
"458 280 OFFCURVE",
"464 291 CURVE SMOOTH",
"478 312 LINE SMOOTH",
"483 319 OFFCURVE",
"500 343 OFFCURVE",
"510 353 CURVE SMOOTH",
"519 362 OFFCURVE",
"537 379 OFFCURVE",
"551 386 CURVE SMOOTH",
"564 393 OFFCURVE",
"583 398 OFFCURVE",
"602 398 CURVE SMOOTH",
"634 398 OFFCURVE",
"659 384 OFFCURVE",
"673 361 CURVE SMOOTH",
"687 338 OFFCURVE",
"693 313 OFFCURVE",
"693 288 CURVE SMOOTH",
"693 285 LINE SMOOTH",
"693 221 OFFCURVE",
"660 176 OFFCURVE",
"597 176 CURVE SMOOTH"
);
}
);
width = 816;
}
);
note = infinity;
unicode = 221E;
},
{
glyphname = integral;
lastChange = "2017-06-04 21:18:45 +0000";
layers = (
{
layerId = "EE746D13-63D7-48F9-B77E-C723CA6A668B";
paths = (
{
closed = 1;
nodes = (
"232 -190 OFFCURVE",
"279 -171 OFFCURVE",
"310 -128 CURVE SMOOTH",
"341 -85 OFFCURVE",
"358 -29 OFFCURVE",
"369 57 CURVE SMOOTH",
"419 467 LINE SMOOTH",
"420 477 OFFCURVE",
"422 492 OFFCURVE",
"423 511 CURVE SMOOTH",
"426 548 OFFCURVE",
"429 573 OFFCURVE",
"433 610 CURVE SMOOTH",
"438 646 OFFCURVE",
"446 671 OFFCURVE",
"457 695 CURVE SMOOTH",
"467 719 OFFCURVE",
"485 732 OFFCURVE",
"506 732 CURVE SMOOTH",
"519 732 OFFCURVE",
"530 730 OFFCURVE",
"540 727 CURVE",
"521 706 OFFCURVE",
"512 686 OFFCURVE",
"512 666 CURVE SMOOTH",
"512 633 OFFCURVE",
"538 608 OFFCURVE",
"570 608 CURVE SMOOTH",
"616 608 OFFCURVE",
"653 634 OFFCURVE",
"653 689 CURVE SMOOTH",
"653 738 OFFCURVE",
"604 773 OFFCURVE",
"518 773 CURVE SMOOTH",
"453 773 OFFCURVE",
"408 754 OFFCURVE",
"378 711 CURVE SMOOTH",
"348 668 OFFCURVE",
"332 612 OFFCURVE",
"321 524 CURVE SMOOTH",
"254 -24 LINE SMOOTH",
"243 -112 OFFCURVE",
"217 -149 OFFCURVE",
"169 -149 CURVE SMOOTH",
"158 -149 OFFCURVE",
"146 -147 OFFCURVE",
"136 -143 CURVE",
"163 -120 OFFCURVE",
"177 -95 OFFCURVE",
"177 -68 CURVE SMOOTH",
"177 -36 OFFCURVE",
"149 -15 OFFCURVE",
"116 -15 CURVE SMOOTH",
"71 -15 OFFCURVE",
"33 -44 OFFCURVE",
"33 -100 CURVE SMOOTH",
"33 -151 OFFCURVE",
"76 -190 OFFCURVE",
"164 -190 CURVE SMOOTH"
);
}
);
width = 686;
}
);
note = integral;
unicode = 222B;
},
{
glyphname = Delta;
lastChange = "2017-06-04 21:18:45 +0000";
layers = (
{
layerId = "EE746D13-63D7-48F9-B77E-C723CA6A668B";
paths = (
{
closed = 1;
nodes = (
"512 92 LINE",
"338 610 LINE",
"243 610 LINE",
"60 92 LINE"
);
},
{
closed = 1;
nodes = (
"286 552 LINE",
"415 152 LINE",
"150 152 LINE"
);
}
);
width = 572;
}
);
note = Delta;
unicode = 2206;
},
{
glyphname = percent;
lastChange = "2017-06-04 21:18:45 +0000";
layers = (
{
layerId = "EE746D13-63D7-48F9-B77E-C723CA6A668B";
paths = (
{
closed = 1;
nodes = (
"722 693 LINE",
"673 722 LINE",
"153 -1 LINE",
"202 -30 LINE"
);
},
{
closed = 1;
nodes = (
"283 380 OFFCURVE",
"333 402 OFFCURVE",
"362 436 CURVE SMOOTH",
"392 470 OFFCURVE",
"408 513 OFFCURVE",
"408 558 CURVE SMOOTH",
"408 604 OFFCURVE",
"392 647 OFFCURVE",
"362 682 CURVE SMOOTH",
"332 716 OFFCURVE",
"281 738 OFFCURVE",
"221 738 CURVE SMOOTH",
"161 738 OFFCURVE",
"111 715 OFFCURVE",
"81 682 CURVE SMOOTH",
"51 648 OFFCURVE",
"34 604 OFFCURVE",
"34 559 CURVE SMOOTH",
"34 513 OFFCURVE",
"51 470 OFFCURVE",
"81 436 CURVE SMOOTH",
"110 402 OFFCURVE",
"162 380 OFFCURVE",
"222 380 CURVE SMOOTH"
);
},
{
closed = 1;
nodes = (
"154 426 OFFCURVE",
"110 492 OFFCURVE",
"110 565 CURVE SMOOTH",
"110 637 OFFCURVE",
"150 694 OFFCURVE",
"221 694 CURVE SMOOTH",
"292 694 OFFCURVE",
"333 636 OFFCURVE",
"333 564 CURVE SMOOTH",
"333 491 OFFCURVE",
"289 426 OFFCURVE",
"222 426 CURVE SMOOTH"
);
},
{
closed = 1;
nodes = (
"710 -18 OFFCURVE",
"760 4 OFFCURVE",
"790 38 CURVE SMOOTH",
"819 72 OFFCURVE",
"835 115 OFFCURVE",
"835 160 CURVE SMOOTH",
"835 206 OFFCURVE",
"819 250 OFFCURVE",
"789 284 CURVE SMOOTH",
"759 318 OFFCURVE",
"708 340 OFFCURVE",
"648 340 CURVE SMOOTH",
"588 340 OFFCURVE",
"539 317 OFFCURVE",
"508 284 CURVE SMOOTH",
"478 250 OFFCURVE",
"461 207 OFFCURVE",
"461 161 CURVE SMOOTH",
"461 115 OFFCURVE",
"478 72 OFFCURVE",
"508 38 CURVE SMOOTH",
"538 4 OFFCURVE",
"589 -18 OFFCURVE",
"649 -18 CURVE SMOOTH"
);
},
{
closed = 1;
nodes = (
"582 28 OFFCURVE",
"537 94 OFFCURVE",
"537 167 CURVE SMOOTH",
"537 238 OFFCURVE",
"578 296 OFFCURVE",
"648 296 CURVE SMOOTH",
"719 296 OFFCURVE",
"759 238 OFFCURVE",
"759 166 CURVE SMOOTH",
"759 93 OFFCURVE",
"716 28 OFFCURVE",
"649 28 CURVE SMOOTH"
);
}
);
width = 869;
}
);
note = percent;
unicode = 0025;
},
{
glyphname = perthousand;
lastChange = "2017-06-04 21:18:45 +0000";
layers = (
{
layerId = "EE746D13-63D7-48F9-B77E-C723CA6A668B";
paths = (
{
closed = 1;
nodes = (
"722 693 LINE",
"673 722 LINE",
"153 -1 LINE",
"202 -30 LINE"
);
},
{
closed = 1;
nodes = (
"283 380 OFFCURVE",
"333 402 OFFCURVE",
"362 436 CURVE SMOOTH",
"392 470 OFFCURVE",
"408 513 OFFCURVE",
"408 558 CURVE SMOOTH",
"408 604 OFFCURVE",
"392 647 OFFCURVE",
"362 682 CURVE SMOOTH",
"332 716 OFFCURVE",
"281 738 OFFCURVE",
"221 738 CURVE SMOOTH",
"161 738 OFFCURVE",
"111 715 OFFCURVE",
"81 682 CURVE SMOOTH",
"51 648 OFFCURVE",
"34 604 OFFCURVE",
"34 559 CURVE SMOOTH",
"34 513 OFFCURVE",
"51 470 OFFCURVE",
"81 436 CURVE SMOOTH",
"110 402 OFFCURVE",
"162 380 OFFCURVE",
"222 380 CURVE SMOOTH"
);
},
{
closed = 1;
nodes = (
"154 426 OFFCURVE",
"110 492 OFFCURVE",
"110 565 CURVE SMOOTH",
"110 637 OFFCURVE",
"150 694 OFFCURVE",
"221 694 CURVE SMOOTH",
"292 694 OFFCURVE",
"333 636 OFFCURVE",
"333 564 CURVE SMOOTH",
"333 491 OFFCURVE",
"289 426 OFFCURVE",
"222 426 CURVE SMOOTH"
);
},
{
closed = 1;
nodes = (
"710 -18 OFFCURVE",
"760 4 OFFCURVE",
"790 38 CURVE SMOOTH",
"819 72 OFFCURVE",
"835 115 OFFCURVE",
"835 160 CURVE SMOOTH",
"835 206 OFFCURVE",
"819 250 OFFCURVE",
"789 284 CURVE SMOOTH",
"759 318 OFFCURVE",
"708 340 OFFCURVE",
"648 340 CURVE SMOOTH",
"588 340 OFFCURVE",
"539 317 OFFCURVE",
"508 284 CURVE SMOOTH",
"478 250 OFFCURVE",
"461 207 OFFCURVE",
"461 161 CURVE SMOOTH",
"461 115 OFFCURVE",
"478 72 OFFCURVE",
"508 38 CURVE SMOOTH",
"538 4 OFFCURVE",
"589 -18 OFFCURVE",
"649 -18 CURVE SMOOTH"
);
},
{
closed = 1;
nodes = (
"582 28 OFFCURVE",
"537 94 OFFCURVE",
"537 167 CURVE SMOOTH",
"537 238 OFFCURVE",
"578 296 OFFCURVE",
"648 296 CURVE SMOOTH",
"719 296 OFFCURVE",
"759 238 OFFCURVE",
"759 166 CURVE SMOOTH",
"759 93 OFFCURVE",
"716 28 OFFCURVE",
"649 28 CURVE SMOOTH"
);
}
);
width = 869;
}
);
note = perthousand;
unicode = 2030;
},
{
glyphname = lozenge;
lastChange = "2017-06-04 21:18:45 +0000";
layers = (
{
layerId = "EE746D13-63D7-48F9-B77E-C723CA6A668B";
paths = (
{
closed = 1;
nodes = (
"305 61 LINE",
"469 344 LINE",
"319 628 LINE",
"224 628 LINE",
"60 344 LINE",
"209 61 LINE"
);
},
{
closed = 1;
nodes = (
"141 344 LINE",
"268 569 LINE",
"388 344 LINE",
"261 110 LINE"
);
}
);
width = 530;
}
);
note = lozenge;
unicode = 25CA;
},
{
glyphname = at;
lastChange = "2017-06-04 21:18:45 +0000";
layers = (
{
layerId = "EE746D13-63D7-48F9-B77E-C723CA6A668B";
paths = (
{
closed = 1;
nodes = (
"483 -14 OFFCURVE",
"593 18 OFFCURVE",
"658 65 CURVE",
"658 66 OFFCURVE",
"648 80 OFFCURVE",
"628 105 CURVE",
"573 66 OFFCURVE",
"479 42 OFFCURVE",
"408 42 CURVE SMOOTH",
"302 42 OFFCURVE",
"216 76 OFFCURVE",
"166 130 CURVE SMOOTH",
"115 185 OFFCURVE",
"89 254 OFFCURVE",
"89 332 CURVE SMOOTH",
"89 367 OFFCURVE",
"94 401 OFFCURVE",
"104 436 CURVE SMOOTH",
"124 505 OFFCURVE",
"165 569 OFFCURVE",
"220 616 CURVE SMOOTH",
"274 664 OFFCURVE",
"353 694 OFFCURVE",
"438 694 CURVE SMOOTH",
"491 694 OFFCURVE",
"539 681 OFFCURVE",
"583 654 CURVE SMOOTH",
"668 601 OFFCURVE",
"718 506 OFFCURVE",
"718 399 CURVE SMOOTH",
"718 372 OFFCURVE",
"715 347 OFFCURVE",
"710 324 CURVE SMOOTH",
"698 277 OFFCURVE",
"680 248 OFFCURVE",
"659 226 CURVE SMOOTH",
"638 204 OFFCURVE",
"618 194 OFFCURVE",
"602 194 CURVE SMOOTH",
"575 194 OFFCURVE",
"561 213 OFFCURVE",
"561 253 CURVE SMOOTH",
"561 268 OFFCURVE",
"580 376 OFFCURVE",
"618 578 CURVE",
"540 578 LINE",
"538 569 OFFCURVE",
"532 553 OFFCURVE",
"523 529 CURVE",
"504 547 LINE SMOOTH",
"479 572 OFFCURVE",
"440 602 OFFCURVE",
"425 602 CURVE SMOOTH",
"362 602 OFFCURVE",
"299 561 OFFCURVE",
"257 504 CURVE SMOOTH",
"214 447 OFFCURVE",
"186 373 OFFCURVE",
"186 307 CURVE SMOOTH",
"186 254 OFFCURVE",
"203 214 OFFCURVE",
"228 191 CURVE SMOOTH",
"253 169 OFFCURVE",
"283 158 OFFCURVE",
"314 158 CURVE SMOOTH",
"333 158 OFFCURVE",
"351 160 OFFCURVE",
"367 164 CURVE SMOOTH",
"398 171 OFFCURVE",
"419 183 OFFCURVE",
"438 205 CURVE SMOOTH",
"457 226 OFFCURVE",
"467 246 OFFCURVE",
"481 277 CURVE",
"485 190 OFFCURVE",
"521 149 OFFCURVE",
"590 149 CURVE SMOOTH",
"652 149 OFFCURVE",
"705 178 OFFCURVE",
"737 224 CURVE SMOOTH",
"769 271 OFFCURVE",
"787 332 OFFCURVE",
"787 398 CURVE SMOOTH",
"787 432 OFFCURVE",
"783 465 OFFCURVE",
"774 498 CURVE SMOOTH",
"756 564 OFFCURVE",
"717 627 OFFCURVE",
"663 674 CURVE SMOOTH",
"609 720 OFFCURVE",
"528 750 OFFCURVE",
"434 750 CURVE SMOOTH",
"326 750 OFFCURVE",
"220 704 OFFCURVE",
"144 632 CURVE SMOOTH",
"68 561 OFFCURVE",
"18 456 OFFCURVE",
"18 345 CURVE SMOOTH",
"18 245 OFFCURVE",
"53 156 OFFCURVE",
"116 91 CURVE SMOOTH",
"179 26 OFFCURVE",
"280 -14 OFFCURVE",
"399 -14 CURVE SMOOTH"
);
},
{
closed = 1;
nodes = (
"311 216 OFFCURVE",
"272 250 OFFCURVE",
"272 318 CURVE SMOOTH",
"272 350 OFFCURVE",
"279 383 OFFCURVE",
"293 418 CURVE SMOOTH",
"320 489 OFFCURVE",
"371 545 OFFCURVE",
"419 545 CURVE SMOOTH",
"432 545 OFFCURVE",
"451 534 OFFCURVE",
"464 522 CURVE SMOOTH",
"477 510 OFFCURVE",
"494 492 OFFCURVE",
"499 486 CURVE",
"501 483 OFFCURVE",
"502 480 OFFCURVE",
"504 479 CURVE",
"503 477 OFFCURVE",
"501 465 OFFCURVE",
"498 442 CURVE SMOOTH",
"494 419 OFFCURVE",
"490 397 OFFCURVE",
"487 376 CURVE SMOOTH",
"481 343 LINE",
"469 290 OFFCURVE",
"402 216 OFFCURVE",
"346 216 CURVE SMOOTH"
);
}
);
width = 802;
}
);
note = at;
unicode = 0040;
},
{
glyphname = ampersand;
lastChange = "2017-06-06 03:32:15 +0000";
layers = (
{
guideLines = (
{
position = "{535, 187}";
}
);
layerId = "EE746D13-63D7-48F9-B77E-C723CA6A668B";
paths = (
{
closed = 1;
nodes = (
"367 -13 OFFCURVE",
"379 23 OFFCURVE",
"474 97 CURVE",
"529 23 OFFCURVE",
"585 -13 OFFCURVE",
"646 -13 CURVE SMOOTH",
"756 -13 OFFCURVE",
"804 52 OFFCURVE",
"804 187 CURVE",
"740 187 LINE",
"740 112 OFFCURVE",
"712 67 OFFCURVE",
"652 67 CURVE SMOOTH",
"617 67 OFFCURVE",
"573 104 OFFCURVE",
"540 163 CURVE",
"756 387 LINE",
"837 387 LINE",
"837 447 LINE",
"556 447 LINE",
"556 387 LINE",
"654 387 LINE",
"495 227 LINE",
"389 382 LINE",
"484 447 OFFCURVE",
"560 514 OFFCURVE",
"560 604 CURVE SMOOTH",
"560 690 OFFCURVE",
"493 750 OFFCURVE",
"402 750 CURVE SMOOTH",
"293 750 OFFCURVE",
"211 676 OFFCURVE",
"211 585 CURVE SMOOTH",
"211 535 OFFCURVE",
"234 469 OFFCURVE",
"268 414 CURVE",
"129 331 OFFCURVE",
"56 292 OFFCURVE",
"56 185 CURVE SMOOTH",
"56 68 OFFCURVE",
"134 -13 OFFCURVE",
"264 -13 CURVE SMOOTH"
);
},
{
closed = 1;
nodes = (
"209 70 OFFCURVE",
"168 114 OFFCURVE",
"168 167 CURVE SMOOTH",
"168 249 OFFCURVE",
"206 268 OFFCURVE",
"310 337 CURVE",
"427 163 LINE",
"361 101 OFFCURVE",
"317 70 OFFCURVE",
"276 70 CURVE SMOOTH"
);
},
{
closed = 1;
nodes = (
"328 504 OFFCURVE",
"305 552 OFFCURVE",
"305 597 CURVE SMOOTH",
"305 646 OFFCURVE",
"340 682 OFFCURVE",
"396 682 CURVE SMOOTH",
"449 682 OFFCURVE",
"476 646 OFFCURVE",
"476 597 CURVE SMOOTH",
"476 540 OFFCURVE",
"433 514 OFFCURVE",
"352 452 CURVE"
);
}
);
width = 884;
}
);
note = ampersand;
unicode = 0026;
},
{
glyphname = paragraph;
lastChange = "2017-06-04 21:18:45 +0000";
layers = (
{
layerId = "EE746D13-63D7-48F9-B77E-C723CA6A668B";
paths = (
{
closed = 1;
nodes = (
"389 -28 LINE",
"389 359 LINE",
"460 359 LINE",
"460 -28 LINE",
"540 -28 LINE",
"540 722 LINE",
"271 722 LINE SMOOTH",
"207 722 OFFCURVE",
"154 700 OFFCURVE",
"122 665 CURVE SMOOTH",
"90 630 OFFCURVE",
"72 586 OFFCURVE",
"72 540 CURVE SMOOTH",
"72 494 OFFCURVE",
"89 450 OFFCURVE",
"122 416 CURVE SMOOTH",
"155 381 OFFCURVE",
"209 359 OFFCURVE",
"276 359 CURVE SMOOTH",
"306 359 LINE",
"306 -28 LINE"
);
}
);
width = 591;
}
);
note = paragraph;
unicode = 00B6;
},
{
glyphname = section;
lastChange = "2017-06-04 21:18:45 +0000";
layers = (
{
layerId = "EE746D13-63D7-48F9-B77E-C723CA6A668B";
paths = (
{
closed = 1;
nodes = (
"314 -4 OFFCURVE",
"341 0 OFFCURVE",
"373 7 CURVE SMOOTH",
"405 15 OFFCURVE",
"433 30 OFFCURVE",
"456 50 CURVE SMOOTH",
"479 70 OFFCURVE",
"492 101 OFFCURVE",
"492 137 CURVE SMOOTH",
"492 172 OFFCURVE",
"480 201 OFFCURVE",
"455 224 CURVE",
"491 253 OFFCURVE",
"508 292 OFFCURVE",
"508 340 CURVE SMOOTH",
"508 393 OFFCURVE",
"481 435 OFFCURVE",
"441 458 CURVE SMOOTH",
"402 482 OFFCURVE",
"352 500 OFFCURVE",
"304 514 CURVE SMOOTH",
"280 520 OFFCURVE",
"259 527 OFFCURVE",
"239 534 CURVE SMOOTH",
"199 548 OFFCURVE",
"172 569 OFFCURVE",
"172 598 CURVE SMOOTH",
"172 651 OFFCURVE",
"223 676 OFFCURVE",
"292 676 CURVE SMOOTH",
"339 676 OFFCURVE",
"387 664 OFFCURVE",
"414 644 CURVE",
"381 641 OFFCURVE",
"362 621 OFFCURVE",
"362 587 CURVE SMOOTH",
"362 550 OFFCURVE",
"393 530 OFFCURVE",
"431 530 CURVE SMOOTH",
"465 530 OFFCURVE",
"494 561 OFFCURVE",
"494 603 CURVE SMOOTH",
"494 650 OFFCURVE",
"467 685 OFFCURVE",
"424 702 CURVE SMOOTH",
"380 719 OFFCURVE",
"336 726 OFFCURVE",
"286 726 CURVE SMOOTH",
"259 726 OFFCURVE",
"232 723 OFFCURVE",
"200 715 CURVE SMOOTH",
"168 707 OFFCURVE",
"141 692 OFFCURVE",
"118 672 CURVE SMOOTH",
"95 652 OFFCURVE",
"81 622 OFFCURVE",
"81 585 CURVE SMOOTH",
"81 550 OFFCURVE",
"93 521 OFFCURVE",
"118 498 CURVE",
"83 469 OFFCURVE",
"65 431 OFFCURVE",
"65 382 CURVE SMOOTH",
"65 335 OFFCURVE",
"86 297 OFFCURVE",
"118 274 CURVE SMOOTH",
"149 251 OFFCURVE",
"190 231 OFFCURVE",
"233 220 CURVE SMOOTH",
"275 208 OFFCURVE",
"317 194 OFFCURVE",
"349 182 CURVE SMOOTH",
"380 170 OFFCURVE",
"401 149 OFFCURVE",
"401 124 CURVE SMOOTH",
"401 71 OFFCURVE",
"350 46 OFFCURVE",
"281 46 CURVE SMOOTH",
"234 46 OFFCURVE",
"187 58 OFFCURVE",
"159 78 CURVE",
"192 82 OFFCURVE",
"211 101 OFFCURVE",
"211 135 CURVE SMOOTH",
"211 172 OFFCURVE",
"181 192 OFFCURVE",
"142 192 CURVE SMOOTH",
"108 192 OFFCURVE",
"79 162 OFFCURVE",
"79 119 CURVE SMOOTH",
"79 72 OFFCURVE",
"106 38 OFFCURVE",
"150 21 CURVE SMOOTH",
"193 3 OFFCURVE",
"237 -4 OFFCURVE",
"287 -4 CURVE SMOOTH"
);
},
{
closed = 1;
nodes = (
"372 271 OFFCURVE",
"352 279 OFFCURVE",
"327 286 CURVE SMOOTH",
"277 301 OFFCURVE",
"246 310 OFFCURVE",
"211 326 CURVE SMOOTH",
"177 342 OFFCURVE",
"158 366 OFFCURVE",
"158 397 CURVE SMOOTH",
"158 422 OFFCURVE",
"167 442 OFFCURVE",
"186 457 CURVE",
"202 451 OFFCURVE",
"222 444 OFFCURVE",
"247 437 CURVE SMOOTH",
"296 422 OFFCURVE",
"327 413 OFFCURVE",
"362 396 CURVE SMOOTH",
"396 380 OFFCURVE",
"415 356 OFFCURVE",
"415 325 CURVE SMOOTH",
"415 299 OFFCURVE",
"406 279 OFFCURVE",
"387 265 CURVE"
);
}
);
width = 572;
}
);
note = section;
unicode = 00A7;
},
{
glyphname = copyright;
lastChange = "2017-06-04 21:18:45 +0000";
layers = (
{
layerId = "EE746D13-63D7-48F9-B77E-C723CA6A668B";
paths = (
{
closed = 1;
nodes = (
"476 -13 OFFCURVE",
"525 -3 OFFCURVE",
"572 18 CURVE SMOOTH",
"620 38 OFFCURVE",
"660 65 OFFCURVE",
"694 100 CURVE SMOOTH",
"763 168 OFFCURVE",
"807 267 OFFCURVE",
"807 370 CURVE SMOOTH",
"807 438 OFFCURVE",
"790 502 OFFCURVE",
"755 560 CURVE SMOOTH",
"687 677 OFFCURVE",
"562 750 OFFCURVE",
"424 750 CURVE SMOOTH",
"321 750 OFFCURVE",
"223 707 OFFCURVE",
"155 639 CURVE SMOOTH",
"86 570 OFFCURVE",
"42 472 OFFCURVE",
"42 370 CURVE SMOOTH",
"42 267 OFFCURVE",
"86 168 OFFCURVE",
"155 100 CURVE SMOOTH",
"223 31 OFFCURVE",
"321 -13 OFFCURVE",
"424 -13 CURVE SMOOTH"
);
},
{
closed = 1;
nodes = (
"335 35 OFFCURVE",
"248 74 OFFCURVE",
"188 134 CURVE SMOOTH",
"127 194 OFFCURVE",
"89 281 OFFCURVE",
"89 371 CURVE SMOOTH",
"89 432 OFFCURVE",
"104 488 OFFCURVE",
"134 539 CURVE SMOOTH",
"195 642 OFFCURVE",
"304 706 OFFCURVE",
"425 706 CURVE SMOOTH",
"517 706 OFFCURVE",
"603 668 OFFCURVE",
"664 608 CURVE SMOOTH",
"724 548 OFFCURVE",
"762 461 OFFCURVE",
"762 371 CURVE SMOOTH",
"762 281 OFFCURVE",
"724 194 OFFCURVE",
"664 134 CURVE SMOOTH",
"603 74 OFFCURVE",
"517 35 OFFCURVE",
"425 35 CURVE SMOOTH"
);
},
{
closed = 1;
nodes = (
"526 163 OFFCURVE",
"600 216 OFFCURVE",
"620 300 CURVE",
"581 319 LINE",
"567 265 OFFCURVE",
"516 214 OFFCURVE",
"450 214 CURVE SMOOTH",
"422 214 OFFCURVE",
"397 223 OFFCURVE",
"375 240 CURVE SMOOTH",
"333 275 OFFCURVE",
"313 328 OFFCURVE",
"313 384 CURVE SMOOTH",
"313 493 OFFCURVE",
"366 561 OFFCURVE",
"444 561 CURVE SMOOTH",
"492 561 OFFCURVE",
"528 539 OFFCURVE",
"548 510 CURVE",
"523 510 OFFCURVE",
"489 490 OFFCURVE",
"489 457 CURVE SMOOTH",
"489 428 OFFCURVE",
"514 406 OFFCURVE",
"544 406 CURVE SMOOTH",
"582 406 OFFCURVE",
"607 436 OFFCURVE",
"607 465 CURVE SMOOTH",
"607 492 OFFCURVE",
"599 517 OFFCURVE",
"583 538 CURVE SMOOTH",
"549 580 OFFCURVE",
"498 602 OFFCURVE",
"445 602 CURVE SMOOTH",
"318 602 OFFCURVE",
"230 510 OFFCURVE",
"230 382 CURVE SMOOTH",
"230 260 OFFCURVE",
"321 163 OFFCURVE",
"440 163 CURVE SMOOTH"
);
}
);
width = 832;
}
);
note = copyright;
unicode = 00A9;
},
